/* XPM */
static char *_e4d17e3a11148c7c2f89c71bb564c03A69AKsgKywZmXDnt[] = {
/* columns rows colors chars-per-pixel */
"50 50 125 2 ",
"   c #010101",
".  c #080707",
"X  c #070807",
"o  c #090807",
"O  c #030509",
"+  c #090709",
"@  c #070808",
"#  c #0B0B0B",
"$  c #100E0F",
"%  c #0F100F",
"&  c #10110F",
"*  c #1E130A",
"=  c #0F0F10",
"-  c #0F1110",
";  c #0A1912",
":  c #131313",
">  c #181617",
",  c #101A16",
"<  c #14161A",
"1  c #131E19",
"2  c #1B1A1A",
"3  c #13221B",
"4  c #1F201F",
"5  c #1F1F20",
"6  c #1A2B23",
"7  c #222222",
"8  c #262827",
"9  c #282826",
"0  c #2B2B2B",
"q  c #323333",
"w  c #3D3E3F",
"e  c #3A442F",
"r  c #3B4633",
"t  c #3C4834",
"y  c #3E513C",
"u  c #3C4343",
"i  c #404446",
"p  c #464748",
"a  c #46494A",
"s  c #4D4D4E",
"d  c #42524C",
"f  c #4B5957",
"g  c #4E5D5B",
"h  c #5A5B5D",
"j  c #68686C",
"k  c #6D6F74",
"l  c #707177",
"z  c #73747A",
"x  c #777A7F",
"c  c #92470D",
"v  c #924D0E",
"b  c #9F4E0D",
"n  c #984E10",
"m  c #9F5010",
"M  c #A34D0C",
"N  c #A3510C",
"B  c #AE5509",
"V  c #A35210",
"C  c #AC7512",
"Z  c #AF7E1A",
"A  c #B17C16",
"S  c #B27F1B",
"D  c #D2640E",
"F  c #DC670E",
"G  c #D56B0E",
"H  c #DB690E",
"J  c #D36410",
"K  c #D96810",
"L  c #F09A0D",
"P  c #ED9B11",
"I  c #EFA30E",
"U  c #F0A20F",
"Y  c #EFA110",
"T  c #F0A110",
"R  c #FAAA10",
"E  c #7E8389",
"W  c #42AE80",
"Q  c #55B78E",
"!  c #61BA95",
"~  c #6BBE9B",
"^  c #6FC0A0",
"/  c #72C1A2",
"(  c #78C3A6",
")  c #80838A",
"_  c #87898E",
"`  c #8F9097",
"'  c #95969B",
"]  c #9B9EA3",
"[  c #9EA2A5",
"{  c #9FA4AA",
"}  c #A0A4A6",
"|  c #A6A9B0",
" . c #ABADB6",
".. c #AFB5B9",
"X. c #B1B6BB",
"o. c #B4B9BE",
"O. c #8CC9B2",
"+. c #B0B5C0",
"@. c #B6BBC1",
"#. c #B9BEC4",
"$. c #BBC0C6",
"%. c #BDC2C9",
"&. c #C1C6CD",
"*. c #C4CACE",
"=. c #C2C6D1",
"-. c #C4C8D1",
";. c #C7CBD3",
":. c #C2C8D4",
">. c #C7CCD5",
",. c #C9CFD7",
"<. c #CACFD9",
"1. c #C9D1D6",
"2. c #CAD1D9",
"3. c #CCD1DB",
"4. c #CDD4DB",
"5. c #CED3DC",
"6. c #CED4DD",
"7. c #D0D3DD",
"8. c #D0D5DF",
"9. c #D2D7E1",
"0. c #D3D9E2",
"q. c #D5D9E3",
"w. c #D3D8E4",
"e. c #D5DAE4",
"r. c #D9DEE8",
/* pixels */
"^ ^ ^ ^ ^ ^ ^ / ( ( / ^ ^ ^ ^ ^ ^ ^ ^ ^ ^ / ( ( / ^ ^ ^ ^ ^ ^ ^ ^ ^ ^ ^ ^ / ( ( / ^ ^ ~ ~ ~ ~ ^ ^ ^ ",
"^ ^ ^ ^ ^ ^ ^ ( O.O.( ^ ^ ^ ^ ^ ^ ^ ^ ^ ^ ( O.O.( ^ ^ ^ ^ ^ ^ ^ ^ ^ ^ ^ ^ ( O.O.( ^ ^ ~ Q Q ~ ^ ^ ^ ",
"^ ^ ^ ^ ^ ^ ^ ( O.O.( ^ ^ ^ ^ ~ ! ! ~ ^ ^ ( O.O.( ^ ^ ^ ^ ^ ^ ^ ^ ^ ^ ^ ^ ( O.O.( ^ ^ ~ Q Q ~ ~ ! ! ",
"^ ^ ^ ^ ^ ^ ^ / ( ( / ^ ^ ^ ^ ! W W ! ^ ^ / ( ( / ^ ^ ^ ^ ^ ^ ^ ^ ^ ^ ^ ^ / ( ( / ^ ^ ~ ~ ~ ~ ! W W ",
"^ ^ ^ ^ ^ ^ ^ ^ ^ ^ ^ ^ ^ ^ ^ !     ! ~ ~ ~ ~ ^ ^ ^ ^ ^ ^ ^ ^ ^     ^ ^ ^ ^ ^ ^ ^ ^ ^ ^ ^ ^ ^ ! W W ",
"^ ^ ^ ^ ^ ^ ^ ^ ^ ^ ^ ^ ^ ^ ^     :   ~ Q Q ~ ^ ^ ^ ^ ^ ^ ^ ^         ^ ^ ^ ^ ^ ^ ^ ^ ^ ^ ^ ^ ~ ! ! ",
"/ ^ ^ ^ ^ ^ ^ ^ ^ ^ ^ ^ ^ ^ ^     2     Q Q ~ ^ ^ ^ ^ / ( (   2 >     ^ ^ ^ ^ ^ ^ ^ ^ / ( ( / ^ ^ ^ ",
"( o o o o o o ^ ^ ^ ^ ^ ^ ^ ^     ^ #     ~ ~ ^ ^ ^ ^ ( O.O.: # ^     ^ ^ ^ ^ ^ ^ ^ o o o o o o o ^ ",
"o 3.<.-.X.#.j o o ^ ^ ^ ^ ^ ^ / ( (   =   ~ ! ! ~ ^ ^ ( O.X :   ( ( / ^ ^ ^ ^ ^ ^ o f l { -.X.<.2.o ",
"o 8.6.,.@.%.w.q.| o ^ ^ ^ ^ ^ ( O.O.(   #   W W ! ^ ^ /   # X ( O.O.( ^ ^ ^ ^ ^ o g  .e.-.o.#.6.4.o ",
"o 8.3.5.<.o.*.8.6.] o ^ ^ ^ ^ ( O.O.( ^ X # W W ! ^ ^ ^ X X ^ ( O.O.( ^ ^ ^ ^ o f X.8.-.@.%.8.3.3.o ",
"o 8.3.3.5.2.o.&.8.0._ o ^ ^ ^ / ( ( / ^   #             +   ^ / ( ( / ^ ^ ^ o u +.9.-.o.%.8.5.4.5.o ",
"o 6.6.5.5.6.3.X.-.8.| u o ^ ^ ^ ^ ^ ^ ^   & : : 2 2 > # :   ^ ^ ^ ^ ^ ^ ^ o u =.8.8.o.&.8.5.6.7.3.o ",
"^ o &.%.%.%.%.#.} ,.9.:.i o ^ ^ ^ ^ ^   - 2 9 9 7 7 9 8 2 #   ^ ^ ^ ^ ^ o o 2.7.8.=.X.%.%.%.%.%.o ^ ",
"^ o ..X.X.X.X.X.X.#.-.8.6.o ^ ^ ^ ^   : 2 2 q q 7 7 q q 2 2 :   ^ ^ ^ o o 6.5.8.-.X.o.o.o.X.X.X.o ^ ",
"^ ^ o E e.0.0.0.9.9.2.&.8.8.o w q # : : 0 0 4 5 7 7 7 2 8 9 : # #   o :.8.8.&.X.>.8.0.e.e.e.0.o ^ ^ ",
"~ ^ ^ o x l l l ) $.o.[ %.&.e.r.,.X # : q w 2 2 2 2 2 2 w 0 : # X q 3.9.&.%.[ #.$.#.' z x x o o ^ ^ ",
"~ ^ ^ ^ o o o o o o.o.X.[ } %.%.$.w X : 2 q 2 2 2 2 2 2 0 > 2 X u -.%.#.[ ] X.o.X.o.z o 2 ; o ^ ^ ^ ",
"~ ~ ! ! ~ o 1.r.q.8.3.%.@.@.o.o.X.X.p + 2 2 2 2 2 2 2 2 2 2 + a #.%.@.@.@.o.$.5.8.8.q.r.' o ^ ^ ^ ^ ",
"~ ! W W ! o *.8.3.1.%.#.8.6.8.8.8.[ X.  2 2 2 2 2 2 2 2 2 2   o.] o.8.8.8.8.#.$.<.6.5.6.-.h o ^ ^ ^ ",
"^ ! W W ! o o 0.6.#.$.8.5.6.0.-.&.} s   2 2 2 2 2 2 2 2 2 2   h } %.>.q.6.6.8.$.#.,.6.9.' d o ^ ^ ^ ",
"^ ~ ! ! ~ ~ o k 3.X.-.-.-.&.o o o o o + 2 2 2 2 2 2 2 2 2 2 +   o o o o &.-.=.-.X.$.-.` o o ^ ^ ^ ^ ",
"/ ^ ^ ^ ^ ~ Q o o o o o o o ^ ^     # + : 2 2 2 2 2 2 2 2 : + +     ^ ~ o o o o o o o o ( ( / ^ ^ ^ ",
"( ^ ^ ^ ^ ~ ~ ~ ~ ^ ^ ^ ^ ^ ^ ^   + + + +   + : : : : + + + + + + + ^ ~ ~ ~ ~ ^ ^ ^ ^ ( O.O.( ^ ^ ^ ",
"( / ( ( / ^ ^ ~ ! ! ~ ^ ^ ^ ^ / (           + + o + + + +           / ^ ^ ~ ! ! ~ ^ ^ ( O.O.( / ( ( ",
"/ ( O.O.( ^ ^ ! W W ! ^ ^ ^ ^     :     %   # # # # # #   $ +     X   ^ ^ ! W W ! ^ ^ / ( ( / ( O.O.",
"^ ( O.O.( ^ ^ ! W W ! ^ ^ ^ 6         % :     O O O O     : : X :       ^ ! W W ! ^ ^ ^ ^ ^ ^ ( O.O.",
"^ / ( ( / ^ ^ ~ ! ! ~ ^ ^ 3     X # . #   b c C A A C b M   % # + X     1 ~ ! ! ~ ^ ^ ^ ^ ^ ^ / ( ( ",
"^ ^ ^ ^ ^ ^ ^ ^ ^ ~ ~ ~ ~ ^     ^       N H L R R R R P H B       ^     ^ ^ ^ ~ ~ ~ ~ ^ ^ ^ ^ ^ ^ ^ ",
"^ ^ ^ ^ ^ ^ ^ ^ ^ ~ Q Q ~ ^ ^ ^ ^ 2 :                             ^ ^ ^ ^ ^ ^ ~ Q Q ~ ^ ^ ^ ^ ^ ^ ^ ",
"^ ^ ^ ^ ^ ^ ^ ^ ^ ~ Q Q ~ ^ ^ ^       X                             ^ ^ ^ ^ ^ ~ Q Q ~ ^ ^ ^ ^ ^ ^ ^ ",
"^ ^ ^ ^ ^ ^ ^ ^ ^ ~ ~ ~ ~ ^ ^ 6 2     O O < < < > < < <     O X X     ^ ^ ^ ^ ~ ~ ~ ~ ^ ^ ^ ^ ^ ^ ^ ",
"^ ^ ^ ^ ^ ^ ^ / ( ( / ^ ^ ^ , 2 : ^   H G I I I I I U U U G F   ^     3 ^ / ( ( / ^ ^ ~ ~ ~ ~ ^ ^ ^ ",
"^ ^ ^ ^ ^ ^ ^ ( O.O.( ^ ^ ^     # ^   H D T U I Y Y Y I Y D F   ^       ^ ( O.O.( ^ ^ ~ Q Q ~ ^ ^ ^ ",
"^ ^ ^ ^ ^ ^ ^ ( O.O.( ^ ^ ^     !   X V v S S S Z S S S S n m X   ^     ^ ( O.O.( ^ ^ ~ Q Q ~ ~ ! ! ",
"^ ^ ^ ^ ^ ^ ^ / ( ( / ^ ^ ^     W o X O O                     X   ^ 2   ^ / ( ( / ^ ^ ~ ~ ~ ~ ! W W ",
"^ ^ ^ ^ ^ ^ ^ ^ ^ ^ ^ ^ ^ ^     W 4   + @                 X @     ^ # 3 ^ ^ ^ ^ ^ ^ ^ ^ ^ ^ ^ ! W W ",
"^ ^ ^ ^ ^ ^ ^ ^ ^ ^ ^ ^ ^ ^ ^         + *                   X         ^ ^ ^ ^ ^ ^ ^ ^ ^ ^ ^ ^ ~ ! ! ",
"/ ^ ^ ^ ^ ^ ^ ^ ^ ^ ^ ^ ^ ^ ^ ^ ^     X J K K P P P P H H D # . +   ^ ^ ^ ^ ^ ^ ^ ^ ^ / ( ( / ^ ^ ^ ",
"( ^ ^ ^ ^ ^ ^ ^ ^ ^ ^ ^ ^ ^ ^ ^ ^     ~ X K J D D D D J H X (   :   ^ ^ ^ ^ ^ ^ ^ ^ ^ ( O.O.( ^ ^ ^ ",
"( / ( ( / ^ ^ ^ ^ ^ ^ ^ ^ ^ ^ / ( ( / ^ ^     + + + +     O.( / ( ( / ^ ^ ^ ^ ^ ^ ^ ^ ( O.O.( / ( ( ",
"/ ( O.O.( ^ ^ ^ ^ ^ ^ ^ ^ ^ ^ ( O.O.( ^ ^ ! W   + +   / ( ( / ( O.O.( ^ ^ ^ ^ ^ ^ ^ ^ / ( ( / ( O.O.",
"^ ( O.O.( ^ ^ ^ ^ ^ ^ ^ ^ ^ ^ ( O.O.( ^ ^ ! W W     ^ ^ ^ ^ ^ ( O.O.( ^ ^ ^ ^ ^ ^ ^ ^ ^ ^ ^ ^ ( O.O.",
"^ / ( ( / ^ ^ ^ ^ ^ ^ ^ ^ ^ ^ / ( ( / ^ ^ ~ ! !   X ^ ^ ^ ^ ^ / ( ( / ^ ^ ^ ^ ^ ^ ^ ^ ^ ^ ^ ^ / ( ( ",
"^ ^ ^ ^ ^ ^ ^ ^ ^ ~ ~ ~ ~ ^ ^ ^ ^ ^ ^ ^ ^ ^ ^ ~ ~ ~ ~ ^ ^ ^ ^ ^ ^ ^ ^ ^ ^ ^ ^ ~ ~ ~ ~ ^ ^ ^ ^ ^ ^ ^ ",
"^ ^ ^ ^ ^ ^ ^ ^ ^ ~ Q Q ~ ^ ^ ^ ^ ^ ^ ^ ^ ^ ^ ~ Q Q ~ ^ ^ ^ ^ ^ ^ ^ ^ ^ ^ ^ ^ ~ Q Q ~ ^ ^ ^ ^ ^ ^ ^ ",
"^ ^ ^ ^ ^ ^ ^ ^ ^ ~ Q Q ~ ^ ^ ^ ^ ^ ^ ^ t t t t t t t t t t ^ ^ ^ ^ ^ ^ ^ ^ ^ ~ Q Q ~ ^ ^ ^ ^ ^ ^ ^ ",
"^ ^ ^ ^ ^ ^ ^ ^ ^ ~ ~ ~ ~ ^ ^ ^ ^ ^ ^ t t t t t t t t t t r t ^ ^ ^ ^ ^ ^ ^ ^ ~ ~ ~ ~ ^ ^ ^ ^ ^ ^ ^ ",
"~ ^ ^ ^ ^ ^ ^ / ( ( / ^ ^ ^ ^ ^ ^ ^ ^ r y y y y y y y y y y r ^ ^ ^ ^ ^ ^ / ( ( / ^ ^ ^ ^ ^ ^ ^ ^ ^ ",
"~ ^ ^ ^ ^ ^ ^ ( O.O.( ^ ^ ^ ^ ^ ^ ^ ^ ^ r t r t t r r r t e ~ ^ ^ ^ ^ ^ ^ ( O.O.( ^ ^ ^ ^ ^ ^ ^ ^ ^ "
};
