/* XPM */
static char *fda653b7b1db4e87a7fb39b40fbf43e1gpL1YtrU0gs5Xe8O[] = {
/* columns rows colors chars-per-pixel */
"50 50 128 2 ",
"   c #010101",
".  c #090706",
"X  c #060906",
"o  c #0A0907",
"O  c #080708",
"+  c #0B0B0B",
"@  c #0E110E",
"#  c #10100E",
"$  c #0F0F10",
"%  c #0F1411",
"&  c #0E1810",
"*  c #141414",
"=  c #191615",
"-  c #151913",
";  c #181718",
":  c #141C19",
">  c #1C1C1C",
",  c #2A1A0A",
"<  c #2B1D11",
"1  c #18201B",
"2  c #32240A",
"3  c #2B251C",
"4  c #302917",
"5  c #302619",
"6  c #242424",
"7  c #282727",
"8  c #272827",
"9  c #282827",
"0  c #2C2C2C",
"q  c #302F2F",
"w  c #28312D",
"e  c #333232",
"r  c #4A260B",
"t  c #5B2D09",
"y  c #65320A",
"u  c #723A0C",
"i  c #7B3F0F",
"p  c #633C16",
"a  c #3D4C37",
"s  c #3F4E3A",
"d  c #3F503A",
"f  c #4F4734",
"g  c #404F3A",
"h  c #40513A",
"j  c #5F5D5F",
"k  c #646566",
"l  c #6E6E6D",
"z  c #87440D",
"x  c #88490F",
"c  c #864916",
"v  c #9E5816",
"b  c #AD5C15",
"n  c #B55F15",
"m  c #936717",
"M  c #BA6416",
"N  c #D16717",
"B  c #DB6D16",
"V  c #D47016",
"C  c #DE7414",
"Z  c #E27615",
"A  c #E67914",
"S  c #AE8534",
"D  c #E48815",
"F  c #E39011",
"G  c #E59D16",
"H  c #EAA314",
"J  c #EDA915",
"K  c #EEA718",
"L  c #F1AA17",
"P  c #F3AC1B",
"I  c #E9A823",
"U  c #F5BD25",
"Y  c #F6B52E",
"T  c #F6B833",
"R  c #FDC752",
"E  c #FDC955",
"W  c #F7CA5A",
"Q  c #FCCB5B",
"!  c #42AE80",
"~  c #55B78E",
"^  c #61BA95",
"/  c #6BBE9B",
"(  c #6FC0A0",
")  c #72C1A2",
"_  c #78C3A6",
"`  c #818080",
"'  c #929394",
"]  c #97989A",
"[  c #A4A4A5",
"{  c #A5A7A8",
"}  c #A7AAA9",
"|  c #ACAEAE",
" . c #AEB1AF",
".. c #B0B1AF",
"X. c #AEAFB0",
"o. c #AEB1B1",
"O. c #B1B3B4",
"+. c #B1B5B8",
"@. c #B5B8BA",
"#. c #8CC9B2",
"$. c #BBBEC2",
"%. c #BEC0C4",
"&. c #C0C3C9",
"*. c #C0C5C8",
"=. c #C4C7CB",
"-. c #C1C6CC",
";. c #C5C7CE",
":. c #C6C9CE",
">. c #CBCCCE",
",. c #C7CBD0",
"<. c #CACED5",
"1. c #CCCFD7",
"2. c #CFD1D2",
"3. c #CED1D7",
"4. c #CDD1D8",
"5. c #CFD3DC",
"6. c #CFD4DC",
"7. c #D4D5D5",
"8. c #D0D4DB",
"9. c #D1D3DC",
"0. c #D1D6DD",
"q. c #D5D5DE",
"w. c #D9DAD9",
"e. c #D3D7E2",
"r. c #D4D6E0",
"t. c #D4D9E1",
"y. c #F4F3F6",
"u. c #FFFFFF",
/* pixels */
"( ( ( ( ( ( ( ) _ _ ) ( ( ( ( ( ( ( ( ( ( ) _ _ ) ( ( ( ( ( ( ( ( ( ( ( ( ) _ _ ) ( ( / / / / ( ( ( ",
"( ( ( ( ( ( ( _ #.#._ ( ( ( ( ( ( ( ( ( ( _ #.#._ ( ( (       ( ( ( ( ( ( _ #.#._ ( ( / ~ ~ / ( ( ( ",
"( ( ( ( ( ( ( _ #.#._ ( ( ( ( / ^ ^ / ( ( _ #.#._ (     :.;.X.  ( ( ( ( ( _ #.#.              / ^ ^ ",
"( ( ( ( ( ( ( ) _ _ ) ( ( ( ( ^ ! ! ^ ( ( ) _ _ ) (   X.0.0.|   ( ( ( ( ( )     | O.O.O.O.O.O.  ! ! ",
"( ( ( ( ( ( ( ( ( ( ( ( ( ( ( ^ ! ! ^ / / / / ( ( * t.o.0.0.X.  ( ( ( ( (   X.| | 0.0.0.0.o.} |   ! ",
"( ( ( ( ( ( ( ( ( ( (           ^ ^ / / ~ ~ / (   o.&.q.0.o.q.  ( ( ( (   | X.| 4.0.9.0.| 4.| |   ^ ",
") ( ( * * * ( ( ( (   7 7 7 8 + ( ( ( / ~ ~ / (   $.*.0.:.o.$.  ( (     ..$.0.0.0.9.*.$.0.0.0.|   ( ",
"_   * * * * 0   ( ( (         *   ( ( / / / / (   4.%.o.O.0.8.  (   o.o.5.O.0.4.| X.0.0.0.0.6.|   ( ",
"_ )       * ; ; 1 ( ( ( ( ( ( *   _ ) ( ( / ^ 0 | <.O.o.9.0.+.    j o.0.0.o.0.o.| X.9.0.0.5.| |   _ ",
") _ #.#._ (   ; w ( ( ( ( ( ( *   #._ ( ( ^ ! 0 r.<.$.0.0.9.O.  o.X.0.0.6.o.X.$.0.t.| | | | 0.    #.",
"( _ #.#._ ( (   *   ( ( ( ( ( : *   _ ( ( ^ ! 7 q.<.$.9.| |     } +.9.0.| 0.0.0.8.4.| 0.0.5.|   #.#.",
"( ) _ _ ) ( ( (       ( ( ( ( : *   ) ( ( /     0.O.0.| 4.o.  l %.6.=.%.0.9.0.0.9.+.0.0.1.|     _ _ ",
"( ( ( ( ( ( ( ( ( ;   /         *   ( ( ( (   O.0.o.*.0.o.  | $.0.4.4.0.0.0.o.| 5.0.0.0. .  ( ( ( ( ",
"( ( ( ( ( ( ( ( ( *     e e e X *       ( (   O.o.3.$.*.    | 0.0.O.0.o.O.O.0.e.X.0.0.5.  ( ( ( ( ( ",
"( ( ( ( ( ( ( ( ( * X > * * *   *   e e   (   O.| 3.%.|   o.X.0.| O.O.o.0.0.0.&.o.o.o.@.  ( ( ( ( ( ",
"( ( ( ( ( ( ( (     * * * * * *   * * 7 q     O.| o.%.* | O.q.%.O.@.0.0.0.0.4.*.0.6.<.[   ( ( ( ( ( ",
"/ ( ( ( ( (     * * 6 * * * 3 H H H H * > * + o.o.o.  | :.0.$.:.0.0.0.0.$.$.-.0.0.@.    ( ( ( ( ( ( ",
"/ ( ( ( (   B F * * * * * H H f 0 H H 4 * * * + o.  o.o.0.X.9.0.8.0.O.| 0.0.0.$.}   ( ( ( ( ( ( ( ( ",
"/ / ^ ^ /   9 P * * * H H H e e + ; H H * * * X * * o.t.| 0.0.0.0.0.0.o.0.0.9.    ( ( ( ( ( ( ( ( ( ",
"/ ^ ! ! ^   7 K P * H H 0 e e >       H * * *   * 0 + | r.0.0.0.0.0.O.o.| O.    ) ( ( ( ( ( ( ( ( ( ",
"( ^ ! ! ^   o 0 9 H I 0 q 0 0 X 7.w.  C K * * * * 0 6   { [ [ [ [ { X       / ( ( ( ( ( ( ( ( ( ( ( ",
"( / ^ ^ /   y.  C H * * * k ` u.u.u.  C K * * * * 6 > e >   u y +   / / ~ ~ / ( ( ( ( ( ( ( ( ( ( ( ",
") ( ( ( (   u.  K H H   w.u.u.u.u.u.  K H * * @ ; e e * e   Z C * *     ~ ~ / ( ( ( ( ) _ _ ) ( ( ( ",
"_ ( ( ( (   u.  H H H   7.u.u.u.u.w.  K C * * X * e e * 6   R T + * * *   / / ( ( ( ( _ #.#._ ( ( ( ",
"_ ) _ _ )   w.  H H H H   w.w.w.w.  2 K C * *   * ; 9 0 *   E R e 9 * * C   ^ ^ / ( ( _ #.#._ ) _ _ ",
") _ #.#._     H H H H H H         H H N * * *   * * * * *   E Q 0 e e * A A   ! ^ ( ( ) _ _ ) _ #.#.",
"( _ #.#._   Z H H         H H H H H H 3 * *   * * * * * * H H S e e e e Y D * ! ^ ( ( ( ( ( ( _ #.#.",
"( ) _ _ )   Z H .     2.>.o H H H H C 5 *   # * * * * *   H H m ; * e W Q Q * O / ( ( ( ( ( ( ) _ _ ",
"( ( ( ( ( (   C K K K       H H C C C *   * * . * * +   Z K J x * * * L E Q * *   / / ( ( ( ( ( ( ( ",
"( ( ( ( ( ( (   H H H H H H G Z C * *   * * * $   * O   C C U * * * * H H E * 7   ~ / ( ( ( ( ( ( ( ",
"( ( ( ( ( ( (   o C Z C C C C C * *   * * *   9   * O 9   C v * * * G H H H * 7 t   / ( ( ( ( ( ( ( ",
"( ( ( ( ( ( ( ( (               * ; ( @ * *   6   , z *   * * * * H H H H * * * Z   / ( ( ( ( ( ( ( ",
"( ( ( ( ( ( ( ) _ _ ) ( ( ( ( * 6   ( (       0   C i *   * * +   H H H H * * * C   ( / / / / ( ( ( ",
"( ( ( ( ( ( ( _ #.#._ ( ( (   *   ( ( ( (   e +   A u *   * * O ; > C C * * * H Z   ( / ~ ~ / ( ( ( ",
"( ( ( ( ( ( ( _ #.#._ ( ( (   *   ^ / (   e e +   b   *   * * O   + V * * * * H =     / ~ ~ / / ^ ^ ",
"( ( ( ( ( ( ( ) _ _ ) ( ( (   *   ! ^ & 9 9 + _ )   + + o   * n r *   * * * p n *   :.        ^ ! ! ",
"( ( ( ( ( ( ( ( ( ( ( ( ( ( (     ! ^ &     / (   *   * * *   t < + e   * M C c   ' o.9.,.]   ^ ! ! ",
"( ( ( ( ( ( ( ( ( ( ( ( ( ( ( / ^ ^ / / ~ ~ / (   *       >   X * X e   A Z * X { { { }     ( / ^ ^ ",
") ( ( ( ( ( ( ( ( ( ( ( ( ( ( ( ( ( ( / ~ ~ / (   *   )   >       X q * C %               _ ) ( ( ( ",
"_ ( ( ( ( ( ( ( ( ( ( ( ( ( ( ( ( ( ( / / / / (   *   _   *   ( (   9 +     ( ( ( ( ( _ #.#._ ( ( ( ",
"_ ) _ _ ) ( ( ( ( ( ( ( ( ( ( ) _ _ ) ( ( / ^ ^   *   _   *   ) _ _ * e   ( ( ( ( ( ( _ #.#._ ) _ _ ",
") _ #.#._ ( ( ( ( ( ( ( ( ( ( _ #.#._ ( ( ^ ! !   *   )   *   _ #.#.=     ( ( ( ( ( ( ) _ _ ) _ #.#.",
"( _ #.#._ ( ( ( ( ( ( ( ( ( ( _ #.#._ ( ( ^ ! ! ^   O ( (   * O #.#.X * ;   ( ( ( ( ( ( ( ( ( _ #.#.",
"( ) _ _ ) ( ( ( ( ( ( ( ( ( ( ) _ _ ) ( ( / ^ ^ /   X ( ( ( O O _ _ X * 6   ( ( ( ( ( ( ( ( ( ) _ _ ",
"( ( ( ( ( ( ( ( ( / / / / ( ( ( ( ( ( ( ( ( ( / / /   ( ( (   + ( ( (   *   ( / / / / ( ( ( ( ( ( ( ",
"( ( ( ( ( ( ( ( ( / ~ ~ / ( ( ( ( ( ( ( ( ( ( / s s s g s s s - d s s   *   ( / ~ ~ / ( ( ( ( ( ( ( ",
"( ( ( ( ( ( ( ( ( / ~ ~ / ( ( ( ( ( ( ( ( ( ( h g g g g s s g g g g s   *   ( / ~ ~ / ( ( ( ( ( ( ( ",
"( ( ( ( ( ( ( ( ( / / / / ( ( ( ( ( ( ( ( s s s s s g d g s s g g g s d   s ( / / / / ( ( ( ( ( ( ( ",
"/ ( ( ( ( ( ( ) _ _ ) ( ( ( ( ( ( ( ( ( ( ) h s s s s s g h s s g h d s s ) _ _ ) ( ( ( ( ( ( ( ( ( ",
"/ ( ( ( ( ( ( _ #.#._ ( ( ( ( ( ( ( ( ( ( _ #.#.a a a a a a s a a a a a ( _ #.#._ ( ( ( ( ( ( ( ( ( "
};
