/* XPM */
static char *a016f90ab2be4a87ddfe832d01e18a18CT8BvurL5BFQ4D90[] = {
/* columns rows colors chars-per-pixel */
"50 50 129 2 ",
"   c #010101",
".  c #090706",
"X  c #060906",
"o  c #0A0907",
"O  c #080708",
"+  c #0B0B0B",
"@  c #0E110E",
"#  c #10100E",
"$  c #0F0F10",
"%  c #0F1411",
"&  c #0E1810",
"*  c #141414",
"=  c #191615",
"-  c #151913",
";  c #161718",
":  c #181718",
">  c #141C19",
",  c #1C1C1C",
"<  c #2A1A0A",
"1  c #2B1D11",
"2  c #18201B",
"3  c #32240A",
"4  c #2B251C",
"5  c #302917",
"6  c #302619",
"7  c #242424",
"8  c #282727",
"9  c #272827",
"0  c #282827",
"q  c #2C2C2C",
"w  c #302F2F",
"e  c #28312D",
"r  c #333232",
"t  c #4A260B",
"y  c #5B2D09",
"u  c #65320A",
"i  c #723A0C",
"p  c #7B3F0F",
"a  c #633C16",
"s  c #3D4C37",
"d  c #3F4E3A",
"f  c #3F503A",
"g  c #4F4734",
"h  c #404F3A",
"j  c #40513A",
"k  c #5F5D5F",
"l  c #646566",
"z  c #6E6E6D",
"x  c #87440D",
"c  c #88490F",
"v  c #864916",
"b  c #9E5816",
"n  c #AD5C15",
"m  c #B55F15",
"M  c #936717",
"N  c #BA6416",
"B  c #D16717",
"V  c #DB6D16",
"C  c #D47016",
"Z  c #DE7414",
"A  c #E27615",
"S  c #E67914",
"D  c #AE8534",
"F  c #E48815",
"G  c #E39011",
"H  c #E59D16",
"J  c #EAA314",
"K  c #EDA915",
"L  c #EEA718",
"P  c #F1AA17",
"I  c #F3AC1B",
"U  c #E9A823",
"Y  c #F5BD25",
"T  c #F6B52E",
"R  c #F6B833",
"E  c #FDC752",
"W  c #FDC955",
"Q  c #F7CA5A",
"!  c #FCCB5B",
"~  c #42AE80",
"^  c #55B78E",
"/  c #61BA95",
"(  c #6BBE9B",
")  c #6FC0A0",
"_  c #72C1A2",
"`  c #78C3A6",
"'  c #818080",
"]  c #929394",
"[  c #97989A",
"{  c #A4A4A5",
"}  c #A5A7A8",
"|  c #A7AAA9",
" . c #ACAEAE",
".. c #AEB1AF",
"X. c #B0B1AF",
"o. c #AEAFB0",
"O. c #AEB1B1",
"+. c #B1B3B4",
"@. c #B1B5B8",
"#. c #B5B8BA",
"$. c #8CC9B2",
"%. c #BBBEC2",
"&. c #BEC0C4",
"*. c #C0C3C9",
"=. c #C2C5CA",
"-. c #C4C7CB",
";. c #C1C6CC",
":. c #C5C7CE",
">. c #C6C9CE",
",. c #CBCCCE",
"<. c #C7CBD0",
"1. c #CACED5",
"2. c #CCCFD7",
"3. c #CFD1D2",
"4. c #CED1D7",
"5. c #CFD3DB",
"6. c #CFD3DC",
"7. c #CFD4DC",
"8. c #D4D5D5",
"9. c #D0D4DB",
"0. c #D1D3DC",
"q. c #D2D4DC",
"w. c #D5D5DE",
"e. c #D9DAD9",
"r. c #D3D7E2",
"t. c #D4D6E0",
"y. c #D4D9E1",
"u. c #F4F3F6",
"i. c #FFFFFF",
/* pixels */
") ) ) ( ( ( ( ) ) _ ` ` _ ) ) ) ) ) ) ) ) ) ) ) ) _ ` ` _ ) ) ) ) ) ) ) ) ) ) _ ` ` _ ) ) ) ) ) ) ) ",
") ) ) ( ^ ^ ( ) ) ` $.$.` ) ) ) ) ) )       ) ) ) ` $.$.` ) ) ) ) ) ) ) ) ) ) ` $.$.` ) ) ) ) ) ) ) ",
"/ / (               $.$.` ) ) ) ) )   o.:.>.    ) ` $.$.` ) ) ( / / ( ) ) ) ) ` $.$.` ) ) ) ) ) ) ) ",
"~ ~   +.+.+.+.+.+. .    _ ) ) ) ) )    .q.q.o.  ) _ ` ` _ ) ) / ~ ~ / ) ) ) ) _ ` ` _ ) ) ) ) ) ) ) ",
"~    .| O.q.q.q.q. . .o.  ) ) ) ) )   o.q.q.O.y.* ) ) ( ( ( ( / ~ ~ / ) ) ) ) ) ) ) ) ) ) ) ) ) ) ) ",
"/    . .5. .q.0.q.5. .o. .  ) ) ) )   w.O.q.w.*.O.  ) ( ^ ^ ( ( / /           ) ) ) ) ) ) ) ) ) ) ) ",
")    .q.q.q.%.=.0.q.q.q.%.X.    ) )   %.O.>.q.=.%.  ) ( ^ ^ ( ) ) ) + 9 9 8 9 . ) ) ) ) * * * ) ) _ ",
")    .7.q.q.q.q.o. .5.q.+.6.O.O.  )   9.q.+.O.&.5.  ) ( ( ( ( ) )   *         ) ) )   q * * * *   ` ",
"`    . .6.q.q.0.o. .O.q.O.q.q.O.k     @.q.0.O.+.1. .q / ( ) ) _ `   * ) ) ) ) ) ) 2 : : *       _ ` ",
"$.    q. . . . .y.q.%.o.O.7.q.q.o.O.  +.0.q.q.%.1.t.q ~ / ) ) ` $.  * ) ) ) ) ) ) e :   ) ` $.$.` _ ",
"$.$.   .6.q.q. .5.9.q.q.q. .q.6.@.|      . .0.%.1.w.9 ~ / ) ) `   * > ) ) ) ) )   *   ) ) ` $.$.` ) ",
"` `      .2.q.q.@.0.q.q.0.q.&.-.7.&.z   O.5. .q.+.q.    ( ) ) _   * > ) ) ) )       ) ) ) _ ` ` _ ) ",
") ) ) )   ..q.q.q.6. .O.q.q.q.5.5.q.%. .  O.q.=.O.q.+.  ) ) ) )   *         (   ; ) ) ) ) ) ) ) ) ) ",
") ) ) ) )   6.q.q.o.r.q.+.+.O.q.+.q.q. .    =.%.4.O.+.  ) )       * X r r r     * ) ) ) ) ) ) ) ) ) ",
") ) ) ) )   #.O.O.O.*.q.q.q.O.+.+. .q.o.O.   .&.4. .+.  )   r r   *   * * * , X * ) ) ) ) ) ) ) ) ) ",
") ) ) ) )   { 1.7.q.=.5.q.q.q.q.#.+.&.w.+. .* &.O. .+.    w 9 * * . * * * * * * .   ) ) ) ) ) ) ) ) ",
") ) ) ) ) )     #.q.q.;.%.%.q.q.q.q.>.%.q.>. .  O.O.O.+ * , * J J J J 4 * * * 7 * *     ) ) ) ) ) ( ",
") ) ) ) ) ) ) )   | %.q.q.q. .+.q.9.q.0.o.q.O.O.  O.+ * * * 5 J J q g J J * * * * * G V   ) ) ) ) ( ",
") ) ) ) ) ) ) ) )     0.q.q.O.q.q.q.q.q.q. .y.O.* * X * * * J J : + r r J J J * * * I q   ( / / ( ( ",
") ) ) ) ) ) ) ) ) _     +. .O.+.q.q.q.q.q.t. .+ q *   * * * J       , r r q J J * I L 9   / ~ ~ / ( ",
") ) ) ) ) ) ) ) ) ) ) (       X } { { { { }   7 q * * * * L Z   e.8.X q q w q U J q q .   / ~ ~ / ) ",
") ) ) ) ) ) ) ) ) ) ) ( ^ ^ ( (   + u i   , r , 7 * * * * L Z   i.i.i.' l * * * J Z   u.  ( / / ( ) ",
") ) ) _ ` ` _ ) ) ) ) ( ^ ^     * * Z A   r * r r ; @ * * J L   i.i.i.i.i.e.  J J L   i.  ) ) ) ) _ ",
") ) ) ` $.$.` ) ) ) ) ( (   * * * + R E   7 * r r * X * * Z L   e.i.i.i.i.8.  J J J   i.  ) ) ) ) ` ",
"` ` _ ` $.$.` ) ) ( / /   Z * * q r E W   * q q ; *   * * Z L 3   e.e.e.e.  J J J J   e.  _ ` ` _ ` ",
"$.$.` _ ` ` _ ) ) / ~   S S * r r q ! W   * * * * * . * * * B J J         J J J J J J     ` $.$.` _ ",
"$.$.` ) ) ) ) ) ) / ~ * F T r r r r D J J * * * * * *   * * 4 J J J J J J         J J A   ` $.$.` ) ",
"` ` _ ) ) ) ) ) ) ( O * ! ! Q r * : M J J   * * * * * #   * 6 Z J J J J o ,.3.    . J A   _ ` ` _ ) ",
") ) ) ) ) ) ) ( (   * * ! W P * * * c K L A   + * * . * *   * Z Z Z J J       L L L Z   ) ) ) ) ) ) ",
") ) ) ) ) ) ) ( ^   9 * W J J * * * * Y Z Z   O *   $ * * *   * * Z A H J J J J J J   ) ) ) ) ) ) ) ",
") ) ) ) ) ) ) (   y 9 * J J J H * * * b Z   q O *   0   * * *   * * Z Z Z Z Z A Z .   ) ) ) ) ) ) ) ",
") ) ) ) ) ) ) (   A * * * J J J J * * * *   * x <   7   * * @ ) : *               ) ) ) ) ) ) ) ) ) ",
") ) ) ( ( ( ( )   Z * * * J J J J   + * *   * p Z   q       ) )   7 * ) ) ) ) _ ` ` _ ) ) ) ) ) ) ) ",
") ) ) ( ^ ^ ( )   A J * * * Z Z , : O * *   * i S   + r   ) ) ) )   *   ) ) ) ` $.$.` ) ) ) ) ) ) ) ",
"/ / ( ( ^ ^ (     = J * * * * C +   O * *   *   n   + r r   ) ( /   *   ) ) ) ` $.$.` ) ) ) ) ) ) ) ",
"~ ~ /         >.  * m a * * *   * t m *   . + +   _ ` + q q & / ~   *   ) ) ) _ ` ` _ ) ) ) ) ) ) ) ",
"~ ~ /   [ <.0.O.]   v Z N *   r + 1 y   * * *   *   ) (     & / ~     ) ) ) ) ) ) ) ) ) ) ) ) ) ) ) ",
"/ / ( )     | } } } X * A S   r X * X   ,       *   ) ( ^ ^ ( ( / / ( ) ) ) ) ) ) ) ) ) ) ) ) ) ) ) ",
") ) ) _ `               % Z * w X       ,   _   *   ) ( ^ ^ ( ) ) ) ) ) ) ) ) ) ) ) ) ) ) ) ) ) ) _ ",
") ) ) ` $.$.` ) ) ) ) )     + q   ) )   *   `   *   ) ( ( ( ( ) ) ) ) ) ) ) ) ) ) ) ) ) ) ) ) ) ) ` ",
"` ` _ ` $.$.` ) ) ) ) ) )   r * ` ` _   *   `   *   / / ( ) ) _ ` ` _ ) ) ) ) ) ) ) ) ) ) _ ` ` _ ` ",
"$.$.` _ ` ` _ ) ) ) ) ) )     = $.$.`   *   _   *   ~ ~ / ) ) ` $.$.` ) ) ) ) ) ) ) ) ) ) ` $.$.` _ ",
"$.$.` ) ) ) ) ) ) ) ) )   : * X $.$.O *   ) ) O   / ~ ~ / ) ) ` $.$.` ) ) ) ) ) ) ) ) ) ) ` $.$.` ) ",
"` ` _ ) ) ) ) ) ) ) ) )   7 * X ` ` O O ) ) ) X   ( / / ( ) ) _ ` ` _ ) ) ) ) ) ) ) ) ) ) _ ` ` _ ) ",
") ) ) ) ) ) ) ( ( ( ( )   *   ) ) ) +   ) ) )   ( ( ( ) ) ) ) ) ) ) ) ) ) ( ( ( ( ) ) ) ) ) ) ) ) ) ",
") ) ) ) ) ) ) ( ^ ^ ( )   *   d d f - d d d h d d d ( ) ) ) ) ) ) ) ) ) ) ( ^ ^ ( ) ) ) ) ) ) ) ) ) ",
") ) ) ) ) ) ) ( ^ ^ ( )   *   d h h h h d d h h h h j ) ) ) ) ) ) ) ) ) ) ( ^ ^ ( ) ) ) ) ) ) ) ) ) ",
") ) ) ) ) ) ) ( ( ( ( ) d   f d h h h d d h f h d d d d d ) ) ) ) ) ) ) ) ( ( ( ( ) ) ) ) ) ) ) ) ) ",
") ) ) ) ) ) ) ) ) _ ` ` _ d d f j h d d j h d d d d d j _ ) ) ) ) ) ) ) ) ) ) _ ` ` _ ) ) ) ) ) ) ( ",
") ) ) ) ) ) ) ) ) ` $.$.` ) s s s s s d s s s s s s $.$.` ) ) ) ) ) ) ) ) ) ) ` $.$.` ) ) ) ) ) ) ( "
};
