/* XPM */
static char *a571f2d610784b9489df17076c3f2020cNksRO6TWPh6ZWoS[] = {
/* columns rows colors chars-per-pixel */
"50 50 133 2 ",
"   c #010202",
".  c #090706",
"X  c #060806",
"o  c #080807",
"O  c #02060B",
"+  c #080608",
"@  c #07080A",
"#  c #0B0B0B",
"$  c #100F0F",
"%  c #07110C",
"&  c #0D100F",
"*  c #040C14",
"=  c #0E0F10",
"-  c #110F10",
";  c #0B1611",
":  c #07101A",
">  c #0A121C",
",  c #141414",
"<  c #181717",
"1  c #181817",
"2  c #13161C",
"3  c #181718",
"4  c #14181D",
"5  c #1B1B19",
"6  c #281507",
"7  c #2E1907",
"8  c #27170A",
"9  c #2A1708",
"0  c #27180A",
"q  c #341B07",
"w  c #3C1C03",
"e  c #331B08",
"r  c #13241C",
"t  c #3C230D",
"y  c #152D24",
"u  c #1C2C26",
"i  c #1D2F28",
"p  c #1A3029",
"a  c #212121",
"s  c #2D2C2C",
"d  c #2F2E30",
"f  c #313130",
"g  c #442106",
"h  c #432F06",
"j  c #43270A",
"k  c #463006",
"l  c #4A3503",
"z  c #483209",
"x  c #432912",
"c  c #463116",
"v  c #4A3318",
"b  c #573F16",
"n  c #513F1C",
"m  c #37412E",
"M  c #38422D",
"N  c #3A4633",
"B  c #3A4834",
"V  c #3D4F3B",
"C  c #3D503C",
"Z  c #5D4317",
"A  c #52401A",
"S  c #5E4619",
"D  c #75520A",
"F  c #60471A",
"G  c #9E530F",
"H  c #A3520D",
"J  c #A9560D",
"K  c #AE7E19",
"L  c #B27F18",
"P  c #C85F0B",
"I  c #CC620C",
"U  c #D6650A",
"Y  c #DF670B",
"T  c #D7680D",
"R  c #DC6A0B",
"E  c #E46E0C",
"W  c #EA720C",
"Q  c #E97C10",
"!  c #B2821B",
"~  c #BA851A",
"^  c #E2820F",
"/  c #EC9F0E",
"(  c #E48311",
")  c #ED9F10",
"_  c #EDA00D",
"`  c #F3A40E",
"'  c #F9A70F",
"]  c #F7A80E",
"[  c #FAA90F",
"{  c #ECA210",
"}  c #F4A511",
"|  c #F4A811",
" . c #FDAC12",
".. c #FFB213",
"X. c #7C7D82",
"o. c #42AE80",
"O. c #55B78E",
"+. c #61BA95",
"@. c #6BBE9B",
"#. c #6FC0A0",
"$. c #72C1A2",
"%. c #78C3A6",
"&. c #84898C",
"*. c #9C9FA5",
"=. c #9FA3AC",
"-. c #A6AAAD",
";. c #A7AAB3",
":. c #AAAEB5",
">. c #ADB2B5",
",. c #AFB4B9",
"<. c #B1B5BC",
"1. c #B3B9BE",
"2. c #8CC9B2",
"3. c #B6BDC3",
"4. c #B9BFC6",
"5. c #BBBFC8",
"6. c #BAC3C7",
"7. c #BEC4CB",
"8. c #C1C6CE",
"9. c #C4C9CF",
"0. c #C5CBD2",
"q. c #C8CDD4",
"w. c #CBCFD9",
"e. c #CBD3DB",
"r. c #CCD1DA",
"t. c #CCD1DB",
"y. c #CED4DD",
"u. c #D0D6DF",
"i. c #CFD6E1",
"p. c #D1D6E0",
"a. c #D2D8E1",
"s. c #D6DBE4",
"d. c #FFFEFE",
/* pixels */
"#.#.#.#.#.#.#.$.%.%.$.#.#.#.#.#.#.#.#.#.#.$.%.%.$.#.#.#.#.#.#.#.#.#.#.#.#.$.%.%.$.#.#.@.@.@.@.#.#.#.",
"#.#.#.#.#.#.#.%.2.2.%.#.#.#.#.    #.#.#.#.%.2.2.%.#.#.#.#.#.#.#.#.#.  #.#.%.2.2.%.#.#.@.O.O.@.#.#.#.",
"#.#.#.#.#.#.#.%.2.2.%.#.#.#.#.  # +.@.#.#.%.2.2.%.#.#.#.#.#.#.#.#.    #.#.%.2.2.%.#.#.@.O.O.@.@.+.+.",
"#.#.#.#.#.#.#.$.%.%.$.#.#.#.#.+.    +.#.#.$.%.%.$.#.#.#.#.#.#.#.      #.#.$.%.%.$.#.#.@.@.        o.",
"#.#.          #.#.#.#.#.#.#.#.+.      @.@.@.@.#.#.#.#.#.#.#.#.      #.#.#.#.#.#.#.#.#.#.  ,.,.,.,.  ",
"#.  r.r.r.r.,.    #.#.#.#.#.#.@.+.# #   O.O.@.#.#.#.#.#.#.#.      #.#.#.#.#.#.#.#.      ,.y.0.>.r.  ",
"  y.r.,.r.r.y.r.,.    #.#.#.#.#.#.#.X <   O.@.#.#.#.#.$.%.      #.#.#.#.#.#.#.#.  *.r.r.0.1.3.y.r.  ",
"  r.r.r.,.,.r.y.r.i.,.  #.#.#.#.#.#.#.# # @.@.#.#.#.#.%.2.    #.#.#.#.#.#.#.#.  =.i.r.8.1.4.y.r.r.  ",
"%.  r.r.r.w.,.r.r.r.r.,.  #.#.$.%.%.$.#.,   +.+.@.#.#.%.  -   $.%.%.$.#.#.#.  ,.a.r.0.,.4.u.r.r.r.  ",
"$.  r.y.r.y.r.,.r.y.r.r.,.  #.%.2.2.%.#.  $ o.o.+.#.#.$.#   $.%.2.2.%.#.#.  ,.w.y.y.<.6.p.y.r.r.  2.",
"#.  <.,.,.,.,.,.,.r.r.y.r.,.  %.2.2.%.#.  <             ,   #.%.2.2.%.#.#.  4.p.0.7.,.8.7.8.7.  2.2.",
"#.$.  r.r.r.r.r.r.>.,.r.y.r.,.  %.%.$.  X , X 3 < 1 3 X #     $.%.%.$.#.  q.i.0.<.:.,.>.>.>.>.  %.%.",
"#.#.#.  s.p.u.u.p.r.r.,.r.r.r.,.  #.  O O < a a o < a a # @ @   #.#.#.  r.u.9.>.7.a.p.p.p.y.  #.#.#.",
"#.#.#.#.  ,.,.,.,.,.,.,.,.,.y.0.    ` ` ` o d s < 3 f s o ` ` `   #.  y.u.8.,.1.7.7.7.7.7.    #.#.#.",
"#.#.#.#.#.  s.y.y.y.y.y.y.r.-.X.  & : : > ` S o o 3 2 b ` > : * # # &.7.,.r.y.y.y.y.y.a.;.  #.#.#.#.",
"#.#.#.#.#.  ,.r.r.r.y.r.r.r.r.  X X # # 3 2 ` F o o Z ` > 3 # # o #   ,.y.y.y.r.r.r.p.,.  #.#.#.#.#.",
"@.#.#.#.#.#.  ,.r.y.r.r.r.r.r.  # 3 3 3 # 3 > ` o o ` > 3 + 3 3 3 #   5.y.r.r.r.r.y.:.  #.#.#.#.#.#.",
"@.#.#.#.#.#.#.  ,.r.e.r.r.r.r.  < d.d.d.5 # $ > ` ` > - # 3 d.d.d.    1.q.0.0.q.q.,.  #.#.#.#.#.#.#.",
"@.@.+.+.@.#.#.%.  ,.,.,.,.,.,.  3 d.d.d.d.5 5 3 O O # 3 3 d.d.d.d.    ,.,.,.,.,.,.  #.#.#.#.#.#.#.#.",
"@.+.o.o.+.#.#.$.%.              > d.d.d.d.d.d.3 z l   d.d.d.d.d.d.                y #.#.#.#.#.#.#.#.",
"#.+.o.o.+.@.@.@.@.#.#.#.#.#.#.  E 3 d.d.d.d.d.3 [ [   d.d.d.d.d.d.    @.@.@.@.#.#.#.#.#.#.#.#.#.#.#.",
"#.@.+.+.@.@.O.O.@.#.#.#.#.#.#.  E 5 d.d.d.d.3 D ` ` D 3 d.d.d.d.3 E   @.O.O.@.#.#.#.#.#.#.#.#.#.#.#.",
"$.#.#.#.#.@.O.O.@.#.#.#.#.#.#.  E } 3 3 3 3 .. .[ [ [  .5 3 3 3 ] E   @.O.O.@.#.#.#.#.$.%.%.$.#.#.#.",
"%.#.#.#.#.@.@.@.@.#.#.#.#.#.#.  E E | ' ' ..3 3 5 5 3 3 ..[ ] _ / E   @.@.@.@.#.#.#.#.%.2.2.%.#.#.#.",
"%.$.%.%.$.#.#.@.+.+.@.#.#.#.o = g E ) _ } k   d.d.d.d.  h ] _ _ _ E # o #.@.+.+.@.#.#.%.2.2.%.$.%.%.",
"$.%.2.2.%.#.#.+.o.o.+.#.#.o , <   E E / _   d.3 5 3 3 d.  ` _ _ E E & o o +.o.o.+.#.#.$.%.%.$.%.2.2.",
"#.%.2.2.%.#.#.+.o.o.+.#.o o     2.  E { ]   3 _ _ _ _ 3   ] _ E E w     o o o.o.+.#.#.#.#.#.#.%.2.2.",
"#.$.%.%.$.#.#.@.+.+.@.u # % #.$.o w W Q E _ _ | | ] ] _ _ E E E q # $.#.o # u +.@.#.#.#.#.#.#.$.%.%.",
"#.#.#.#.#.#.#.#.#.@.@.o , % #.o ,   e e W E E E E E E E E W e e   # u #.X # o @.@.@.@.#.#.#.#.#.#.#.",
"#.#.#.#.#.#.#.#.#.@.O.  o X o , < #.    q e W E E E E E 6 7     #.  < i   X   @.O.O.@.#.#.#.#.#.#.#.",
"#.#.#.#.#.#.#.#.#.@.O.r @.  o 1   o # #   # 0 8 0 8 9 9 #   & X o #.< a   #.# @.O.O.@.#.#.#.#.#.#.#.",
"#.#.#.#.#.#.#.#.#.@.@.@.@.o o X #.  ,   Y O O O O O O O O Y O 5   #.  o   #.#.@.@.@.@.#.#.#.#.#.#.#.",
"#.#.#.#.#.#.#.$.%.%.$.#.#.o o X #.X     U I I I I P I I I U   X o #.  o   $.%.%.$.#.#.@.@.@.@.#.#.#.",
"#.#.#.#.#.#.#.%.2.2.%.#.#.o o o #.o   # H J ( ( ( ( ^ ( G H #   o #.#.o o %.2.2.%.#.#.@.O.O.@.#.#.#.",
"#.#.#.#.#.#.#.%.2.2.%.#.#.#.o @.+.o o # O * ~ ! ! K K L * O #   o # #.o #.%.2.2.%.#.#.@.O.O.@.@.+.+.",
"#.#.#.#.#.#.#.$.%.%.$.#.#.#.#.+.  $ o X # o 4 4 4 4 2 2 # # o r o s #.#.#.$.%.%.$.#.#.@.@.@.@.+.o.o.",
"#.#.#.#.#.#.#.#.#.#.#.#.#.#.#.+.    +.  # O 3 5 5 5 5 = O #   #.o o #.#.#.#.#.#.#.#.#.#.#.#.#.+.o.o.",
"#.#.#.#.#.#.#.#.#.#.#.#.#.#.#.@.    @.o . t x v A n c j t X p #.o o #.#.#.#.#.#.#.#.#.#.#.#.#.@.+.+.",
"$.#.#.#.#.#.#.#.#.#.#.#.#.#.#.#.    #.@.  E R T } ` T R Y o $.#.o o #.#.#.#.#.#.#.#.#.$.%.%.$.#.#.#.",
"%.#.#.#.#.#.#.#.#.#.#.#.#.#.#.#.#.#.#.@.@.o   O O O O   o 2.%.#.#.#.#.#.#.#.#.#.#.#.#.%.2.2.%.#.#.#.",
"%.$.%.%.$.#.#.#.#.#.#.#.#.#.#.$.%.%.$.#.#.@.+.  1 ,   %.2.2.%.$.%.%.$.#.#.#.#.#.#.#.#.%.2.2.%.$.%.%.",
"$.%.2.2.%.#.#.#.#.#.#.#.#.#.#.%.2.2.%.#.#.+.o.o.    #.$.%.%.$.%.2.2.%.#.#.#.#.#.#.#.#.$.%.%.$.%.2.2.",
"#.%.2.2.%.#.#.#.#.#.#.#.#.#.#.%.2.2.%.#.#.+.o.o.    #.#.#.#.#.%.2.2.%.#.#.#.#.#.#.#.#.#.#.#.#.%.2.2.",
"#.$.%.%.$.#.#.#.#.#.#.#.#.#.#.$.%.%.$.#.#.@.+.+.% ; #.#.#.#.#.$.%.%.$.#.#.#.#.#.#.#.#.#.#.#.#.$.%.%.",
"#.#.#.#.#.#.#.#.#.@.@.@.@.#.#.#.#.#.#.#.#.#.#.@.@.@.@.#.#.#.#.#.#.#.#.#.#.#.#.@.@.@.@.#.#.#.#.#.#.#.",
"#.#.#.#.#.#.#.#.#.@.O.O.@.#.#.#.#.#.#.#.#.#.#.@.O.O.@.#.#.#.#.#.#.#.#.#.#.#.#.@.O.O.@.#.#.#.#.#.#.#.",
"#.#.#.#.#.#.#.#.#.@.O.O.@.#.#.#.#.#.#.#.N B N B N N N B N m #.#.#.#.#.#.#.#.#.@.O.O.@.#.#.#.#.#.#.#.",
"#.#.#.#.#.#.#.#.#.@.@.@.@.#.#.#.#.#.#.m C C C V V C C V V V M #.#.#.#.#.#.#.#.@.@.@.@.#.#.#.#.#.#.#.",
"@.#.#.#.#.#.#.$.%.%.$.#.#.#.#.#.#.#.#.#.N B N N N N N N N m @.#.#.#.#.#.#.$.%.%.$.#.#.#.#.#.#.#.#.#.",
"@.#.#.#.#.#.#.%.2.2.%.#.#.#.#.#.#.#.#.#.#.%.2.2.%.#.#.@.O.O.@.#.#.#.#.#.#.%.2.2.%.#.#.#.#.#.#.#.#.#."
};
