/* XPM */
static char *_efb3e4b223e470e979b50e34e292464KykVzZ2zJihuok5G[] = {
/* columns rows colors chars-per-pixel */
"50 50 110 2 ",
"   c black",
".  c #060002",
"X  c #010600",
"o  c #000107",
"O  c #0E0002",
"+  c #000309",
"@  c #0A0E08",
"#  c #0D0E09",
"$  c #090F0C",
"%  c #0D0F0D",
"&  c #12120A",
"*  c #0E1310",
"=  c #1C272D",
"-  c #1F2A2B",
";  c #282F36",
":  c #272F39",
">  c #262F3C",
",  c #282F3B",
"<  c #273037",
"1  c #293034",
"2  c #2F3337",
"3  c #2E3C36",
"4  c #263038",
"5  c #283138",
"6  c #2B423F",
"7  c #33523D",
"8  c #5A443D",
"9  c #644237",
"0  c #624338",
"q  c #644238",
"w  c #634439",
"e  c #734E3E",
"r  c #754E3F",
"t  c #333D47",
"y  c #343C47",
"u  c #333D48",
"i  c #343C49",
"p  c #2B4149",
"a  c #2F414D",
"s  c #30414D",
"d  c #224350",
"f  c #204455",
"g  c #424742",
"h  c #434544",
"j  c #454746",
"k  c #444841",
"l  c #464B45",
"z  c #484A45",
"x  c #4A4E47",
"c  c #424648",
"v  c #464648",
"b  c #414848",
"n  c #624844",
"m  c #6E4C40",
"M  c #724F42",
"N  c #744E41",
"B  c #744E44",
"V  c #715143",
"C  c #7A5242",
"Z  c #5A636C",
"A  c #6E7377",
"S  c #6C737A",
"D  c #6B747B",
"F  c #FD5957",
"G  c #FE5958",
"H  c #C66263",
"J  c #C76168",
"K  c #74E67E",
"L  c #778283",
"P  c #778087",
"I  c #7D8083",
"U  c #7A8084",
"Y  c #778288",
"T  c #42AE80",
"R  c #55B78E",
"E  c #61BA95",
"W  c #69BD99",
"Q  c #6DBF9E",
"!  c #6FC0A0",
"~  c #72C1A2",
"^  c #78C3A6",
"/  c #969FA4",
"(  c #96A0A2",
")  c #95A0A4",
"_  c #9AA2A7",
"`  c #A3ABAE",
"'  c #A2ACAE",
"]  c #A2ABB1",
"[  c #A2AAB4",
"{  c #8CC9B2",
"}  c #AECCD5",
"|  c #BFDAE3",
" . c #B9E5EF",
".. c #B3E3F1",
"X. c #B5E3F0",
"o. c #B7E3F0",
"O. c #B7E2F1",
"+. c #E0D2D1",
"@. c #E0D1D6",
"#. c #C9EEF7",
"$. c #CCEDF6",
"%. c #CBF0F9",
"&. c #E5F4F7",
"*. c #E5F4F9",
"=. c #E7F7F8",
"-. c #E4F4FC",
";. c #FFFFFA",
":. c #FFFBFF",
">. c #F9FFFF",
",. c #FEFFFF",
/* pixels */
"! ! ! ! ! ! ! ~ ^ ^ ~ ! ! ! ! ! ! ! ! ! ! ~ ^ ^ ~ ! ! ! ! ! ! ! ! ! ! ! ! ~ ^ ^ ~ ! ! Q W W Q ! ! ! ",
"! ! ! ! ! ! ! ^ { { ^ ! ! ! ! ! ! ! ! ! ! ^ { { ^ ! ! ! ! ! ! ! ! ! ! ! ! ^ { { ^ ! ! W R R W ! ! ! ",
"! ! ! ! ! ! ! ^ { { ^ ! ! ! ! Q E E Q ! ! ^ { { ^ ! ! ! ! ! ! ! ! ! ! ! ! ^ { { ^ ! ! W R R W Q E E ",
"! ! ! ! ! ! ! ~ ^ ^ ~ ! o                                                 ~ ^ ^ ~ ! ! Q W W Q E T T ",
"! ! ! ! ! ! ! ! ! ! !   5 t t t t t t t t t t t t t t t t t t t t t t t t o ! ! ! ! ! ! ! ! ! E T T ",
"! ! ! ! ! ! ! ! ! ! !   5 t t t t t t t t t t t t t t t t t t t t t t t t o ! ! ! ! ! ! ! ! ! Q E E ",
"~ ! ! ! ! ! ! ! ! ! !   < t t t t t t t t t t t t t t t t u K y [ ] / t t o ! ! ! ! ! ~ ^ ^ ~ ! ! ! ",
"^ ! ! ! ! ! ! ! ! ! !   < t t t t t t t t t t t t t t t t u 6 i ` ` / t t o ! ! ! ! ! ^ { { ^ ! ! ! ",
"^ ~ ^ ^ ~ ! ! ! ! ! !   < t t t t t t t t t t t t t t t t u u i _ _ ) t t o ! ! ! ! ! ^ { { ^ ~ ^ ^ ",
"~ ^ { { ^ ! ! ! ! ! !   < t t t t t t t t t t t t t t t t t t t Z Z Z t t o ! ! ! ! ! ~ ^ ^ ~ ^ { { ",
"! ^ { { ^ ! ! ! ! ! !   < t t t t t t t t t t t t t t t t t t t y y t t t o ! ! ! ! ! ! ! ! ! ^ { { ",
"! ~ ^ ^ ~ ! ! ! ! ! !   < t t t t t t t t t t t t t t t d F G t F G J t t o ! ! ! ! ! ! ! ! ! ~ ^ ^ ",
"! ! ! ! ! ! ! ! ! Q W   < t t t t t t t t t t t t t t t f F G t F G H t t o ! Q W W Q ! ! ! ! ! ! ! ",
"! ! ! ! ! ! ! ! ! W R   < 4 t t t t t t t t t t t t t t y p p t s a a t t o ! W R R W ! ! ! ! ! ! ! ",
"! ! ! ! ! ! ! ! ! W R R   , , , , , , , , , , , , , , , , , , , , , , > o ! ! W R R W ! ! ! ! ! ! ! ",
"! ! ! ! ! ! ! ! ! Q W W   1 1 ; ; ; ; ; ; ; ; ; ; ; ; ; < ; ; ; ; ; ; ;   ! ! Q W W Q ! ! ! ! ! ! ! ",
"Q ! ! ! ! ! ! ~ ^ ^ ~ ! ! #                                           $ ! ~ ^ ^ ~ ! ! ! ! ! ! ! ! ! ",
"W ! ! ! ! ! ! ^ { { ^ ! ! # A P P P P P P P P P P P P P P P P P P P D $ ! ^ { { ^ ! ! ! ! ! ! ! ! ! ",
"W Q E E Q ! ! ^ { { ^ ! ! # S P ' ' ' ' ' ' ' ' ' ' ' ' ' ' ' ' ' ' ( $ ! ^ { { ^ ! ! ! ! ! ! ! ! ! ",
"Q E T T E ! ! ~ ^ ^ ~ ! ! ! b o o o o o o o o o o o o o o o o o o o c ! ! ~ ^ ^ ~ ! ! ! ! ! ! ! ! ! ",
"! E T T E Q W W Q ! ! ! ! ! k   Y Y Y Y Y Y Y Y Y Y Y Y Y Y Y Y L o h Q W W Q ! ! ! ! ! ! ! ! ! ! ! ",
"! Q E E Q W R R W ! ! ! ! ! k   Y = = = = = = = = = = = = = = = L o g W R R W ! ! ! ! ! ! ! ! ! ! ! ",
"~ ! ! ! ! W R R W ! ! ! ! ! x   I                               U   h W R R W ! ! ! ! ~ ^ ^ ~ ! ! ! ",
"^ ! ! ! ! Q W W Q ! ! !                                               # W W Q ! ! ! ! ^ { { ^ ! ! ! ",
"^ ~ ^ ^ ~ ! ! Q E E Q ! ! %                                               Q E E Q ! ! ^ { { ^ ~ ^ ^ ",
"~ ^ { { ^ ! ! E T T E ! ! ! z     ..%.#.#.#.#.#.#.#.#.#.#.#.#.=.    v !     T T E ! ! ~ ^ ^ ~ ^ { { ",
"! ^ { { ^ ! ! E T T E ! ! ! l . O.#.#.#.#.#.#.#.#.#.#.#.#.#.#.$.&.o j !       T E ! ! ! ! ! ! ^ { { ",
"! ~ ^ ^ ~ ! ! Q E E Q ! ! ! l O O.#.#.#.>.>.>.#.>.#.#.#.#.#.#.$.-.o j ! !     E Q ! ! ! ! ! ! ~ ^ ^ ",
"! ! ! ! ! ! ! ! ! Q W W Q ~ 3 o  .#.#.#.,.,.>.#.,.#.#.#.#.#.#.#.=.+ - ~ !     Q W W Q ! ! ! ! ! ! ! ",
"! ! ! ! ! ! ! ! ! W R R W # } O.#.#.#.#.#.#.#.$.,.#.#.#.#.#.$.#.#.#.| % !     W R R W ! ! ! ! ! ! ! ",
"! ! ! ! ! ! ! ! ! W R R W # } O.$.#.#.#.,.,.,.$.,.#.#.#.$.$.$.$.#.#.| % !     W R R W ! ! ! ! ! ! ! ",
"! ! ! ! ! ! ! ! ! Q W W Q # } O.#.#.#.#.$.$.$.$.,.#.$.$.$.$.$.$.#.#.|       ! Q W W Q ! ! ! ! ! ! ! ",
"! ! ! ! ! ! ! ~ ^ ^ ~ ! ! # n B B B B B ;.,.,.M ,.N N N N N N N N N V     ~ ^ ^ ~ ! ! Q W W Q ! ! ! ",
"! ! ! ! ! ! ! ^ { { ^ ! * w m N N N N N r C C N ,.M B N N N N N N N N N   ^ { { ^ ! ! W R R W ! ! ! ",
"! ! ! ! ! ! ! ^ { { ^ !   0 m N N N N N @.+.+.N ,.M B N N N N N N N N N   ^ { { ^ ! ! W R R W Q E E ",
"! ! ! ! ! ! ! ~ ^ ^ ~ !   0 m N N N N N ,.,.:.N ,.M N N N N N N N N N N   ~ ^ ^ ~ ! ! Q W W Q E T T ",
"! ! ! ! ! ! ! ! ! ! ! !   0 M M N N N N r N N N ,.e N N N N N N N N N N   ! ! ! ! ! ! ! ! ! ! E T T ",
"! ! ! ! ! ! ! ! ! ! ! !   0 0 0 N N N N ,.,.,.N ,.e N N N N N N N N N N   ! ! ! ! ! ! ! ! ! ! Q E E ",
"~ ! ! ! ! ! ! ! ! ! ! ! ! & 8 q 0 0 0 q q 9 q 9 q q q q q q q q q q 8 @ ! ! ! ! ! ! ! ~ ^ ^ ~ ! ! ! ",
"^ ! ! ! ! ! ! ! ! ! !                                                       ! ! ! ! ! ^ { { ^ ! ! ! ",
"^ ~ ^ ^ ~ ! ! ! ! ! X 2 i i i i i i i i i i i i i i i i i i i i i i i i i i X ! ! ! ! ^ { { ^ ~ ^ ^ ",
"~ ^ { { ^ ! ! ! ! !   , t t t t t t t t t t t t t t t t t t t t t t t t t u   ! ! ! ! ~ ^ ^ ~ ^ { { ",
"! ^ { { ^ ! ! ! ! 7   , t t t t t t t t t t t t t t t t t t t t t t t t t u   ! ! ! ! ! ! ! ! ^ { { ",
"! ~ ^ ^ ~ ! ! ! ! 7   , : : : : : : : : : : : : : : : : : : : : : : : : : ,   ! ! ! ! ! ! ! ! ~ ^ ^ ",
"! ! ! ! ! ! ! ! ! 7 7                                                       7 Q W W Q ! ! ! ! ! ! ! ",
"! ! ! ! ! ! ! T T T 7 7 7 7 7 7 7 7 7 7 7 7 7 7 7 7 7 7 7 7 7 7 7 7 7 7 7 7 7 W R R W ! ! ! ! ! ! ! ",
"! ! ! ! ! ! ! ! ! W R R 7 7 7 7 7 7 7 7 7 7 7 7 7 7 7 7 7 7 7 7 7 7 7 7 7 ! ! W R R W ! ! ! ! ! ! ! ",
"! ! ! ! ! ! ! ! ! Q W W Q ! ! 7 7 7 7 7 7 7 7 7 7 7 7 7 7 7 7 7 7 7 ! ! ! ! ! Q W W Q ! ! ! ! ! ! ! ",
"Q ! ! ! ! ! ! ~ ^ ^ ~ ! ! ! ! ! ! ! ! ! ! ~ ^ ^ ~ ! ! Q W W Q ! ! ! ! ! ! ~ ^ ^ ~ ! ! ! ! ! ! ! ! ! ",
"W ! ! ! ! ! ! ^ { { ^ ! ! ! ! ! ! ! ! ! ! ^ { { ^ ! ! W R R W ! ! ! ! ! ! ^ { { ^ ! ! ! ! ! ! ! ! ! "
};
