/* XPM */
static char *_06f25fcab084429daa96097a0343321vFRNtzhjUPAZTYrk[] = {
/* columns rows colors chars-per-pixel */
"50 50 152 2 ",
"   c #000F0D",
".  c #0F0B0C",
"X  c #02130D",
"o  c #161100",
"O  c #14130F",
"+  c #0B1412",
"@  c #0F1C17",
"#  c #021418",
"$  c #0B141A",
"%  c #0F1B19",
"&  c #151611",
"*  c #1E1C17",
"=  c #131C1D",
"-  c #1D1E19",
";  c #25130C",
":  c #2A170D",
">  c #331C00",
",  c #221B16",
"<  c #281B12",
"1  c #21171D",
"2  c #231E1A",
"3  c #112217",
"4  c #15221E",
"5  c #1A211E",
"6  c #22211E",
"7  c #33271D",
"8  c #3B221B",
"9  c #312E1D",
"0  c #3B2A1D",
"q  c #0A1122",
"w  c #061827",
"e  c #0D1F26",
"r  c #08142D",
"t  c #151E23",
"y  c #1A1E27",
"u  c #121F37",
"i  c #211F20",
"p  c #152122",
"a  c #182222",
"s  c #1C2729",
"d  c #102337",
"f  c #232220",
"g  c #2F2724",
"h  c #392723",
"j  c #352C26",
"k  c #3C2B22",
"l  c #352D29",
"z  c #3B322B",
"x  c #383B32",
"c  c #471D0E",
"v  c #41271A",
"b  c #4C2F1D",
"n  c #432C26",
"m  c #45332B",
"M  c #4B3A33",
"N  c #6F4436",
"B  c #6C453D",
"V  c #65483D",
"C  c #714534",
"Z  c #72443D",
"A  c #3B6942",
"S  c #564C43",
"D  c #5C4841",
"F  c #654644",
"G  c #6D4542",
"H  c #634B43",
"J  c #6A4A46",
"K  c #634B4A",
"L  c #6F4E4C",
"P  c #734440",
"I  c #734A4A",
"U  c #6D5049",
"Y  c #755250",
"T  c #884F3D",
"R  c #846658",
"E  c #AA7346",
"W  c #AF794F",
"Q  c #B47847",
"!  c #BB7A4A",
"~  c #AC7D65",
"^  c #AB7E7B",
"/  c #BD804C",
"(  c #DFA35E",
")  c #D9A565",
"_  c #DCAC67",
"`  c #DBA872",
"'  c #E0AA67",
"]  c #E6A56E",
"[  c #E5AC71",
"{  c #42AE80",
"}  c #55B78E",
"|  c #61BA95",
" . c #6BBE9B",
".. c #6FC0A0",
"X. c #72C1A2",
"o. c #78C3A6",
"O. c #8CC9B2",
"+. c #F6DE97",
"@. c #F7D79F",
"#. c #F9D69E",
"$. c #F6D89E",
"%. c #F6D6A3",
"&. c #F9D6A2",
"*. c #F5D9A2",
"=. c #F9D8A2",
"-. c #F3D5A8",
";. c #FAD5A8",
":. c #F1D9AB",
">. c #FBD8A9",
",. c #929AC2",
"<. c #8D9FD2",
"1. c #889CDB",
"2. c #919DDC",
"3. c #8FA5CF",
"4. c #869FE5",
"5. c #899DE3",
"6. c #879DEA",
"7. c #909AE2",
"8. c #89A1E3",
"9. c #97A2E1",
"0. c #A4B2FB",
"q. c #B6BEFE",
"w. c #BCBFF9",
"e. c #BBC7DD",
"r. c #BDC9DF",
"t. c #BEC8E3",
"y. c #BCC5EF",
"u. c #BDC5F4",
"i. c #BCC4FE",
"p. c #C5CEDF",
"a. c #C6CBEC",
"s. c #C2C8FB",
"d. c #CFD2FC",
"f. c #D2D5F7",
"g. c #D4D9FF",
"h. c #DBDEFF",
"j. c #DDE7FF",
"k. c #DEEAFE",
"l. c #E6EFF4",
"z. c #E2E6FD",
"x. c #E6ECFF",
"c. c #E9EBFF",
"v. c #EEEDFF",
"b. c #F0ECFF",
"n. c #E6F1F7",
"m. c #E6F0FA",
"M. c #EBF2FF",
"N. c #F3F3FD",
"B. c #F6F8FF",
"V. c #F9F8FF",
"C. c #FBFFFF",
"Z. c #FFFFFD",
/* pixels */
"..............X.o.o.X.....................X.o.o.X.........................X.o.o.X..... . . . .......",
"..............o.O.O.o.....................o.O.O.o.........................o.O.O.o..... .} }  .......",
"..............o.O.O.o......... .| |  .....o.O.O.o.........................o.O.O.o..... .} }  . .| | ",
"..............X.o.o.X.........| { { | ....X.o.o.X.........................X.o.o.X..... . . . .| { { ",
"..............................| { { |  . . . .................................................| { { ",
".............................. .| |  . .} }  .@.*.:........................................... .| | ",
"X..................................... .} }  ...@.-.%.%.o.o.X.........................X.o.o.X.......",
"o..................................... . . . .....@.%.@.-.O.o.........................o.O.O.o.......",
"o.X.o.o.X.....................X.o.o.X..... .| |  ...@.&.@.@.o.X.o.o.X.................o.O.O.o.X.o.o.",
"X.o.O.O.o.....................o.O.O.o.....| { { | ....=.=.@.X.o.O.O.o.................X.o.o.X.o.O.O.",
"..o.O.O.o.....................o.O.O.o.....| { { | ....&.=.@...o.O.O.o.........................o.O.O.",
"..X.o.o.X.....................X.o.o.X..... .| | @.=.@.&.&.$...X.o.o.X.........................X.o.o.",
".................. . . . ..................... .@.&.&.=.#.....@............... . . . ...............",
".................. .} }  .................= 4 o @.@.=.%.&.5 a @............... .} }  ...............",
".................. .} }  ...........= = 4 Z.*.&.&.@.&.+.C.Z.:.@.x 4 4 % ...... .} }  ...............",
".................. . . . .........a Z.Z.Z.Z.*.&.=.=.=.< 2 :.@.Z.Z.Z.Z.Z.a .... . . . ...............",
" .............X.o.o.X...........a Z.Z.f 6 F &.&.&.;.N I >.=.C P h 1 i Z.Z.+ o.o.X...................",
" .............o.O.O.o.........a Z.Z.2 H G 8 k > @.%.Z Z ;.>.C Z G V D . Z.Z.a O.o...................",
" . .| |  .....o.O.O.o.......+ Z.Z.* G 7 j j J U l =.&.j k *.;.Z m B G K * Z.Z.a o...................",
" .| { { | ....X.o.o.X.......X Z.Z.: L j j j K l l @.@.@.0 l >.H m G B L ; Z.Z.a X...................",
"..| { { |  . . . ...........  Z., P j j j j l l l l l l l l l l l n b R M 6 Z.a ....................",
".. .| |  . .} }  ...........  Z., Y j j j j j j j j j j j j j j j 9 c ~ 0 6 Z.a ....................",
"X......... .} }  ...........X Z.& j l j j j j j j j j l l l v 0 E [ ( ^ K * Z.a ......X.o.o.X.......",
"o......... . . . ...........$ b.Z.- l j j j j z j j j j j l W ] ' _ ` S * Z.x.p ......o.O.O.o.......",
"o.X.o.o.X..... .| |  .....a q 6.x.Z.2 l l j l k B P Q ! ! / [ ) T J J O Z.x.i.a  .....o.O.O.o.X.o.o.",
"X.o.O.O.o.....| { { | ..$ $ $ $ 7.c.Z.2 2 g j l l l h j j j h B 7 2 * Z.Z.i.i.t | ....X.o.o.X.o.O.O.",
"..o.O.O.o.....| { { a $ j.z.M.y.$ 5.c.Z.Z.Z.2 , , , , , , , , Z.Z.Z.Z.Z.v.i.i.a | ............o.O.O.",
"..X.o.o.X..... .| t u.u.x.c.c.x.6.6.s.i.v.C.Z.Z.Z.Z.Z.Z.Z.Z.Z.Z.N.v.v.c.c.i.i.4  .............X.o.o.",
"................a ,.j.z.f.d.# # 6.6.i.i.x.M.V.V.V.V.V.V.V.V.V.B.M.c.c.x.x.i.i.4  . . ...............",
"..............t u.x.x.z.# # # 9.# 4.i.i.c.c.c.c.c.c.c.c.c.c.c.c.c.c.c.x.x.i.i.a } }  ...............",
"..............p a.x.c.M.# ..# 1.4.2.i.i.c.x.c.x.x.x.x.x.x.x.x.x.c.c.c.x.x.i.i.a } }  ...............",
"..............a c.z.c.a  ...w 8.5.i.i.i.c.x.c.c.c.c.c.c.c.c.c.c.c.c.c.x.x.i.i.4  . . ...............",
"..............a c.c.c.4 ....r 8.6.i.i.i.c.x.c.c.c.c.c.c.c.c.c.c.c.c.c.x.x.i.i.a X..... . . . .......",
"..............a c.x.c.a ....t 3.5.i.i.i.c.x.c.c.c.c.c.c.c.c.c.c.c.c.c.x.x.w.y.t o..... .} }  .......",
"..............p x.x.c.y ......p 5.i.i.i.c.c.c.c.c.c.c.c.c.c.c.c.c.c.c.x.x.i.p O.o..... .} }  . .| | ",
"..............4 i.z.x.a ......3 1.i.i.i.c.c.c.c.c.c.c.c.c.c.c.c.c.c.c.x.x.u.p o.X..... . . . .| { { ",
"................= q.i.i.u a s e 4 i.i.i.c.x.c.c.c.c.c.c.c.c.c.c.c.c.c.x.x.i.p A ..............| { { ",
"..................a 2.2.i.i.i.6.6.6.i.i.x.x.c.c.c.c.c.c.c.c.c.c.c.c.c.x.x.i.3 A .............. .| | ",
"X...................t d 5.5.4.6.6.4.i.i.w.h.c.c.c.c.c.c.c.c.c.c.c.c.c.x.s.4 A A ......X.o.o.X.......",
"o.......................= @ @ % = = 4.i.i.j.c.c.c.c.c.c.c.c.c.c.c.c.x.e.3 A A A ......o.O.O.o.......",
"o.X.o.o.X...................A A A = 4.0.i.k.c.c.c.c.c.c.c.c.c.c.h.g.h.r.= A A ........o.O.O.o.X.o.o.",
"X.o.O.O.o...................A A A A = <.u.z.x.c.c.c.c.c.c.c.c.z.u.i.r.+ A A A ........X.o.o.X.o.O.O.",
"..o.O.O.o.....................A A A A = a p.M.l.m.m.m.n.n.n.l.t.= = = A A A ..................o.O.O.",
"..X.o.o.X.....................X.A A A A A 5 5 a a 4 a a a p p p A A A A A ....................X.o.o.",
".................. . . . ...........A A A A A A A A A A A A A A A A A A ...... . . . ...............",
".................. .} }  ...............A A A A A A A A A A A A A A .......... .} }  ...............",
".................. .} }  ..................... .} }  ......................... .} }  ...............",
".................. . . . ..................... . . . ......................... . . . ...............",
" .............X.o.o.X.....................X.o.o.X..... . . . .............X.o.o.X...................",
" .............o.O.O.o.....................o.O.O.o..... .} }  .............o.O.O.o..................."
};
