/* XPM */
static char *_ec9be9178c7469ac1e90e50c5e0ec41uWtTPkMl3cziKqtL[] = {
/* columns rows colors chars-per-pixel */
"50 50 150 2 ",
"   c #000000",
".  c #0B0502",
"X  c #060806",
"o  c #0D0905",
"O  c #050708",
"+  c #070909",
"@  c #0B0D0C",
"#  c #120B07",
"$  c #180C05",
"%  c #130E0B",
"&  c #0E110E",
"*  c #14110D",
"=  c #1A130D",
"-  c #0E0E10",
";  c #0E1112",
":  c #111413",
">  c #1B1612",
",  c #10151A",
"<  c #171B1F",
"1  c #1A1C1E",
"2  c #270C05",
"3  c #2B0F06",
"4  c #200F09",
"5  c #2B1107",
"6  c #23150E",
"7  c #2C130B",
"8  c #31160D",
"9  c #3C1A0D",
"0  c #241512",
"q  c #231A15",
"w  c #2C1A13",
"e  c #221E1B",
"r  c #2D1F18",
"t  c #341C14",
"y  c #391D15",
"u  c #311D19",
"i  c #2F221A",
"p  c #3C2117",
"a  c #35231C",
"s  c #3C241B",
"d  c #171D20",
"f  c #191E20",
"g  c #1C2225",
"h  c #1F2429",
"j  c #21262A",
"k  c #242A2D",
"l  c #3A2521",
"z  c #3B2923",
"x  c #232D33",
"c  c #292B30",
"v  c #2A3032",
"b  c #30363C",
"n  c #432215",
"m  c #41261D",
"M  c #422A1E",
"N  c #4B2D1E",
"B  c #442C23",
"V  c #4F2E24",
"C  c #512F20",
"Z  c #4B3025",
"A  c #4A3129",
"S  c #513326",
"D  c #53362B",
"F  c #573929",
"G  c #5B3C2E",
"H  c #5C3E31",
"J  c #5F4031",
"K  c #624335",
"L  c #644338",
"P  c #684A3C",
"I  c #333C42",
"U  c #383F47",
"Y  c #3B424A",
"T  c #4A535C",
"R  c #BE1E04",
"E  c #B7210A",
"W  c #BC2D1C",
"Q  c #C22005",
"!  c #C52309",
"~  c #C9250D",
"^  c #CD290F",
"/  c #CB350E",
"(  c #CC2611",
")  c #C52C15",
"_  c #CE2C12",
"`  c #D22E15",
"'  c #CF3117",
"]  c #C7321E",
"[  c #CC351C",
"{  c #D23215",
"}  c #D83517",
"|  c #D5341A",
" . c #D9361C",
".. c #D43D1A",
"X. c #DC3C1E",
"o. c #C03122",
"O. c #CE3822",
"+. c #D53D26",
"@. c #DE3B21",
"#. c #E13E23",
"$. c #D84D0C",
"%. c #D55E05",
"&. c #DC510E",
"*. c #DB4A13",
"=. c #DE5513",
"-. c #DF5911",
";. c #DB5018",
":. c #E24C1B",
">. c #E15715",
",. c #E55A14",
"<. c #E4571B",
"1. c #E65D1A",
"2. c #EA5C1D",
"3. c #D9600E",
"4. c #E36B17",
"5. c #E6611B",
"6. c #EB621B",
"7. c #EC7E1F",
"8. c #D94026",
"9. c #DE5420",
"0. c #E64925",
"q. c #E7432A",
"w. c #EC5D20",
"e. c #EE6322",
"r. c #F06522",
"t. c #F56925",
"y. c #ED7621",
"u. c #E48614",
"i. c #E78717",
"p. c #EA8E1B",
"a. c #EC911C",
"s. c #EBAC15",
"d. c #F0B117",
"f. c #F5B61B",
"g. c #F29521",
"h. c #F59C26",
"j. c #F79B29",
"k. c #F89A2A",
"l. c #F8A12A",
"z. c #FBBC27",
"x. c #A4896C",
"c. c #42AE80",
"v. c #55B78E",
"b. c #61BA95",
"n. c #69BD99",
"m. c #6DBF9E",
"M. c #6FC0A0",
"N. c #72C1A2",
"B. c #78C3A6",
"V. c #8CC9B2",
/* pixels */
"M.M.M.M.M.M.M.N.B.B.N.M.M.M.M.M.M.M.M.M.M.N.B.B.N.M.M.M.M.M.M.M.M.M.M.M.M.N.B.B.N.M.M.m.n.n.m.M.M.M.",
"M.M.M.M.M.M.M.B.V.V.B.M.M.M.M.M.M.M.M.M.+ X @   @ @ + X + @ M.M.M.M.M.M.M.B.V.V.B.M.M.n.v.v.n.M.M.M.",
"M.M.M.M.M.M.M.B.V.V.B.M.M.M.M.m.b.b.@ X I I I I I I I I I I   : M.M.M.M.M.B.V.V.B.M.M.n.v.v.n.m.b.b.",
"M.M.M.M.M.M.M.N.B.B.N.M.M.M.M.b.c.I I Y X ; : ; @ @     @ X I I I M.M.M.M.N.B.B.N.M.M.m.n.n.m.b.c.c.",
"M.M.M.M.M.M.M.M.M.M.M.M.M.M.M.b.  I @ m.n.n.m.M.M.M.M.M.M.M.M.@ I , M.M.M.M.M.M.M.M.M.M.M.M.M.b.c.c.",
"M.M.M.M.M.M.M.M.M.M.M.M.M.M.M.: x ; m.n.v.v.n.M.M.M.M.M.M.M.M.M.X I @ M.M.M.M.M.M.M.M.M.M.M.M.m.b.b.",
"N.M.M.M.M.M.M.M.M.M.M.M.M.M.@ I + M.M.n.v.v.n.M.x.x.M.N.B.B.N.M.M.; I ; M.M.M.M.M.M.M.N.B.B.N.M.M.M.",
"B.M.M.M.M.M.M.M.M.M.M.M.M.; I & M.M.M.m.n.n.m.x.M.M.M.B.V.V.B.M.M.M.; I , M.M.M.M.M.M.B.V.V.B.M.M.M.",
"B.N.B.B.N.M.M.M.M.M.M.M.+ , I , B.B.N.x.M.m.b.x.m.M.M.B.V.x.B.N.B.B.N.I + + M.M.M.M.M.B.V.V.B.N.B.B.",
"N.B.V.V.B.M.M.M.M.M.M.M.  I , B.V.V.B.x.M.b.c.c.x.M.M.N.x.B.N.B.V.V.B.M.I I , M.M.M.M.N.B.B.N.B.V.V.",
"M.B.V.V.B.M.M.M.M.M.M.  I I M.B.V.V.B.x.M.b.c.c.b.x.M.M.x.M.M.B.V.V.B.M.M.I & M.M.M.M.M.M.M.M.B.V.V.",
"M.N.B.B.N.M.M.M.M.M.M.  I M.M.N.B.B.N.M.x.m.b.b.m.M.x.M.x.M.M.N.B.B.N.M.M.I , M.M.M.M.M.M.M.M.N.B.B.",
"M.M.M.M.M.M.M.M.M.m.n.  I M.M.M.M.M.M.M.x.M.M.m.n.n.x.M.M.x.M.M.M.M.M.M.M.I X m.n.n.m.M.M.M.M.M.M.M.",
"M.M.M.M.M.M.M.M.M.n.v.  I M.M.M.M.      x.+ X + @ @ x.@ + x.X   , M.M.M.M.I @ n.v.v.n.M.M.M.M.M.M.M.",
"M.M.M.M.M.M.M.M.M.n.v.  I M.M.    I I I I I I I x.x.I I I I I I I ;   M.M.I X n.v.v.n.M.M.M.M.M.M.M.",
"M.M.M.M.M.M.M.M.M.m.n.  I I   I I I I                         I I I I   h I X m.n.n.m.M.M.M.M.M.M.M.",
"m.M.M.M.M.M.M.N.B.B.N.  I k   I I     6 0 w 4 6 6 r 0 w r = $     I I + v j @ B.N.M.M.M.M.M.M.M.M.M.",
"n.M.M.M.M.M.M.B.V.      , 1   I   q q y n n n n V N S C S F w = %   I : 1 f @   @ M.M.M.M.M.M.M.M.M.",
"n.m.b.b.m.M.M.B.  I I   < ; b   t y B p p 5 5 8 p 2 y y 3 m 9 p 7 y   I I , + I I : M.M.M.M.M.M.M.M.",
"m.b.c.c.b.M.M.N.  I       @ b U       8 3 t y y y m t y B m 8       I I I   - - I @ M.M.M.M.M.M.M.M.",
"M.b.c.c.b.m.n.n.  I   M.      c I I I                         I I I I X + @ m.+ I : M.M.M.M.M.M.M.M.",
"M.m.b.b.m.n.v.v.n., c     * g < < I I I I I I I I I I I I I I I < < < h h   1 f : M.M.M.M.M.M.M.M.M.",
"N.M.M.M.M.n.v.v.n.M.:   ; ; h g < < < < < < < < < < < < < < < < < h h h h + + j : M.M.N.B.B.N.M.M.M.",
"B.M.M.M.M.m.n.n.m.M.    h h h h I I I I I I I I I I I I I I I I I I I h h h + : M.M.M.B.V.V.B.M.M.M.",
"B.N.B.B.N.M.M.m.b.b.m.  h h h I I I I I I I I I I I I I I I I I I I I I h h : b.m.M.M.B.V.V.B.N.B.B.",
"N.B.V.V.B.M.M.b.c.c.  j h h h I I I I I I I I I I I I I I I T T I I I I I h k : b.M.M.N.B.B.N.B.V.V.",
"M.B.V.V.B.M.M.b.c.c.  h h h h I I I I I I I I I I I I I I T T T T I I I I h h & b.M.M.M.M.M.M.B.V.V.",
"M.N.B.B.N.M.M.m.b.b.  h h h h I I I I I I I I I I I I I I T T T T I I I I h h + m.M.M.M.M.M.M.N.B.B.",
"M.M.M.M.M.M.M.M.M.m.  h h h h I I I I I I I I I I I I I I I T T I I I I I h h O n.n.m.M.M.M.M.M.M.M.",
"M.M.M.M.M.M.M.M.M.n.  j h h h I I I I I I I I I I I I I I I I I I I I I h h h : v.v.n.M.M.M.M.M.M.M.",
"M.M.M.M.M.M.M.M.M.n.  g h h h h I I I I I I I I o.O.I I I I I I I I I h h h k : v.v.n.M.M.M.M.M.M.M.",
"M.M.M.M.M.M.M.M.M.m.  h h h g h I I I ` I I I I ) ~ } I I I I I I I I h h h f @ n.n.m.M.M.M.M.M.M.M.",
"M.M.M.M.M.M.M.N.B.B.N.  h h g h h I I I I I I I I I _ X.I I I I I | h h h h : B.N.M.M.m.n.n.m.M.M.M.",
"M.M.M.M.M.M.M.B.V.V.B.  h h h E h I I I ] I I I W [ w.#.I I I W ) Q h h d h   V.B.M.M.n.v.v.n.M.M.M.",
"M.M.M.M.M.M.M.B.V.V.B.  h h h  .h h h I ! I I I ..{ &._ I I I +.R ~ h h h h X V.B.M.M.n.v.v.n.m.b.b.",
"M.M.M.M.M.M.M.N.B.B.N.M.    h X. .h h h Q | h h [ X.t.~ ^ h { { { h h h     B.B.N.M.M.m.n.n.m.b.c.c.",
"M.M.M.M.M.M.M.M.M.M.M.M.M.M.  ^ &.j h ! 6.{ h | _ X.,.2.#.h ' e.5.h h ! M.M.M.M.M.M.M.M.M.M.M.b.c.c.",
"M.M.M.M.M.M.M.M.M.M.M.M.M.M.| @.e.@. .| r.q.h  .2.>.g.$._ Q ` *.t.} X.@.M.M.M.M.M.M.M.M.M.M.M.m.b.b.",
"N.M.M.M.M.M.M.M.M.M.M.        ! a.1.>.~ g.6.` _ <.t.g.,.=.@.=.k.j.-.@.      M.M.M.M.M.N.B.B.N.M.M.M.",
"B.M.M.M.M.M.M.M.M.M.  w q 6 6 { ;.3.y.0.a.7.*.:.4.%.u.4.>...y.g.p./ @.0 q a M.M.M.M.M.B.V.V.B.M.M.M.",
"B.N.B.B.N.M.M.M.M.M.> K t a B { _ j.g.1.u.g.r.5.u.g.u.j.$.=.j.u.p.{ q.l a B o > M.M.M.B.V.V.B.N.B.B.",
"N.B.V.V.B.M.M.M.M.M.% s G K 0 o # 8.0.a.p.f.p.a.j.g.d.l.g.h.h.9.! o o a H N a n o M.M.N.B.B.N.B.V.V.",
"M.B.V.V.B.M.M.M.M.M.o G % % * s N p B w ^ e.f.z.s.z.s.g.:.y t B B N > > l a S s % M.M.M.M.M.M.B.V.V.",
"M.N.B.B.N.M.M.M.M.M.M.  S G G M t y B r       t ] _ | ( * . z D L s P L = o i P o M.M.M.M.M.M.N.B.B.",
"M.M.M.M.M.M.M.M.M.m.n.  S G p L a       M.> B G B s   M.M.M.* u t V a H . o e > n.n.m.M.M.M.M.M.M.M.",
"M.M.M.M.M.M.M.M.M.n.v.  s B Z A   M.M.M.M.o F A S B   M.M.M.M.M.= B S s % o M.n.v.v.n.M.M.M.M.M.M.M.",
"M.M.M.M.M.M.M.M.M.n.v.  z m J a   M.M.M.M.% H y H H   M.M.M.M.M.* s D s o . M.n.v.v.n.M.M.M.M.M.M.M.",
"M.M.M.M.M.M.M.M.M.m.n.n.        M.M.M.M.M.* M G G D   M.M.M.M.M.M.* . # M.M.M.m.n.n.m.M.M.M.M.M.M.M.",
"m.M.M.M.M.M.M.N.B.B.N.M.M.M.M.M.M.M.M.M.M.N.% % *   M.m.n.n.m.M.M.M.M.M.M.N.B.B.N.M.M.M.M.M.M.M.M.M.",
"n.M.M.M.M.M.M.B.V.V.B.M.M.M.M.M.M.M.M.M.M.B.V.V.B.M.M.n.v.v.n.M.M.M.M.M.M.B.V.V.B.M.M.M.M.M.M.M.M.M."
};
