/* XPM */
static char *_05e7988f8b44a1ec35572e9b9464cbe9uojSE8skNnJzh9v[] = {
/* columns rows colors chars-per-pixel */
"50 50 151 2 ",
"   c black",
".  c #1F1211",
"X  c #250C0D",
"o  c #26140E",
"O  c #2D120E",
"+  c #31120D",
"@  c #251514",
"#  c #2C1512",
"$  c #271A17",
"%  c #2C1813",
"&  c #251A19",
"*  c #2B1E1B",
"=  c #321611",
"-  c #341A14",
";  c #3B1D14",
":  c #341D18",
">  c #2D211E",
",  c #3E2115",
"<  c #31221D",
"1  c #3F2319",
"2  c #2B1F20",
"3  c #2E2321",
"4  c #332523",
"5  c #362924",
"6  c #3A2D26",
"7  c #3C2F29",
"8  c #3F312A",
"9  c #451A0E",
"0  c #481B0E",
"q  c #421E14",
"w  c #4A1D12",
"e  c #442216",
"r  c #4B2316",
"t  c #452318",
"y  c #4C2519",
"u  c #4D281A",
"i  c #542617",
"p  c #5F2C13",
"a  c #522619",
"s  c #5A2618",
"d  c #532A1B",
"f  c #5C2D1C",
"g  c #5E321E",
"h  c #602617",
"j  c #612C17",
"k  c #632619",
"l  c #642C1B",
"z  c #6B2D1B",
"x  c #722E1C",
"c  c #63311D",
"v  c #6C331D",
"b  c #6A381F",
"n  c #72351E",
"m  c #753A1F",
"M  c #7C3B1F",
"N  c #542C20",
"B  c #5D2F20",
"V  c #41322C",
"C  c #4B3A2E",
"Z  c #5D3022",
"A  c #5E3829",
"S  c #453631",
"D  c #4B3B33",
"F  c #6D2E20",
"G  c #643421",
"H  c #6B3521",
"J  c #6D3A23",
"K  c #733421",
"L  c #743A23",
"P  c #7B3D23",
"I  c #4F4137",
"U  c #524337",
"Y  c #594637",
"T  c #52433A",
"R  c #58463A",
"E  c #5B493B",
"W  c #7D4124",
"Q  c #67513C",
"!  c #406639",
"~  c #5F4E43",
"^  c #634F41",
"/  c #655343",
"(  c #695143",
")  c #745E49",
"_  c #75624A",
"`  c #7B634E",
"'  c #7A6452",
"]  c #843D1F",
"[  c #813F23",
"{  c #8F421F",
"}  c #834225",
"|  c #8B4524",
" . c #8C4925",
".. c #834229",
"X. c #8C4629",
"o. c #8D492A",
"O. c #914625",
"+. c #934A25",
"@. c #9A4B24",
"#. c #944D29",
"$. c #994C2A",
"%. c #9B5126",
"&. c #975129",
"*. c #9C522C",
"=. c #A04E2A",
"-. c #A45426",
";. c #AA5627",
":. c #A2542C",
">. c #A95528",
",. c #A65B2D",
"<. c #AC5B2C",
"1. c #B35D2D",
"2. c #AB5D30",
"3. c #B6652D",
"4. c #B36232",
"5. c #BD6A33",
"6. c #C26634",
"7. c #C46833",
"8. c #CE6F33",
"9. c #C77236",
"0. c #CC7335",
"q. c #C87638",
"w. c #CE7B3E",
"e. c #D17B3C",
"r. c #836A4D",
"t. c #876E59",
"y. c #8A735A",
"u. c #907356",
"i. c #927C5C",
"p. c #967D63",
"a. c #E5863B",
"s. c #E98841",
"d. c #D39C61",
"f. c #E8B36D",
"g. c #42AE80",
"h. c #55B78E",
"j. c #61BA95",
"k. c #6ABD9A",
"l. c #6DBF9E",
"z. c #6FC0A0",
"x. c #72C1A2",
"c. c #78C3A6",
"v. c #8CC9B2",
"b. c #EFC282",
"n. c #F2C484",
"m. c #F2C685",
"M. c #F2C687",
"N. c #F4C987",
"B. c #F4C788",
"V. c #F4C989",
"C. c #F9CB8F",
/* pixels */
"z.z.z.z.z.z.z.x.c.c.x.z.z.z.z.z.z.z.z.z.z.x.c.m.m.z.z.z.z.z.z.z.z.z.z.z.z.x.c.c.x.z.z.l.k.k.l.z.z.z.",
"z.z.z.z.z.z.z.c.v.v.c.z.z.z.z.z.z.z.z.z.z.c.v.v.m.m.z.z.z.z.z.z.z.z.z.z.z.c.v.v.c.z.z.k.h.h.k.z.z.z.",
"z.z.z.z.z.z.z.c.v.v.c.z.z.z.z.l.j.j.l.z.z.c.v.v.c.m.m.z.z.z.z.z.z.z.z.z.z.c.v.v.c.z.z.k.h.h.k.l.j.j.",
"z.z.z.z.z.z.z.x.c.c.x.z.z.z.z.j.g.g.j.z.z.x.c.c.x.m.m.z.z.z.m.z.z.z.z.z.z.x.c.c.x.z.z.l.k.k.l.j.g.g.",
"z.z.z.z.z.z.z.z.z.z.z.z.z.z.z.j.g.g.j.l.k.k.l.z.N.m.m.z.z.m.m.z.z.z.z.z.z.z.z.z.z.z.z.z.z.z.z.j.g.g.",
"z.z.z.z.z.z.z.z.z.z.z.z.z.z.z.l.j.j.l.k.h.h.k.b.m.m.C.z.z.m.z.z.z.z.z.z.z.z.z.z.z.z.z.z.z.z.z.l.j.j.",
"x.z.z.z.z.z.z.z.z.z.z.z.z.z.z.z.z.z.z.k.h.h.m.m.m.z.z.x.m.m.x.z.z.z.z.z.z.z.z.z.z.z.z.x.c.c.x.z.z.z.",
"c.z.z.z.z.z.z.z.z.z.z.z.z.z.z.z.z.z.z.l.k.m.m.V.z.z.z.c.m.m.m.z.z.z.z.z.z.z.z.z.z.z.z.c.v.v.c.z.z.z.",
"c.x.c.c.x.z.z.z.z.z.z.z.z.z.z.x.c.B.x.z.z.b.m.j.l.z.z.c.v.m.m.m.c.c.x.z.z.z.z.z.z.z.z.c.v.v.c.x.c.c.",
"x.c.v.v.c.z.z.z.z.z.z.z.z.z.z.c.v.m.c.z.z.m.m.g.j.z.z.x.c.c.B.m.m.v.c.z.z.z.z.z.z.z.z.x.c.c.x.c.v.v.",
"z.c.v.v.c.z.z.z.z.z.z.z.z.z.z.c.v.m.m.z.z.j.m.m.j.z.z.z.z.z.z.m.m.v.c.z.z.z.z.z.z.z.z.z.z.z.z.c.v.v.",
"z.x.c.c.x.z.z.z.z.z.z.z.z.z.z.x.c.m.m.z.z.l.j.m.m.z.z.z.z.z.z.m.m.c.x.z.z.z.z.z.z.z.z.z.z.z.z.x.c.c.",
"z.z.z.z.z.z.z.z.z.l.k.k.l.z.z.z.z.z.m.m.z.z.z.m.m.m.l.z.z.z.m.m.m.z.z.z.z.z.z.l.k.k.l.z.z.z.z.z.z.z.",
"z.z.z.z.z.z.z.z.z.k.h.h.k.z.z.z.z.z.n.m.z.z.z.k.m.m.k.z.z.m.m.m.m.z.z.z.z.z.z.k.h.h.k.z.z.z.z.z.z.z.",
"z.z.z.z.z.z.z.z.z.k.h.h.k.z.z.z.z.z.z.m.        d.d.      d.d.f.z.z.z.z.z.z.z.k.h.h.k.z.z.z.z.z.z.z.",
"z.z.z.z.z.z.z.z.z.l.k.k.l.z.z.z.z.  d.:.#.+.4.&.d.d.:.4.1.d.b     z.z.z.z.z.z.l.k.k.l.z.z.z.z.z.z.z.",
"l.z.z.z.z.z.z.x.c.c.x.z.z.z.z.    <.d.M f c f d.d.c f c o.d.;.<. .    z.z.x.c.c.x.z.z.z.z.z.z.z.z.z.",
"k.z.z.z.z.z.z.c.v.v.c.z.z.    $.6.G c d.l 2 2 d.2 2 2 2 2 2 o.c f 6.1.  z.c.v.v.c.z.z.z.z.z.z.z.z.z.",
"k.l.j.j.l.z.z.c.v.v.c.z.  @.f G c + = + + q h ..v k z z l + O + O s f f   c.v.v.c.z.z.z.z.z.z.z.z.z.",
"l.j.g.g.j.z.z.x.c.c.x.z.  :.B = = q z x z w w w w w 9 w H F k z O O O f   x.c.c.x.z.z.z.z.z.z.z.z.z.",
"z.j.g.g.j.l.k.k.l.z.z.z.  5.O + q l H K z w w w 9 w 9 w w r w z l O O O :.  l.z.z.z.z.z.z.z.z.z.z.z.",
"z.l.j.j.l.k.h.h.k.z.z.z.  n -.= O + K i 9 w 0 w w w w K K K j l f = + 3.P   k.z.z.z.z.z.z.z.z.z.z.z.",
"x.z.z.z.z.k.h.h.k.z.z.z.  L w.<.<.+ + + + + + + + + + + + + + + X p <.X.e   k.z.z.z.z.x.c.c.x.z.z.z.",
"c.z.z.z.z.l.k.k.l.z.z.  2 b O.n <.@.0.s.a.1.| 7.1.;.>.1.0.1.8.6.2.f + d ;     z.z.z.z.c.v.v.c.z.z.z.",
"c.x.c.c.x.z.z.l.j.j.l.  R 2 f J <.=.O.-.+.<.q.5.9.w.q.e.$.m L c c d - ; : T   j.l.z.z.c.v.v.c.x.c.c.",
"x.c.v.v.c.z.z.j.g.g.j.  D ^ E 7 X.@.*.>.X.L :.,.{ <.L [ f o.P J c f - 8 V * < g.j.z.z.x.c.c.x.c.v.v.",
"z.c.v.v.c.z.z.j.g.g.j.  S S V ^ V G +.%.$.H O.L 2.O.v b a } H H b 7 8 5 * 4   g.j.z.z.z.z.z.z.c.v.v.",
"z.x.c.c.x.z.z.l.j.j.l.  2 V V 8 / Q ) Y Y 7 A n @.%.f d u 6 7 4 S > 4 4 3 2   j.l.z.z.z.z.z.z.x.c.c.",
"z.z.z.z.z.z.z.z.z.l.k.  2 2 2 2 V I U / ` p.y.y.i._ ' t./ U D 5 * 4 2 2 2 2   l.k.k.l.z.z.z.z.z.z.z.",
"z.z.z.z.z.z.z.z.z.k.h.  H M r c 2 2 2 S 7 ~ T ^ R E S S S 6 5 4 3 2 2 r t -   k.h.h.k.z.z.z.z.z.z.z.",
"z.z.z.z.z.z.z.z.z.k.h.  G | d #.o.c f 2 2 2 2 2 2 2 2 2 2 2 @ @ 2 B - q t #   k.h.h.k.z.z.z.z.z.z.z.",
"z.z.z.z.z.z.z.z.z.l.k.  l o.d @.n &.@...y m c s f a f a ; = f a f d - q t O   l.k.k.l.z.z.z.z.z.z.z.",
"z.z.z.z.z.z.z.x.c.c.x.  G [ a @.:.&.-.,.f } @.| | | b O.u c l d g d - ; , %   c.x.z.z.l.k.k.l.z.z.z.",
"z.z.z.z.z.z.z.c.v.v.c.  v } a M :. .:.:.J  .;.[ P | ..<.t b i L a t - d ; -   v.c.z.z.k.h.h.k.z.z.z.",
"z.z.z.z.z.z.z.c.v.v.c.  H L a P X.*.+.| d #.O.:.%.O.v } N f f G y r - f u =   v.c.z.z.k.h.h.k.l.j.j.",
"z.z.z.z.z.z.z.x.c.c.x.  c L y W &.m #.#.r } } ] } L } P ; b L d a y = d e #   c.x.z.z.l.k.k.l.j.g.g.",
"z.z.z.z.z.z.z.z.z.z.z.  G G q v c P O.} y m +.O.P | K [ t L H u y g = t e #   z.z.z.z.z.z.z.z.j.g.g.",
"z.z.z.z.z.z.z.z.z.z.z.  * i e L L ..#.X.y #.+.} P P L l ; c a r d a # q e @   z.z.z.z.z.z.z.z.l.j.j.",
"x.z.z.z.z.z.z.z.z.z.z.  6 8 1 a L P L L t P +.X.W L L m - L y d u , # q # >   z.z.z.z.x.c.c.x.z.z.z.",
"c.z.z.z.z.z.z.z.z.z.z.z.  D C 5 N c P [ e J  . .c j v b = H d y t % . 5 5 >   z.z.z.z.c.v.v.c.z.z.z.",
"c.x.c.c.x.z.z.z.z.z.z.z.  6 7 5 V y.) ( 5 t Z G f f q e O > V C S * * * > @   z.z.z.z.c.v.v.c.x.c.c.",
"x.c.v.v.c.z.z.z.z.z.z.z.  - > 5 6 S U U E ` u.r.) / E / S D 6 5 * * * @ %   z.z.z.z.z.x.c.c.x.c.v.v.",
"z.c.v.v.c.z.z.z.z.z.z.z.  ; e @ @ C D 6 7 S T D 6 S 5 7 4 4 > 6 4 . @ ; @   z.z.z.z.z.z.z.z.z.c.v.v.",
"z.x.c.c.x.z.z.z.z.z.z.z.z.  , - y * 4 7 8 8 V 7 V 7 V 5 > * 3 $ @ t % t   z.z.z.z.z.z.z.z.z.z.x.c.c.",
"z.z.z.z.z.z.z.z.z.l.k.k.l.  @ - c G y ; # @ * @ & @ @ @ @ # - y q q O     z.z.l.k.k.l.z.z.z.z.z.z.z.",
"z.z.z.z.z.z.z.z.z.k.h.h.k.z.      r g J ; t m N y t a e o y e u t e   ! z.z.z.k.h.h.k.z.z.z.z.z.z.z.",
"z.z.z.z.z.z.z.z.z.k.h.h.k.z.! ! !   t y , y f i G a u t % q q       ! ! ! z.z.k.h.h.k.z.z.z.z.z.z.z.",
"z.z.z.z.z.z.z.z.z.l.k.k.l.! ! ! ! !         - e ; ; ;           ! ! ! ! ! ! z.l.k.k.l.z.z.z.z.z.z.z.",
"l.z.z.z.z.z.z.x.c.c.x.z.z.! ! ! ! ! ! ! ! !             ! ! ! ! ! ! ! ! ! ! c.c.x.z.z.z.z.z.z.z.z.z.",
"k.z.z.z.z.z.z.c.v.v.c.z.z.z.z.z.! ! ! ! ! ! ! ! ! ! ! ! ! ! ! ! ! ! ! z.z.c.v.v.c.z.z.z.z.z.z.z.z.z."
};
