/* XPM */
static char *_b9b2d36b5d94f8edcf7ed2a2a8f2a3fClYQL9vqnCmdPPaI[] = {
/* columns rows colors chars-per-pixel */
"50 50 170 2 ",
"   c black",
".  c #290B00",
"X  c #2C0B02",
"o  c #2B0D02",
"O  c #2F0F00",
"+  c #2D0F04",
"@  c #3F0E00",
"#  c #2C1002",
"$  c #2A110D",
"%  c #331400",
"&  c #371401",
"*  c #351506",
"=  c #3A1302",
"-  c #381502",
";  c #391404",
":  c #3C1704",
">  c #351904",
",  c #3C1609",
"<  c #3B160D",
"1  c #461600",
"2  c #481400",
"3  c #4F1B03",
"4  c #4E1C03",
"5  c #4E1F05",
"6  c #4E1F0B",
"7  c #571A00",
"8  c #501D02",
"9  c #551D02",
"0  c #521F04",
"q  c #541E04",
"w  c #5B1E00",
"e  c #511F08",
"r  c #562006",
"t  c #592108",
"y  c #4F2114",
"u  c #602304",
"i  c #602505",
"p  c #6E2E02",
"a  c #64200B",
"s  c #632609",
"d  c #61280A",
"f  c #6E2C09",
"g  c #6B2F0D",
"h  c #732B05",
"j  c #732A09",
"k  c #742B0B",
"l  c #702E0B",
"z  c #762E08",
"x  c #712F0C",
"c  c #772E0D",
"v  c #782F0C",
"b  c #6D310C",
"n  c #74300B",
"m  c #70320D",
"M  c #77310F",
"N  c #7F340D",
"B  c #672D15",
"V  c #702D10",
"C  c #792B15",
"Z  c #6B3010",
"A  c #693510",
"S  c #6B3215",
"D  c #723310",
"F  c #753311",
"G  c #763411",
"H  c #653423",
"J  c #703223",
"K  c #335403",
"L  c #375606",
"P  c #365801",
"I  c #385C02",
"U  c #3E5D0D",
"Y  c #3C6200",
"T  c #3F6500",
"R  c #436705",
"E  c #446605",
"W  c #406309",
"Q  c #436608",
"!  c #456709",
"~  c #43640D",
"^  c #46670E",
"/  c #44690A",
"(  c #45680C",
")  c #557F0F",
"_  c #537C12",
"`  c #547F13",
"'  c #567F15",
"]  c #5A7E1A",
"[  c #587C1C",
"{  c #3F6143",
"}  c #89360C",
"|  c #863611",
" . c #873714",
".. c #8B3713",
"X. c #853A13",
"o. c #813B17",
"O. c #853915",
"+. c #813C15",
"@. c #883813",
"#. c #8E3B11",
"$. c #8F3E13",
"%. c #883815",
"&. c #8E3A16",
"*. c #8A3C16",
"=. c #873B19",
"-. c #803E1B",
";. c #873E1B",
":. c #853F1D",
">. c #8D3D18",
",. c #8F3A1D",
"<. c #933F13",
"1. c #9D3F11",
"2. c #814006",
"3. c #854019",
"4. c #924615",
"5. c #994312",
"6. c #984617",
"7. c #91431C",
"8. c #94461F",
"9. c #984519",
"0. c #98461E",
"q. c #974A1E",
"w. c #984A1A",
"e. c #B34814",
"r. c #B24F16",
"t. c #B14C18",
"y. c #B34F1E",
"u. c #BA521D",
"i. c #9F4C20",
"p. c #AE4C25",
"a. c #BD5820",
"s. c #57820E",
"d. c #558112",
"f. c #568014",
"g. c #5A8416",
"h. c #6E9C16",
"j. c #6A9319",
"k. c #6B971B",
"l. c #6B971C",
"z. c #67981B",
"x. c #6A9B1B",
"c. c #70A016",
"v. c #77A71D",
"b. c #6B9620",
"n. c #729D29",
"m. c #739F2E",
"M. c #749E2E",
"N. c #73A522",
"B. c #74A623",
"V. c #75A626",
"C. c #76A920",
"Z. c #76A825",
"A. c #8FC42E",
"S. c #96CE2D",
"D. c #91C532",
"F. c #92C635",
"G. c #91C439",
"H. c #A3DB3A",
"J. c #A7DE3B",
"K. c #92C343",
"L. c #92C14D",
"P. c #42AE80",
"I. c #55B78E",
"U. c #61BA95",
"Y. c #69BD99",
"T. c #6DBF9E",
"R. c #6FC0A0",
"E. c #72C1A2",
"W. c #78C3A6",
"Q. c #8CC9B2",
/* pixels */
"R.R.R.R.R.R.R.E.W.W.E.R.R.R.R.R.R.R.R.R.R.E.W.W.E.R.R.R.R.R.R.R.R.R.R.R.R.E.W.W.E.R.R.T.Y.Y.T.R.R.R.",
"R.R.R.R.R.R.R.W.Q.Q.W.R.R.R.R.R.R.R.R.R.R.W.Q.Q.W.R.R.R.R.R.R.R.R.R.R.R.R.W.Q.Q.W.R.R.Y.I.I.Y.R.R.R.",
"R.R.R.R.R.R.R.W.Q.Q.W.R.R.R.R.T.U.U.T.R.R.W.Q.Q.W.R.R.R.R.R.R.R.R.R.R.R.R.W.Q.Q.W.R.R.Y.I.I.Y.T.U.U.",
"R.R.R.R.R.R.R.E.W.W.E.R.R.R.R.U.P.P.U.R.R.E.W.W.E.R.R.R.R.R.R.R.R.R.R.R.R.E.W.W.E.R.R.T.Y.Y.T.U.P.P.",
"R.R.R.R.R.R.R.R.R.R.R.R.R.R.R.U.P.P.U.T.Y.Y.T.R.R.R.R.R.R.R.R.R.R.R.R.R.R.R.R.R.R.R.R.R.R.R.R.U.P.P.",
"R.R.R.R.R.R.R.R.R.R.R.R.R.R.R.T.U.U.T.Y.I.I.Y.R.R.R.R.R.R.R.R.R.R.R.R.R.R.R.R.R.R.R.R.R.R.R.R.T.U.U.",
"E.R.R.R.R.R.R.R.R.R.R.R.R.R.R.R.R.R.R.Y.I.I.Y.R.R.R.R.E.W.W.E.R.R.R.R.R.R.R.R.R.R.R.R.E.W.W.E.R.R.R.",
"W.R.R.R.R.R.R.R.R.R.R.R.R.R.R.R.R.R.  T.Y.Y.T.R.R.R.R.W.Q.Q.W.R.R.R.R.R.R.R.R.R.R.R.R.W.Q.Q.W.R.R.R.",
"W.E.W.W.E.R.R.R.R.R.R.R.R.R.R.E.W.    R.R.T.U.U.T.R.R.W.Q.Q.W.E.W.W.E.R.R.R.R.R.R.R.R.W.Q.Q.W.E.W.W.",
"E.W.Q.Q.W.R.R.R.R.R.R.R.R.R.R.W.  d.  R.R.U.P.P.U.R.R.E.W.W.E.W.Q.Q.W.R.R.R.R.R.R.R.R.E.W.W.E.W.Q.Q.",
"R.W.Q.Q.W.R.R.R.R.R.R.R.R.R.R.  Q k.l.  R.U.P.P.U.R.R.R.R.R.R.W.Q.Q.W.R.R.R.R.R.R.R.R.R.R.R.R.W.Q.Q.",
"R.E.W.W.E.R.R.R.R.R.R.R.R.R.R.  ` Q l.  R.T.U.U.T.R.R.R.R.R.R.E.W.W.E.R.R.R.R.R.R.R.R.R.R.R.R.E.W.W.",
"R.R.R.R.R.R.R.R.R.T.Y.Y.T.R.  Q f.Q l.G.  R.R.T.Y.Y.T.R.R.R.R.R.R.R.R.R.R.R.R.T.Y.Y.T.R.R.R.R.R.R.R.",
"R.R.R.R.R.R.R.R.R.Y.I.I.Y.R.  Q f.Q l.G.J.  R.Y.I.I.Y.R.R.R.R.R.R.R.R.R.R.R.R.Y.I.I.Y.R.R.R.R.R.R.R.",
"R.R.R.R.R.R.R.R.R.Y.I.I.Y.  Q f.b.f.R G.F.H.  Y.I.I.Y.R.        R.R.R.R.R.R.R.Y.I.I.Y.R.R.R.R.R.R.R.",
"R.R.R.R.R.R.R.R.R.T.Y.Y.T.  Q f.b.f.R B.F.H.  T.Y.Y.T.  B.F.F.L.  R.R.R.R.R.R.T.Y.Y.T.R.R.R.R.R.R.R.",
"T.R.R.R.R.R.R.E.W.W.E.R.  Q f.f.b.b.f.m.F.F.J.  E.R.  b.l.B.K.  R.R.R.R.R.E.W.W.E.R.R.R.R.R.R.R.R.R.",
"Y.R.R.R.R.R.R.W.Q.Q.W.R.  Q f.b.b.b.f.M.B.D.J.  W.  ' b.L B.  R.R.R.R.R.R.W.Q.Q.W.R.R.R.R.R.R.R.R.R.",
"Y.T.U.U.T.R.R.W.Q.Q.W.R.  Q f.b.B.l.b.T v.D.F.J.  Q f.L b.b.  T.U.U.T.R.R.W.Q.Q.W.R.R.R.R.R.R.R.R.R.",
"T.U.P.P.U.R.R.E.W.W.E.R.  Q f.s.x.B.b.T c.N.D.S.  Q I [ f.  T.U.            W.W.E.R.R.R.R.R.R.R.R.R.",
"R.U.P.P.U.T.Y.Y.T.R.R.R.R.  / f.b.B.b.Y l.Z.D.F.  Q L f./ ^     m o.%.%.%.2.    R.R.R.R.R.R.R.R.R.R.",
"R.T.U.U.T.Y.I.I.Y.R.R.R.R.  Q f.b.z.b.T h.Z.C.A.  L g.!     F F | $.l x x O.| x     R.R.R.R.R.R.R.R.",
"E.R.R.R.R.Y.I.I.Y.R.R.R.R.  Q f._ b.b.I n.Z.B.F.  L Q   i l | | <.l 3 4 4 t m | x l   E.W.W.E.R.R.R.",
"W.R.R.R.R.T.Y.Y.T.R.R.R.R.R.  E f.) b.I W j.V.F.  (   s x @.9.9.j q & - # . 0 @.@.x s   Q.Q.W.R.R.R.",
"W.E.W.W.E.R.R.T.U.U.T.R.R.R.R.  R f.` I ~ b.B.  U   s x @.9.y.O.7 ; - # q 3 x 9.@.@.x   Q.Q.W.E.W.W.",
"E.W.Q.Q.W.R.R.U.P.P.            Q Q Q I ~ Q b.    s x x @.y.@.x @ - o 0 x m O.9.@.@.x     W.E.W.Q.Q.",
"R.W.Q.Q.W.R.R.U.    x x x x x x     Q ] L / b.  q s x @.y.y.x 0 - # 6 x x  .9.9.@.@.x s   R.R.W.Q.Q.",
"R.E.W.W.E.R.R.  | @.@.@.@.@.@.@.x x   Q P / Q   s x x @.y.@.x 0 % # e x @...y.@.@.@.x s   R.R.E.W.W.",
"R.R.R.R.R.R.R.  @.@.@.9.9.9.9.@.@.@.x   Q K   s s x @.9.9.x 0 - % 8 c @.@.y.y.@.@.x x s   R.R.R.R.R.",
"R.R.R.R.R.R.    : g x X...y.y.9.9.@.X.x   K   s x x O.9.@.x 0 - # 8 c @.y.t.9.@.@.x s s   R.R.R.R.R.",
"R.R.R.R.R.R.  x , - - v m X.@.y.y.9.9.h x     s x @.9.9.x 0 - - y f | @.y.0.@.@.@.x s s   R.R.R.R.R.",
"R.R.R.R.R.  q ;.m O - - > b b X.@.y.9.} c x   s x O.9.X.x 0 - # y f | @.y.9.@.@.x x s   R.R.R.R.R.R.",
"R.R.R.R.R.  q ;.>.:.H + % % - 2 1 z z #.>.-.x   w x 9.x 0 - % # S | @.9.9.$.@.z x s s   Y.Y.T.R.R.R.",
"R.R.R.R.R.  q M X.t.N A C # # # - ; ; 3.7.8.f m   q M q & - # 9 ;.$.0.9.@.O.x x i s 8   I.I.Y.R.R.R.",
"R.R.R.R.R.R.  B | 4.u.&.,.V Z # O O - J +.q.=.x   0 x 0 - O # q ;.e.q.%.@.c x d s r   Y.I.I.Y.T.U.U.",
"R.R.R.R.R.R.    l | 9.a.r.&.@.x x # # - p | @.x 0   0 - - # q x p.9.*.@.x l s s 0 0   T.Y.Y.T.U.P.P.",
"R.R.R.R.R.R.R.  D G O.5.i.9.9.@.@.x b # - n | x 0   0 - # # q z 1.%.@.x x s s 0 0   R.R.R.R.R.U.P.P.",
"R.R.R.R.R.R.R.  a d x ..@.w.6.6.9.%.%.X * n | x   5 - = o 0 j 6. .j x n s s 0 0   R.R.R.R.R.R.T.U.U.",
"E.R.R.R.R.R.R.{   d s x x x @.@.9.9.9.j < n | x   - - # 0 x 9.X.x x x s s 0 q   R.R.R.E.W.W.E.R.R.R.",
"W.R.R.R.R.R.R.{ {   s s s s x x @.@.@.h $ k i   0 0 q 0 x 9.x x x u s s 0     { R.R.R.W.Q.Q.W.R.R.R.",
"W.E.W.W.E.R.R.R.{ {     r s s s s x x x x u   {   0 0 x x x x s s s 8     { { { R.R.R.W.Q.Q.W.E.W.W.",
"E.W.Q.Q.W.R.R.R.{ { { {       s s s s s     { { {     0 0 0 0 0 0     { { { { R.R.R.R.E.W.W.E.W.Q.Q.",
"R.W.Q.Q.W.R.R.R.R.R.{ { { { {           { { { { { { {             { { { { { R.R.R.R.R.R.R.R.R.W.Q.Q.",
"R.E.W.W.E.R.R.R.R.R.R.R.{ { { { { { { { { { { { { { { { { { { { { { { { { R.R.R.R.R.R.R.R.R.R.E.W.W.",
"R.R.R.R.R.R.R.R.R.T.Y.Y.T.R.R.{ { { { { { { { { { { { { { { { { { R.R.R.R.R.R.T.Y.Y.T.R.R.R.R.R.R.R.",
"R.R.R.R.R.R.R.R.R.Y.I.I.Y.R.R.R.R.R.R.R.R.R.R.Y.I.I.Y.R.R.R.R.R.R.R.R.R.R.R.R.Y.I.I.Y.R.R.R.R.R.R.R.",
"R.R.R.R.R.R.R.R.R.Y.I.I.Y.R.R.R.R.R.R.R.R.R.R.Y.I.I.Y.R.R.R.R.R.R.R.R.R.R.R.R.Y.I.I.Y.R.R.R.R.R.R.R.",
"R.R.R.R.R.R.R.R.R.T.Y.Y.T.R.R.R.R.R.R.R.R.R.R.T.Y.Y.T.R.R.R.R.R.R.R.R.R.R.R.R.T.Y.Y.T.R.R.R.R.R.R.R.",
"T.R.R.R.R.R.R.E.W.W.E.R.R.R.R.R.R.R.R.R.R.E.W.W.E.R.R.T.Y.Y.T.R.R.R.R.R.R.E.W.W.E.R.R.R.R.R.R.R.R.R.",
"Y.R.R.R.R.R.R.W.Q.Q.W.R.R.R.R.R.R.R.R.R.R.W.Q.Q.W.R.R.Y.I.I.Y.R.R.R.R.R.R.W.Q.Q.W.R.R.R.R.R.R.R.R.R."
};
