/* XPM */
static char *_86cafcd4b8b4f0cac40b8609ca71e3ecgAEUyRQFIxkEe6A[] = {
/* columns rows colors chars-per-pixel */
"50 50 193 2 ",
"   c black",
".  c #7A1918",
"X  c #6F1A2F",
"o  c #751625",
"O  c #751729",
"+  c #7A192D",
"@  c #761634",
"#  c #296905",
"$  c #257B00",
"%  c #444F40",
"&  c #8A281D",
"*  c #851B28",
"=  c #9A1E26",
"-  c #951F2F",
";  c #9B1F29",
":  c #882526",
">  c #8E252D",
",  c #9B2226",
"<  c #9A2A24",
"1  c #95232C",
"2  c #9A202A",
"3  c #8F352E",
"4  c #96332A",
"5  c #922331",
"6  c #903431",
"7  c #A9282C",
"8  c #B02F29",
"9  c #AC342C",
"0  c #AB3F2B",
"q  c #B0312F",
"w  c #B02F30",
"e  c #AC3131",
"r  c #AC3B37",
"t  c #B03232",
"y  c #AE412D",
"u  c #B14F2C",
"i  c #AC532A",
"p  c #B1502C",
"a  c #AE4E33",
"s  c #B24434",
"d  c #B24E33",
"f  c #B24039",
"g  c #B34D3B",
"h  c #B84C39",
"j  c #AF5032",
"k  c #A95238",
"l  c #B15132",
"z  c #B95633",
"x  c #C55734",
"c  c #DA6D2C",
"v  c #DB732B",
"b  c #DA792A",
"n  c #C76237",
"m  c #DD6F36",
"M  c #DC6E3B",
"N  c #DC7234",
"B  c #D67834",
"V  c #DD713A",
"C  c #E27C2B",
"Z  c #E36F3B",
"A  c #E37534",
"S  c #E37539",
"D  c #AC4844",
"F  c #AF5144",
"G  c #B5694E",
"H  c #D76A41",
"J  c #DB6C43",
"K  c #DC7343",
"L  c #DA744E",
"P  c #D17351",
"I  c #2D8C04",
"U  c #3C8502",
"Y  c #3C8900",
"T  c #3D850E",
"R  c #3D9300",
"E  c #369F00",
"W  c #3D9B01",
"Q  c #35A300",
"!  c #3AB605",
"~  c #448301",
"^  c #418D01",
"/  c #429401",
"(  c #489605",
")  c #429B03",
"_  c #48AA05",
"`  c #48B70A",
"'  c #5BA023",
"]  c #61BC29",
"[  c #3DCC06",
"{  c #3CD102",
"}  c #44CC06",
"|  c #45CC0C",
" . c #4EC80D",
".. c #4AC910",
"X. c #57C719",
"o. c #5DF01E",
"O. c #68E01D",
"+. c #67DF24",
"@. c #69DD2B",
"#. c #6FC033",
"$. c #66ED26",
"%. c #68F72B",
"&. c #72FF2B",
"*. c #69F431",
"=. c #6BFF3C",
"-. c #73FF34",
";. c #77F938",
":. c #F48F1C",
">. c #EB951D",
",. c #F2951D",
"<. c #D48030",
"1. c #DA9939",
"2. c #EB8F22",
"3. c #EA8A2E",
"4. c #F38F2C",
"5. c #EE9425",
"6. c #E7962C",
"7. c #ED9429",
"8. c #E99929",
"9. c #F19425",
"0. c #F1932A",
"q. c #F79929",
"w. c #EB8A35",
"e. c #ED8B34",
"r. c #F28E34",
"t. c #EE9336",
"y. c #EA9437",
"u. c #EF9F37",
"i. c #EB9E3B",
"p. c #F39232",
"a. c #F89B34",
"s. c #F49338",
"d. c #FEA32E",
"f. c #EDA135",
"g. c #FDA232",
"h. c #F4A43B",
"j. c #F9A438",
"k. c #80F937",
"l. c #DB8943",
"z. c #DD9840",
"x. c #E58A44",
"c. c #EC9952",
"v. c #DEA757",
"b. c #E7A44B",
"n. c #F6AA47",
"m. c #FAB547",
"M. c #FEB64B",
"N. c #FEBC4D",
"B. c #F8A455",
"V. c #FEBD55",
"C. c #FEBD5A",
"Z. c #FBBA5D",
"A. c #DDAC68",
"S. c #E6AD65",
"D. c #F5BA68",
"F. c #FFBD6D",
"G. c #ECB877",
"H. c #F3BE77",
"J. c #93EF55",
"K. c #A6FE5A",
"L. c #9FFF65",
"P. c #A7FE62",
"I. c #FFC04F",
"U. c #F7C055",
"Y. c #FDC152",
"T. c #FEC059",
"R. c #FDC465",
"E. c #F1C16D",
"W. c #FFC56D",
"Q. c #FFC973",
"!. c #FFCC7B",
"~. c #FAD076",
"^. c #42AE80",
"/. c #55B78E",
"(. c #61BA95",
"). c #6BBE9B",
"_. c #6FC0A0",
"`. c #72C1A2",
"'. c #78C3A6",
"]. c #F0AF87",
"[. c #8CC9B2",
"{. c #F8CB85",
"}. c #F8C798",
"|. c #FFDD9B",
" X c #FFDDA5",
".X c #FFDCAA",
"XX c #FFE2AC",
"oX c #FFE4B6",
"OX c #FCE6C6",
"+X c #FFEEC3",
"@X c #FEEBCC",
"#X c #FEEBD4",
"$X c #FCE9D8",
/* pixels */
"_._._._._._._.`.'.'.`._._._._._._._._._._.`.'.'.`._._._._._._._._._._._._.`.'.'.`._._.).).).)._._._.",
"_._._._._._._.'.[.[.'._._._._._._._._._._.'.[.[.                _._._._._.'.[.[.'._._.)././.)._._._.",
"_._._._._._._.'.[.[.'._._._._.).(.(.)._._.'.[.  L.L.L.E E =.=.E     _._._.'.[.[.'._._.)././.).).(.(.",
"_._._._._._._.`.'.'.`._._._._.(.^.^.(._._.      L.L.P.R =.=.=.J.@.@.  _._.`.'.'.`._._.).).).).(.^.^.",
"_._._._._._._._._._._._._._._.(.^.    ).  @.^ K.k.;.W ..} -.|  .) ~ @.  _._._._._._._._._._._.(.^.^.",
"_._._._._._._._._._._._._._._.).(.      @.' ! #.+.O.^ _ ! X._ _ ! L.@.  _._._._._._._._._._._.).(.(.",
"`._._._._._._._._._._._._._._._._.  @.@.=.@.| ~ X.| ~ ( W ) T I { @.  _._._._._._._._.`.'.'.`._._._.",
"'._._._._._._._._._._._._._._._._.  @.} Y / W ) Y ~ } -.-.$.{ ]     _._._._._._._._._.'.[.[.'._._._.",
"'.`.'.'.`._._._._._._._._._._.`.'.  @.$ ` @.;.J.^ U %.*.o.R @.  '.'.`._._._._._._._._.'.[.[.'.`.'.'.",
"`.'.[.[.'._._._._._._._._._._.'.[.  @.# [ $.;.K.Y U &.$.%.~   '.[.[.'._._._._._._._._.`.'.'.`.'.[.[.",
"_.'.[.[.'._._._._._._._._._._.'.[.      U ` { } Q ) #       _.'.[.[.'._._._._._._._._._._._._.'.[.[.",
"_.`.'.'.`._._._._._._._._._._.`.'.    _.              _._._._.`.'.'.`._._._._._._._._._._._._.`.'.'.",
"_._._._._._._._._.).).).)._._._._.    _._._._.).).).)._._._._._._._._._._._._.).).).)._._._._._._._.",
"_._._._._._._._._.)././.)._._._._.    _._._._.)././.)._._._._._._._._._._._._.)././.)._._._._._._._.",
"_._._._._._._._._.)././.                      )././.)._._._._._._._._._._._._.)././.)._._._._._._._.",
"_._._._._._._._._.).).  o O o o o   + o o .   ).).).)._._._._._._._._._._._._.).).).)._._._._._._._.",
")._._._._._._.`.      J N 9.9.9.,.  4 ,.9.A V       _.).).).)._._._._._._.`.'.'.`._._._._._._._._._.",
")._._._._._._.  L V 0.9.0.5.9.t.u   : p 9.9.9.9.0.p.    /./.)._._._._._._.'.[.[.'._._._._._._._._._.",
").).(.(.)._._.  K v 9.9.9.6.9.t.a   & i 9.5.9.8.7.0.. .   /.).).(.(.)._._.'.[.[.'._._._._._._._._._.",
").(.^.^.(.    c 0.0.9.9.7.C.9.t.a 9 z V.9.5.5.V.6.9.9.v H   ).(.^.^.(._._.`.'.'.`._._._._._._._._._.",
"_.(.^.^.  D d 9.9.5.9.9.9.7.0.9.5.9.9.5.9.9.9.0.7.9.9.9.9.Z   (.^.^.(.).).).)._._._._._._._._._._._.",
"_.).(.(.  g z 0.3.3.9.9.5.9.9.9.9.9.8.u.u.i.f.S.6.9.5.7.9.b :   (.(.).)././.)._._._._._._._._._._._.",
"`._._.  q H V 5.v N 9.9.9.5.9.5.5.5.h.Y.C.Y.Z.$X1.>.9.9.9.0.l g   _._.)././.)._._._._.`.'.'.`._._._.",
"'._._.  d J V 5.9.9.9.9.5.9.V.V.5.V.V.C.M B.N.Y.OX@X5.9.9.0.V L   _._.).).).)._._._._.'.[.[.'._._._.",
"'.`.    d M m C 0.9.9.9.9.5.h.a.0.Y.V.I.}.H.N.|.{.}.b 9.9.5.3.w.  '.`._._.).(.(.)._._.'.[.[.'.`.'.'.",
"`.  1 9 d M N V s.9.9.9.9.9.0.9.q.V.V.Y.#X{.V.#XE.C.V 4.0.9.,.y.  [.'._._.(.^.^.(._._.`.'.'.`.'.[.[.",
"_.  6 a d M N ,.c M 9.9.9.0.Z B V.V.V.m.U.C.C.N.C.V.$X1.0.J 0.9.S   '._._.(.^.^.(._._._._._._.'.[.[.",
"_.  6 d d H V 5.3.r.9.9.5.p.oXXX5.V.b.B V.V.V.V.V.V.D.2.0.r.7.p.V   `._._.).(.(.)._._._._._._.`.'.'.",
"_.  6 l d K Z 5.9.7.9.9.9.,.OXoX5.V.B.V V.V.V.C.C.V.V.5.9.5.5.p.M   _._._._._.).).).)._._._._._._._.",
"_.  > 9 j d l 9.v N 9.9.9.9.5.6.T.0.S.#X0.n.V.Z Z.C.9.9.9.9.7.p.M   _._._._._.)././.)._._._._._._._.",
"_.  > 9 j j d v t.s.v p.9.9.5.5.7.9.i.E.C.V.T.@Xz.0.9.9.9.9.5.p.M   _._._._._.)././.)._._._._._._._.",
"_.  > 9 h j u K s.p.N p.9.9.5.5.2.9.f.V.V.V.C.@Xz.9.5.5.5.5.5.p.M   _._._._._.).).).)._._._._._._._.",
"_.  3 a 9 d j d K A 5.5.9.9.9.7.C.0.h.V.9.9.5.:.7.5.T.7.9.9.5.p.V   _._._.`.'.'.`._._.          _._.",
"_.  1 9 d d j j d u 5.N v 9.9.5.7.5.e.N 9.5.5.C.8.9.5.5.9.m 5.p.h   _._._.'.[.        c.t.Z.B K   _.",
"_.  5 e h d d h d u p.v b 9.9.9.9.9.3.B 5.5.5.V.5.9.9.9.0.v 0.s.F   _._._.'.  9.9.9.9.c.9.D.<.v   (.",
"_._.  ; e d d w h u m 9.>.0.9.9.9.9.f.V.9.5.5.9.2.9.9.9.0.5.c K 9.          !.V.u.9.g.0.5.@Xv.0.  ^.",
"_._.  + 2 s a d d j j K v 9.7.p.A 9.5.0.0.0.9.0.5.5.9.9.          {.R.g.!.F.j.g.W.!.V.V.R.+Xv.7.  ^.",
"_._._.  ; f h d d s d K B w.4.r.N 9.9.5.e.0.7.l.x.x.9.  F.F.F.F.F.F.C.j.W.V.n.g.V.R.M.W.G.oXb.0.  (.",
"`._._.  2 e 9 j 9 9 d d d d N v 9.9.9.9.M 3.0.9.      y.5.d.g.j.V.5.i.!.g.m.V.g.g.g.9.+X@XA e.0.  _.",
"'._._._.  - 2 9 h d a 9 9 j u d d V M M V M N   D i V.>.5.d.!.Q.d.g.h.Z.g.a.7.~.n.g.9.+X@X0.9.  _._.",
"'.`.'.'.`.  * 7 s y l y 0 d s y d n n n n x x   D y l.G.H.m.V.M.g.d.h.R.a.g.q.n.M.n.F.G.].9.9.  '.'.",
"`.'.[.[.'._.  = t 9 d d l d t 9 j d a l d r e   r 9 j #X#XM.d.g.g.g.n.!.g.g.d.9.C.V.OXP v 9.  '.[.[.",
"_.'.[.[.'._._.  5 , 9 9 9 l j d e d d d 9 s l 8   @ j a a @X0.9.g.9.7.V.9.q.g.9..X#XV a.2.  _.'.[.[.",
"_.`.'.'.`._._._.  + * 2 = < < < , < < < , , < * o   : a a G  X X X X XXX X.XXX.XA.b.0.9.  _._.`.'.'.",
"_._._._._._._.% %     5 2 ; = ; ; ; ; , 2 2 ; X X     F k k #X#X#X@X@X@X@X#X#X#Xb.8.p.  _._._._._._.",
"_._._._._._._.% % % %                             % %       g d l V C 9.5.9.9.N.b N   % % _._._._._.",
"_._._._._._._._.% % % % % % % % % % % % % % % % % % % % % %                         % % % _._._._._.",
"_._._._._._._._._.% % % % % % % % % % % % % % % % % % % % % % % % % % % % % % % % % % % _._._._._._.",
")._._._._._._.`.'.'.`._._._._._._._._._._.`.'.'.`._._.).).).)._._._._._._.`.'.'.`._._._._._._._._._.",
")._._._._._._.'.[.[.'._._._._._._._._._._.'.[.[.'._._.)././.)._._._._._._.'.[.[.'._._._._._._._._._."
};
