/* XPM */
static char *_58ae64b293b4e328ab3c19be9b61ca6TAA55sxBiQJGHEMq[] = {
/* columns rows colors chars-per-pixel */
"50 50 159 2 ",
"   c #000000",
".  c #0C0000",
"X  c #090809",
"o  c #130000",
"O  c #190000",
"+  c #000118",
"@  c #1D1E1D",
"#  c #250200",
"$  c #2C0000",
"%  c #320000",
"&  c #3C0000",
"*  c #241309",
"=  c #3F1100",
"-  c #000937",
";  c #00143B",
":  c #241F22",
">  c #2C2D2C",
",  c #440100",
"<  c #4B0200",
"1  c #4E0800",
"2  c #540500",
"3  c #5C0700",
"4  c #540B00",
"5  c #5C0D00",
"6  c #4E1800",
"7  c #5C1000",
"8  c #531B02",
"9  c #640D00",
"0  c #6B0E00",
"q  c #641200",
"w  c #6C1300",
"e  c #741600",
"r  c #741B00",
"t  c #7A1B00",
"y  c #772200",
"u  c #7B2100",
"i  c #61361B",
"p  c #00174C",
"a  c #001753",
"s  c #001C54",
"d  c #001F5A",
"f  c #022653",
"g  c #00255F",
"h  c #00295B",
"j  c #001F60",
"k  c #002462",
"l  c #002A63",
"z  c #002F6E",
"x  c #003263",
"c  c #00326F",
"v  c #003473",
"b  c #003873",
"n  c #003C7C",
"m  c #00447D",
"M  c #435E43",
"N  c #841E00",
"B  c #822400",
"V  c #892500",
"C  c #8C2B01",
"Z  c #913000",
"A  c #983406",
"S  c #EE381A",
"D  c #EC4620",
"F  c #FA4A23",
"G  c #FF5C2F",
"H  c #FF5B32",
"J  c #FF6B22",
"K  c #FF6D2B",
"L  c #FF702C",
"P  c #FF6F33",
"I  c #FF7432",
"U  c #FF7B32",
"Y  c #FF7E3B",
"T  c #FF823C",
"R  c #FF8541",
"E  c #FF8841",
"W  c #FF934E",
"Q  c #FF9654",
"!  c #FF9A53",
"~  c #FF905E",
"^  c #FFA05C",
"/  c #FFAB65",
"(  c #FFA26B",
")  c #FFB56A",
"_  c #FFB776",
"`  c #FFBC77",
"'  c #FFC377",
"]  c #FFC27D",
"[  c #004483",
"{  c #004885",
"}  c #004788",
"|  c #004D8C",
" . c #00508C",
".. c #004F93",
"X. c #005494",
"o. c #005995",
"O. c #015D9F",
"+. c #005CA2",
"@. c #0B68A7",
"#. c #0064AC",
"$. c #026DAE",
"%. c #006BB6",
"&. c #0072B6",
"*. c #0976B6",
"=. c #0274BB",
"-. c #0079BD",
";. c #0F79BF",
":. c #017BC2",
">. c #0B7BC4",
",. c #047EC9",
"<. c #42AE80",
"1. c #55B78E",
"2. c #61BA95",
"3. c #6BBE9B",
"4. c #6FC0A0",
"5. c #72C1A2",
"6. c #78C3A6",
"7. c #0E83C7",
"8. c #0482CB",
"9. c #0B84CC",
"0. c #1786C5",
"q. c #1187CE",
"w. c #0987D2",
"e. c #0889D6",
"r. c #0D8BD4",
"t. c #118BD3",
"y. c #118CD8",
"u. c #188BDA",
"i. c #0F92DB",
"p. c #1894D9",
"a. c #2589CA",
"s. c #2095D6",
"d. c #1B99E3",
"f. c #21A1E7",
"g. c #27A1ED",
"h. c #2DA5EB",
"j. c #29AAF3",
"k. c #30A9F2",
"l. c #3AAFF4",
"z. c #33B3F8",
"x. c #3DBAFE",
"c. c #48B2F2",
"v. c #43BCFD",
"b. c #49BFFF",
"n. c #45C1FF",
"m. c #49C3FF",
"M. c #4DC9FF",
"N. c #53CBFF",
"B. c #8CC9B2",
"V. c #FFC781",
"C. c #FFCA85",
"Z. c #FFCE88",
"A. c #FFD187",
"S. c #FFD28C",
"D. c #FFD38D",
"F. c #FFDB95",
"G. c #FFDD99",
"H. c #FFFFCA",
"J. c white",
/* pixels */
"4.4.4.4.4.4.4.5.6.6.5.4.4.4.4.4.4.4.4.4.4.5.6.6.5.4.4.4.4.4.4.4.4.4.4.4.4.5.6.6.5.4.4.3.3.3.3.4.4.4.",
"4.4.4.4.4.4.4.6.B.B.6.4.4.4.4.4.4.4.4.4.4.6.>       4.4.4.4.4.4.4.4.4.4.4.6.B.B.6.4.4.3.1.1.3.4.4.4.",
"4.4.4.4.4.4.4.6.B.B.6.4.4.4.4.3.2.2.3.4.$ $ 2 w r q % $ 4.4.4.4.4.4.4.4.4.6.B.B.6.4.4.3.1.1.3.3.2.2.",
"4.4.4.4.4.4.4.5.6.6.5.4.4.4.4.2.<.<.    e w w 0 t w w w .   4.4.4.4.4.4.4.5.6.6.5.4.4.3.3.3.3.2.<.<.",
"4.4.4.4.4.4.4.4.4.4.4.4.4.4.4.2.<.  , w e $ C Z V A < w y 0 4.4.4.4.4.4.4.4.4.4.4.4.4.4.4.4.4.2.<.<.",
"4.4.4.4.4.4.4.4.4.4.4.4.4.4.4.4.2.& 9 9 e $ 9 r r e & t t r   4.4.4.4.4.4.4.4.4.4.4.4.4.4.4.4.3.2.2.",
"5.4.4.4.4.4.4.4.4.4.4.4.4.4.4.4.4.& , % & & , < & , & & , ,   4.4.4.4.4.4.4.4.4.4.4.4.5.6.6.5.4.4.4.",
"6.4.4.4.4.4.4.4.4.4.4.4.4.4.4.4.4.  . $     l +.+...      &   4.4.4.4.4.4.4.4.4.4.4.4.6.B.B.6.4.4.4.",
"6.5.6.6.5.4.4.4.4.4.4.4.4.4.4.5.        & & & & & $ & ,         6.6.5.4.4.4.4.4.4.4.4.6.B.B.6.5.6.6.",
"5.6.B.B.6.4.4.4.4.4.4.4.4.4.4.  % q w e , e w q & w r & 9 9 & %     6.4.4.4.4.4.4.4.4.5.6.6.5.6.B.B.",
"4.6.B.B.6.4.4.4.4.4.4.4.4.4.* . % w 4 < 9 e B r 1 V w 5 4 7 5 < O   6.4.4.4.4.4.4.4.4.4.4.4.4.6.B.B.",
"4.5.6.6.5.4.4.4.4.4.4.4.4., , , 9 0 , , 9 0 t 5 , t 9 w 2 & r 9 , % & 4.4.4.4.4.4.4.4.4.4.4.4.5.6.6.",
"4.4.4.4.4.4.4.4.4.3.3.3.3.& & & w t 5 & , 0 w < % e w & , , C e , , , 4.4.4.4.3.3.3.3.4.4.4.4.4.4.4.",
"4.4.4.4.4.4.4.4.4.3.1.1.  r 2 < w w e 5 , & & & & 4 , , 2 w w w < & w   4.4.4.3.1.1.3.4.4.4.4.4.4.4.",
"4.4.4.4.4.4.4.4.4.3.1.1.  9 w w 5 < & $     O & & ,     O < 7 < 5 2 t   4.4.4.3.1.1.3.4.4.4.4.4.4.4.",
"4.4.4.4.4.4.4.4.4.3.3.3.  e e r r       E R #       R R 8   , w e e w   4.4.4.3.3.3.3.4.4.4.4.4.4.4.",
"3.4.4.4.4.4.4.5.6.6.5.  < , 3 e r R o   Y Z.R E T U Z.R 6   R e e w < &   5.6.6.5.4.4.4.4.4.4.4.4.4.",
"3.4.4.4.4.4.4.6.B.B.6.  4 r , , & R o   Z.Z.Z.Z.Z.Z.Z.Z.i   R e & < w &   6.B.B.6.4.4.4.4.4.4.4.4.4.",
"3.3.2.2.3.4.4.6.B.B.6.  < u 2 & &   Z.Z.Z.Z.Z.Z.Z.Z.Z.Z.] Z.    # , e %   6.B.B.6.4.4.4.4.4.4.4.4.4.",
"3.2.<.<.2.4.4.5.6.6.5.X $ 9 # O W & & & & Z.Z.Z.Z.Z.A.& & & & W O % 2 # . 5.6.6.5.4.4.4.4.4.4.4.4.4.",
"4.2.<.<.2.3.3.3.3.4.4.    , .   W ] V.Z.] T Z.Z.Z.Z.Y ' ) ] V.R o   <     @ 3.4.4.4.4.4.4.4.4.4.4.4.",
"4.3.2.2.3.3.1.1.3.4.4.  N       W         Z.Z.Z.Z.Z.Z.        R O     e   : 3.4.4.4.4.4.4.4.4.4.4.4.",
"5.4.4.4.4.3.1.1.3.4.    e         J.        C.S.Z.S.        J.        e ,     4.4.4.4.5.6.6.5.4.4.4.",
"6.4.4.4.4.3.3.3.3.4.    e 8 .   = J.      J.Z.Z.Z.Z.J.      J.=     8 9 7 o   4.4.4.4.6.B.B.6.4.4.4.",
"6.5.6.6.5.4.4.3.2.    w %       ^ I W     J.Z.! R Z.J.  $ W H.Q o     % 7 &     3.4.4.6.B.B.6.5.6.6.",
"5.6.B.B.6.4.4.2.  < < B C       ! Z.Z.Z.Z.Z.Z.Z.Z.Z.Z.Z.Z.Z.Z.Y o     t t w e   2.4.4.5.6.6.5.6.B.B.",
"4.6.B.B.6.4.4.2.  < 2 3 2 &     o Z.~ ~ Z.Z.G H F D Z.Z.~ ~ Z.O     $ < 5 < o   2.4.4.4.4.4.4.6.B.B.",
"4.5.6.6.5.4.4.3.  O < 5 % < o     o ( ( Z.Z.Z.F S Z.Z.Z.( ( o       < , 4 ,   2.3.4.4.4.4.4.4.5.6.6.",
"4.4.4.4.4.4.4.4.4.        , , , &         L C.V.S.S.Y         , & & 4       4.3.3.3.3.4.4.4.4.4.4.4.",
"4.4.4.4.4.4.4.4.4.3.1.1.  & .     7.z s |   I K K P    .c h [       % 4.4.4.4.3.1.1.3.4.4.4.4.4.4.4.",
"4.4.4.4.4.4.4.4.5.3.1.1.3.      - ;.s p 0.f n n n n b s.{ h a.;       4.4.4.4.3.1.1.3.4.4.4.4.4.4.4.",
"4.4.4.4.4.4.4.4.4.3.3.3.3.4.4.  b } j l N.i.v n #.n 9.N.@.d m.[     4.4.4.4.4.3.3.3.3.4.4.4.4.4.4.4.",
"4.4.4.4.4.4.4.5.6.6.5.4.4.4.    =.- g n w.n n #.#.#.n n *.| } =.+     4.4.5.6.6.5.4.4.3.3.3.3.4.4.4.",
"4.4.4.4.4.4.4.6.B.B.6.4.4.  ] ` P f c.N.t.N.M.k.p.N.v.,.p.v.h K ` Z.C.  4.6.B.B.6.4.4.3.1.1.3.4.4.4.",
"4.4.4.4.4.4.4.6.B.B.      F.F.G.I + a.p.:.h.g.y.e.d.h.8.t.k.+ J / S.S.S.    B.B.6.4.4.3.1.1.3.3.2.2.",
"4.4.4.4.4.4.4.5.6.  S.S.S.S.C.] I   [ q.&.9.y.,.=.:.r.,.&.#.  R _ S.S.S.S.S.  6.5.4.4.3.3.3.3.2.<.<.",
"4.4.4.4.4.4.4.4.4.  ^ ^ ^ G.^       ; a v -.$.$.o.=.=.[ l g         S.^ ^ ^   4.4.4.4.4.4.4.4.2.<.<.",
"4.4.4.4.4.4.4.4.4.      ^     3.2.  %.%.l d d d d d d l | o.  4.4.4.  ^     4.4.4.4.4.4.4.4.4.3.2.2.",
"5.4.4.4.4.4.4.4.4.4.4.    4.4.4.4.  | %.s >.r.=.7.:.#.k | +.  4.4.4.4.    4.4.4.4.4.4.5.6.6.5.4.4.4.",
"6.4.4.4.4.4.4.4.4.4.4.4.4.4.4.4.4.  &.=.k 8.w.d.8.w.t.z X.>.v   4.4.4.4.4.4.4.4.4.4.4.6.B.B.6.4.4.4.",
"6.5.6.6.5.4.4.4.4.4.4.4.4.4.4.5.  9.n l n m.x.z.r.n.v.X.c c O.v   6.5.4.4.4.4.4.4.4.4.6.B.B.6.5.6.6.",
"5.6.B.B.6.4.4.4.4.4.4.4.4.4.4.  k %.k d 8.v.v.f.w.b.l.-.m ; u.v v   6.4.4.4.4.4.4.4.4.5.6.6.5.6.B.B.",
"4.6.B.B.6.4.4.4.4.4.4.4.4.4.4.  ..%.l l r.n.z.j.9.n.x.9.[ l %.%.v   6.4.4.4.4.4.4.4.4.4.4.4.4.6.B.B.",
"4.5.6.6.5.4.4.4.4.4.4.4.4.4.4.  &.%.[ n 7.r.d.8.y.w.r.&. .| ..%.v   5.4.4.4.4.4.4.4.4.4.4.4.4.5.6.6.",
"4.4.4.4.4.4.4.4.4.3.3.3.3.4.4.4.  x o.7.o.N.x.j.w.m.M.| $.p.v v   4.4.4.4.4.4.3.3.3.3.4.4.4.4.4.4.4.",
"4.4.4.4.4.4.4.4.4.3.1.1.3.4.4.4.4.                              4.4.4.4.4.4.4.3.1.1.3.4.4.4.4.4.4.4.",
"4.4.4.4.4.4.4.4.4.3.1.1.3.4.4.4.M X O # # . M M M M o . . O M M 4.4.4.4.4.4.4.3.1.1.3.4.4.4.4.4.4.4.",
"4.4.4.4.4.4.4.4.4.3.3.3.3.4.4.4.M M         M M M M         M M 4.4.4.4.4.4.4.3.3.3.3.4.4.4.4.4.4.4.",
"3.4.4.4.4.4.4.5.6.6.5.4.4.4.4.4.4.M M M M M M M M M M M M M M 4.4.4.4.4.4.5.6.6.5.4.4.4.4.4.4.4.4.4.",
"3.4.4.4.4.4.4.6.B.B.6.4.4.4.4.4.4.4.4.4.4.6.B.B.6.4.4.3.1.1.3.4.4.4.4.4.4.6.B.B.6.4.4.4.4.4.4.4.4.4."
};
