/* XPM */
static char *b96169114dcf412cd8ada19ad5224c7196HHBm1XdOv4671I[] = {
/* columns rows colors chars-per-pixel */
"50 50 156 2 ",
"   c #010101",
".  c #0C0000",
"X  c #02060F",
"o  c #040F0B",
"O  c #100403",
"+  c #1A0100",
"@  c #180B04",
"#  c #0C170F",
"$  c #15110E",
"%  c #0E0611",
"&  c #030C13",
"*  c #240000",
"=  c #2B0101",
"-  c #270803",
";  c #340201",
":  c #3C0201",
">  c #330A04",
",  c #390D02",
"<  c #301B0A",
"1  c #3D0F12",
"2  c #2B1A13",
"3  c #0E231A",
"4  c #2F2019",
"5  c #392515",
"6  c #040F22",
"7  c #001228",
"8  c #021B36",
"9  c #00143F",
"0  c #181736",
"q  c #062639",
"w  c #440401",
"e  c #4B0501",
"r  c #410801",
"t  c #4C0901",
"y  c #510601",
"u  c #5A0700",
"i  c #540A01",
"p  c #5B0B01",
"a  c #481708",
"s  c #5D1103",
"d  c #44171E",
"f  c #630E01",
"g  c #6B0F01",
"h  c #651202",
"j  c #6C1301",
"k  c #731401",
"l  c #791603",
"z  c #741902",
"x  c #7A1C02",
"c  c #7E2106",
"v  c #6F3A1A",
"b  c #713614",
"n  c #304A33",
"m  c #001C55",
"M  c #032040",
"N  c #022056",
"B  c #253254",
"V  c #082E65",
"C  c #032C69",
"Z  c #053063",
"A  c #04366B",
"S  c #0C356D",
"D  c #14396A",
"F  c #033572",
"G  c #003679",
"H  c #043D7A",
"J  c #133C74",
"K  c #253E69",
"L  c #0C477F",
"P  c #11427A",
"I  c #4D4555",
"U  c #811E01",
"Y  c #852205",
"T  c #892503",
"R  c #8F2903",
"E  c #932D04",
"W  c #992F02",
"Q  c #973003",
"!  c #9B3004",
"~  c #B2350F",
"^  c #AF3712",
"/  c #B13511",
"(  c #B74520",
")  c #A35934",
"_  c #D54B22",
"`  c #CA572A",
"'  c #C96531",
"]  c #F9752D",
"[  c #FF7935",
"{  c #AE7142",
"}  c #FB863C",
"|  c #FC8B3B",
" . c #FF8B41",
".. c #F89248",
"X. c #FB8A5C",
"o. c #F89752",
"O. c #FD9C54",
"+. c #FFA45E",
"@. c #FA9664",
"#. c #FEAA61",
"$. c #FEB56F",
"%. c #FFBF75",
"&. c #024384",
"*. c #00458A",
"=. c #034A8D",
"-. c #135683",
";. c #014C90",
":. c #005097",
">. c #0C5295",
",. c #005598",
"<. c #035B9C",
"1. c #095E9F",
"2. c #2D779A",
"3. c #0B65A2",
"4. c #0464A9",
"5. c #106CAD",
"6. c #1A78AC",
"7. c #0167B2",
"8. c #016CB9",
"9. c #0773B7",
"0. c #227CBA",
"q. c #057BC5",
"w. c #42AE80",
"e. c #55B78E",
"r. c #61BA95",
"t. c #69BD99",
"y. c #6CBE9D",
"u. c #6FC0A0",
"i. c #72C1A2",
"p. c #78C3A6",
"a. c #0782CB",
"s. c #0882CB",
"d. c #1F8CCD",
"f. c #0685D1",
"g. c #0886D1",
"h. c #0789D7",
"j. c #0D8AD4",
"k. c #1391DB",
"l. c #3DA5D8",
"z. c #1A97E1",
"x. c #219EE6",
"c. c #23A1E8",
"v. c #2AA6EC",
"b. c #29ACF2",
"n. c #39B9FA",
"m. c #42C2FD",
"M. c #53CDFE",
"N. c #8CC9B2",
"B. c #FAC683",
"V. c #FDCE86",
"C. c #FECF87",
"Z. c #FCCD8B",
"A. c #FED28A",
"S. c #FFD98E",
"D. c #FBD893",
"F. c #FFFEFD",
/* pixels */
"u.u.u.y.t.t.y.u.u.i.p.p.i.u.u.u.u.u.u.u.u.u.u.u.u.i.p.p.i.u.u.u.u.u.u.u.u.u.u.i.p.p.i.u.u.u.u.u.u.u.",
"u.u.u.t.e.e.t.u.u.p.N.N.p.u.u.u.u.u.u.u.u.u.u.u.u.p.N.N.p.u.u.u.            u.p.N.N.p.u.u.u.u.u.u.u.",
"r.r.y.t.e.e.t.u.u.p.N.N.p.u.u.u.u.u.u.u.u.u.u.u.u.p.N.N.p.u.u.o , a > + = > o o N.N.p.u.u.u.u.u.u.u.",
"w.w.r.y.t.t.y.u.u.i.p.p.i.u.u.u.u.u.u.u.u.u.u.u.u.i.p.p.i.u.o s x c f r p z . . o p.i.u.u.u.u.u.u.u.",
"w.w.r.u.u.u.u.u.u.u.u.u.u.u.u.u.u.u.u.u.u.u.u.u.u.u.u.y.t.t.  Y j e ; k E E j g > o u.u.u.u.u.u.u.u.",
"r.r.y.u.u.u.u.u.u.u.u.u.u.u.u.u.u.u.u.u.. . . . . . . t.e.q <.1 e h T t : f j j t e o u.u.u.u.u.u.u.",
"u.u.u.i.p.p.i.u.u.u.u.u.u.u.u.u.u.. O . x x j z z j y O . % P B d u j ; r x j f e e o u.u.u.u.u.u.i.",
"u.u.u.p.N.N.p.u.u.u.u.u.u.u.u.u.. u u U z p : ; ; ; ; ; : : : 8.K ; w ; f R j e : e o u.u.u.u.u.u.p.",
"p.p.i.p.N.N.p.u.u.u.u.u.u.u.u.. i k h : ; w k k k k l k j j j V G S ; e f k : * = e o u.u.i.p.p.i.p.",
"N.N.p.i.p.p.i.u.u.u.u.u.u.u.. h f i : = g z Q Q Q Q j k t ; ; ; 0 V ; * * * e e = # u.u.u.p.N.N.p.i.",
"N.N.p.u.u.u.u.u.u.u.u.u.u.. l f f i e g i u u f f u t t p k k f w = . * : ; = o o u.u.u.u.p.N.N.p.u.",
"p.p.i.u.u.u.u.u.u.u.u.u.: j c t j h k f = = = = = t ! W x j k : : w :   *     u.u.u.u.u.u.i.p.p.i.u.",
"u.u.u.u.u.u.u.y.t.t.y.. h f y   z j Y = x : j E Q Q Q j j k x ; e j : * . y.t.t.y.u.u.u.u.u.u.u.u.u.",
"u.u.u.u.u.u.u.t.e.e.t.  f t t   h x E = x e j k E W j x x k ; u j j : = . t.e.e.t.u.u.u.u.u.u.u.u.u.",
"u.u.u.u.u.u.u.t.e.e.t.  = x     x t k = x : g j k j W W x ; ; l y ; u * :   e.e.t.u.u.u.u.u.u.u.u.u.",
"u.u.u.u.u.u.u.y.t.t.y.  = ( `   x t g = x w ; y e e = = ; z T : t j : ; :   t.t.y.u.u.u.u.u.u.u.u.u.",
"u.u.u.u.u.u.u.u.u.i.p.p.= ( C.C.  t x = p e i ; ; : y h Q Q x ; j f = y w   u.i.p.p.i.u.u.u.u.u.u.y.",
"u.u.u.u.u.u.u.u.u.p.N.N.p.( g g C.    + i y i ; : t j Q Q h ; j k u * f r   u.p.N.N.p.u.u.u.u.u.u.t.",
"u.u.u.u.u.u.u.u.u.p.N.N.p.(     C.A.o.  e e = j g j j f : = = k u w = j w   u.p.N.N.p.u.u.y.r.r.y.t.",
"u.u.u.u.u.u.u.u.u.i.p.p.i.(   F.  A.Z.  f s    .2 . ; ; p k k f ; = i p :   u.i.p.p.i.u.u.r.w.w.r.y.",
"u.u.u.u.u.u.u.u.u.u.u.y.t.(   F.A.C.C.S.  r   ] B.  k j p i t ; ; y e = + u.u.u.u.y.t.t.y.r.w.w.r.u.",
"u.u.u.u.u.u.u.u.u.u.u.t.e.(   F.A.A.C.A.  = @ [ $.  f f w = = y y y * ; $ u.u.u.u.t.e.e.t.y.r.r.y.u.",
"u.u.u.i.p.p.i.u.u.u.u.t.( A.A.@.X.A.C.  -   | D.$.  = * * ; p u : * w   u.u.u.u.u.t.e.e.t.u.u.u.u.i.",
"u.u.u.p.N.N.p.u.u.u.u.y.t._ A.X.X.A.B.  .   } O.5 . = u p e = * ; :   u.u.u.u.u.u.y.t.t.y.u.u.u.u.p.",
"p.p.i.p.N.N.p.u.u.y.r.r.y._ A.A.A.A.C.A.  ' } < - * = ; ; : e e = O i.u.u.u.u.y.r.r.y.u.u.i.p.p.i.p.",
"N.N.p.i.p.p.i.u.u.r.w.w.r._ _ A.A.A.A.} } } } 5 = * = = = ; y ; 4 N.p.u.u.u.u.r.w.w.r.u.u.p.N.N.p.i.",
"N.N.p.u.u.u.u.u.u.r.w.w.r.u.u.~ ~ / / ^ / } } } } )           p.N.N.p.u.u.u.u.r.w.w.r.u.u.p.N.N.p.u.",
"p.p.i.u.u.u.u.u.u.y.r.r.y.u.u.i.p.p.i.u./ J J D D S   u.u.u.u.i.p.p.i.u.u.u.u.y.r.r.y.u.u.i.p.p.i.u.",
"u.u.u.u.u.u.u.y.t.t.y.u.u.u.u.u.u.u.u.  K >.0.5.1.=.8   u.u.u.u.u.u.u.u.u.y.t.t.y.u.u.u.u.u.u.u.u.u.",
"u.u.u.u.u.u.u.t.e.e.t.u.u.u.u.u.u.u.X 7.*.3.m.c.j.4.G   u.u.u.u.u.u.u.u.u.t.e.e.t.u.u.u.u.u.u.u.u.u.",
"u.u.u.u.u.u.u.t.e.e.t.u.u.u.u.u.    7.j.C L M.z.j.9.j.  u.u.u.u.u.u.u.u.u.t.e.e.t.u.u.u.u.u.u.u.u.u.",
"u.u.u.u.u.u.u.y.t.t.y.u.u.u.u.3 2.l.n.j.F m >.&.&.C j.  u.u.u.u.u.u.u.u.u.y.t.t.y.u.u.u.u.u.u.u.u.u.",
"u.u.u.y.t.t.y.u.u.i.p.p.i.u.u.  6.v.z.s.H N 9 I I   j.  i.u.u.u.u.u.u.u.u.u.u.i.p.p.i.u.u.u.u.u.u.u.",
"u.u.u.t.e.e.t.u.u.p.N.N.p.u.u.o <.q.s.a.=.A   [ [   j.  p.u.u.u.u.u.u.u.u.u.u.p.N.N.p.u.u.u.u.u.u.u.",
"r.r.y.t.e.e.t.u.u.p.N.N.p.u.u.u.  7 &.;.=.Z   C.D.  j.  p.u.u.y.r.r.y.u.u.u.u.p.N.N.p.u.u.u.u.u.u.u.",
"w.w.r.y.t.t.y.u.u.i.p.p.i.u.u.u.  q 4.*.<.Z   Z.S.  j.  i.u.u.r.w.w.r.u.u.u.u.i.p.p.i.u.u.u.u.u.u.u.",
"w.w.r.u.u.u.u.u.u.u.u.u.u.u.u.u.  d.m.z.g.3.  C.A.  j.6 t.t.y.r.w.w.r.u.u.u.u.u.u.u.u.u.u.u.u.u.u.u.",
"r.r.y.u.u.u.u.u.u.u.u.u.u.u.u.u.  d.m.b.a.3.  Z.A.  j.j.6 e.t.y.r.r.y.u.u.u.u.u.u.u.u.u.u.u.u.u.u.u.",
"u.u.u.i.p.p.i.u.u.u.u.u.u.u.u.u.  d.m.k.d.  #.C.A.%.  j.:.  t.u.u.u.u.u.u.u.u.u.u.u.u.u.u.u.u.u.u.i.",
"u.u.u.p.N.N.p.u.u.u.u.u.u.u.u.u.  d.n.s.d.-.@ +.+.{   j.:.  y.u.u.u.u.u.u.u.u.u.u.u.u.u.u.u.u.u.u.p.",
"p.p.i.p.N.N.p.u.u.u.u.u.u.u.u.i.  d.n.9.x.9.  b v     F :.:.  i.p.p.i.u.u.u.u.u.u.u.u.u.u.i.p.p.i.p.",
"N.N.p.i.p.p.i.u.u.u.u.u.u.u.u.p.  d.b.,.x.f.f.  & & d.H :.:.  p.N.N.p.u.u.u.u.u.u.u.u.u.u.p.N.N.p.i.",
"N.N.p.u.u.u.u.u.u.u.u.u.u.u.u.  d.d.b.,.c.f.g.h.h.h.d.7.M     p.N.N.p.u.u.u.u.u.u.u.u.u.u.p.N.N.p.u.",
"p.p.i.u.u.u.u.u.u.u.u.u.u.u.u.  d.b.b.,.c.d.d.d.d.d.d.8     u.i.p.p.i.u.u.u.u.u.u.u.u.u.u.i.p.p.i.u.",
"u.u.u.u.u.u.u.y.t.t.y.u.u.u.u.u.                        n u.u.u.u.u.u.u.u.y.t.t.y.u.u.u.u.u.u.u.u.u.",
"u.u.u.u.u.u.u.t.e.e.t.u.u.u.u.n n n n n n   ....o.  n n n n u.u.u.u.u.u.u.t.e.e.t.u.u.u.u.u.u.u.u.u.",
"u.u.u.u.u.u.u.t.e.e.t.u.u.u.u.n n n n     e e e e   n n n n u.u.u.u.u.u.u.t.e.e.t.u.u.u.u.u.u.u.u.u.",
"u.u.u.u.u.u.u.y.t.t.y.u.u.u.u.u.n n n               n n n u.u.u.u.u.u.u.u.y.t.t.y.u.u.u.u.u.u.u.u.u.",
"u.u.u.u.u.u.u.u.u.i.p.p.i.u.u.u.u.n n n n n n n n n n n i.u.u.u.u.u.u.u.u.u.u.i.p.p.i.u.u.u.u.u.u.y.",
"u.u.u.u.u.u.u.u.u.p.N.N.p.u.u.u.u.u.u.t.e.e.t.u.u.p.N.N.p.u.u.u.u.u.u.u.u.u.u.p.N.N.p.u.u.u.u.u.u.t."
};
