/* XPM */
static char *a4279908bdde4c82d99c859e5bd39147x4fXkPqR5lfRAXVL[] = {
/* columns rows colors chars-per-pixel */
"50 50 155 2 ",
"   c #010101",
".  c #0C0000",
"X  c #02060F",
"o  c #040F0B",
"O  c #100403",
"+  c #1A0100",
"@  c #180B04",
"#  c #0C170F",
"$  c #15110E",
"%  c #0E0611",
"&  c #030C13",
"*  c #240000",
"=  c #2B0101",
"-  c #270803",
";  c #340201",
":  c #3C0201",
">  c #330A04",
",  c #390D02",
"<  c #301B0A",
"1  c #3D0F12",
"2  c #2B1A13",
"3  c #0E231A",
"4  c #2F2019",
"5  c #392515",
"6  c #040F22",
"7  c #001228",
"8  c #021B36",
"9  c #00143F",
"0  c #181736",
"q  c #062639",
"w  c #440401",
"e  c #4B0501",
"r  c #410801",
"t  c #4C0901",
"y  c #510601",
"u  c #5A0700",
"i  c #540A01",
"p  c #5B0B01",
"a  c #481708",
"s  c #5D1103",
"d  c #44171E",
"f  c #630E01",
"g  c #6B0F01",
"h  c #651202",
"j  c #6C1301",
"k  c #731401",
"l  c #791603",
"z  c #741902",
"x  c #7A1C02",
"c  c #7E2106",
"v  c #6F3A1A",
"b  c #713614",
"n  c #304A33",
"m  c #001C55",
"M  c #032040",
"N  c #022056",
"B  c #253254",
"V  c #082E65",
"C  c #032C69",
"Z  c #053063",
"A  c #04366B",
"S  c #0C356D",
"D  c #14396A",
"F  c #033572",
"G  c #003679",
"H  c #043D7A",
"J  c #133C74",
"K  c #253E69",
"L  c #11427A",
"P  c #4D4555",
"I  c #811E01",
"U  c #852205",
"Y  c #892503",
"T  c #8F2903",
"R  c #932D04",
"E  c #992F02",
"W  c #973003",
"Q  c #9B3004",
"!  c #B2350F",
"~  c #AF3712",
"^  c #B13511",
"/  c #B74520",
"(  c #A35934",
")  c #D54B22",
"_  c #CA572A",
"`  c #C96531",
"'  c #F9752D",
"]  c #FF7935",
"[  c #AE7142",
"{  c #FB863C",
"}  c #FC8B3B",
"|  c #FF8B41",
" . c #F89248",
".. c #FB8A5C",
"X. c #F89752",
"o. c #FD9C54",
"O. c #FFA45E",
"+. c #FA9664",
"@. c #FEAA61",
"#. c #FEB56F",
"$. c #FFBF75",
"%. c #024384",
"&. c #00458A",
"*. c #034A8D",
"=. c #135683",
"-. c #014C90",
";. c #005097",
":. c #0C5295",
">. c #005598",
",. c #035B9C",
"<. c #095E9F",
"1. c #2D779A",
"2. c #0B65A2",
"3. c #0464A9",
"4. c #106CAD",
"5. c #1A78AC",
"6. c #0167B2",
"7. c #016CB9",
"8. c #0773B7",
"9. c #227CBA",
"0. c #057BC5",
"q. c #42AE80",
"w. c #55B78E",
"e. c #61BA95",
"r. c #69BD99",
"t. c #6DBF9E",
"y. c #6FC0A0",
"u. c #72C1A2",
"i. c #78C3A6",
"p. c #0782CB",
"a. c #0882CB",
"s. c #1F8CCD",
"d. c #0685D1",
"f. c #0886D1",
"g. c #0789D7",
"h. c #0D8AD4",
"j. c #1391DB",
"k. c #3DA5D8",
"l. c #1A97E1",
"z. c #219EE6",
"x. c #23A1E8",
"c. c #2AA6EC",
"v. c #29ACF2",
"b. c #39B9FA",
"n. c #42C2FD",
"m. c #53CDFE",
"M. c #8CC9B2",
"N. c #FAC683",
"B. c #FDCE86",
"V. c #FECF87",
"C. c #FCCD8B",
"Z. c #FED28A",
"A. c #FFD98E",
"S. c #FBD893",
"D. c #FFFEFD",
/* pixels */
"y.y.y.y.y.y.y.u.i.i.u.y.y.y.y.y.y.y.y.y.y.u.i.i.u.y.y.y.y.y.y.y.y.y.y.y.y.u.i.i.u.y.y.t.r.r.t.y.y.y.",
"y.y.y.y.y.y.y.i.M.M.i.y.            y.y.y.i.M.M.i.y.y.y.y.y.y.y.y.y.y.y.y.i.M.M.i.y.y.r.w.w.r.y.y.y.",
"y.y.y.y.y.y.y.i.M.M.o o > = + > a , o y.y.i.M.M.i.y.y.y.y.y.y.y.y.y.y.y.y.i.M.M.i.y.y.r.w.w.r.t.e.e.",
"y.y.y.y.y.y.y.u.i.o . . k p w f c x s o y.u.i.i.u.y.y.y.y.y.y.y.y.y.y.y.y.u.i.i.u.y.y.t.r.r.t.e.q.q.",
"y.y.y.y.y.y.y.y.o > g h R R k ; e z U   r.r.t.y.y.y.y.y.y.y.y.y.y.y.y.y.y.y.y.y.y.y.y.y.y.y.y.e.q.q.",
"y.y.y.y.y.y.y.o t t j h f : t Y h e 1 ,.q w.r.. . . . . . . y.y.y.y.y.y.y.y.y.y.y.y.y.y.y.y.y.t.e.e.",
"u.y.y.y.y.y.y.o t t f j x r ; j u d B L % . O y j z z j x x . O . y.y.y.y.y.y.y.y.y.y.u.i.i.u.y.y.y.",
"i.y.y.y.y.y.y.o t : e j T f ; w > K 7.: : : ; ; ; ; ; : p z I u u . y.y.y.y.y.y.y.y.y.i.M.M.i.y.y.y.",
"i.u.i.i.u.y.y.o t = * : k f t ; S G V h j k k l k k k k w ; : h k i . y.y.y.y.y.y.y.y.i.M.M.i.u.i.i.",
"u.i.M.M.i.y.y.y.# = t t * * * ; V 0 ; ; ; t k k W W W W z g = : i f h . y.y.y.y.y.y.y.u.i.i.u.i.M.M.",
"y.i.M.M.i.y.y.y.y.o o = ; : * . = w f k k p t t u f f u u i g e i f f z . y.y.y.y.y.y.y.y.y.y.i.M.M.",
"y.u.i.i.u.y.y.y.y.y.y.    *   : w : : k j x E Q t = = = = = f k h h t c j : y.y.y.y.y.y.y.y.y.u.i.i.",
"y.y.y.y.y.y.y.y.y.t.r.r.t.. * : h e ; x k h h W W W R j : x = U j z   y f h . t.r.r.t.y.y.y.y.y.y.y.",
"y.y.y.y.y.y.y.y.y.r.w.w.r.. = : h j u ; k x x j R R k j e x = R x h   t t f   r.w.w.r.y.y.y.y.y.y.y.",
"y.y.y.y.y.y.y.y.y.r.w.w.  : * u ; y l ; ; x R E h k j g : x = k t x     x =   r.w.w.r.y.y.y.y.y.y.y.",
"y.y.y.y.y.y.y.y.y.t.r.r.  : ; : j t : Y z ; = = e e y ; w x = g t x   _ / =   t.r.r.t.y.y.y.y.y.y.y.",
"t.y.y.y.y.y.y.u.i.i.u.y.  w y = f h ; x W W h y : ; ; i t p = x t   V.V./ = i.i.u.y.y.y.y.y.y.y.y.y.",
"r.y.y.y.y.y.y.i.M.M.i.y.  w f * u k j ; h W W j t : ; i y i +     V.g g / i.M.M.i.y.y.y.y.y.y.y.y.y.",
"r.t.e.e.t.y.y.i.M.M.i.y.  w j = w p k ; = : f j j g h = e t   X.Z.V.    / i.M.M.i.y.y.y.y.y.y.y.y.y.",
"t.e.q.q.e.y.y.u.i.i.u.y.  : p i = ; f k k p ; ; . 2 |   s f   C.Z.  D.  / u.i.i.u.y.y.y.y.y.y.y.y.y.",
"y.e.q.q.e.t.r.r.t.y.y.y.y.+ = e y ; ; t i p j k   N.'   w   A.V.V.Z.D.  / r.t.y.y.y.y.y.y.y.y.y.y.y.",
"y.t.e.e.t.r.w.w.r.y.y.y.y.$ ; * y i y = = w f f   #.] @ =   Z.V.Z.Z.D.  / w.r.y.y.y.y.y.y.y.y.y.y.y.",
"u.y.y.y.y.r.w.w.r.y.y.y.y.y.  w * : u p ; * * =   #.S.}   -   V.Z...+.Z.Z./ r.y.y.y.y.u.i.i.u.y.y.y.",
"i.y.y.y.y.t.r.r.t.y.y.y.y.y.y.  : ; * = t p u = . 5 o.{   .   N.Z.....Z.) r.t.y.y.y.y.i.M.M.i.y.y.y.",
"i.u.i.i.u.y.y.t.e.e.t.y.y.y.y.u.O = e t : ; ; = * - < { `   Z.V.Z.Z.Z.Z.) t.e.e.t.y.y.i.M.M.i.u.i.i.",
"u.i.M.M.i.y.y.e.q.q.e.y.y.y.y.i.M.4 ; y ; = = = * - 5 { { { { Z.Z.Z.Z.) ) e.q.q.e.y.y.u.i.i.u.i.M.M.",
"y.i.M.M.i.y.y.e.q.q.e.y.y.y.y.i.M.M.i.          ( { { { { ^ ~ ^ ^ ! ! y.y.e.q.q.e.y.y.y.y.y.y.i.M.M.",
"y.u.i.i.u.y.y.t.e.e.t.y.y.y.y.u.i.i.u.y.y.y.y.  S D D J J ^ y.u.i.i.u.y.y.t.e.e.t.y.y.y.y.y.y.u.i.i.",
"y.y.y.y.y.y.y.y.y.t.r.r.t.y.y.y.y.y.y.y.y.y.  8 *.<.4.9.:.K   y.y.y.y.y.y.y.y.t.r.r.t.y.y.y.y.y.y.y.",
"y.y.y.y.y.y.y.y.y.r.w.w.r.y.y.y.y.y.y.y.y.y.  G 3.h.x.n.2.&.6.X y.y.y.y.y.y.y.r.w.w.r.y.y.y.y.y.y.y.",
"y.y.y.y.y.y.y.y.y.r.w.w.r.y.y.y.y.y.y.y.y.y.  h.8.h.l.m.%.C h.6.    y.y.y.y.y.r.w.w.r.y.y.y.y.y.y.y.",
"y.y.y.y.y.y.y.y.y.t.r.r.t.y.y.y.y.y.y.y.y.y.  h.C %.%.:.m F h.b.k.1.3 y.y.y.y.t.r.r.t.y.y.y.y.y.y.y.",
"y.y.y.y.y.y.y.u.i.i.u.y.y.y.y.y.y.y.y.y.y.u.  h.  P P 9 N H a.l.c.5.  y.y.u.i.i.u.y.y.t.r.r.t.y.y.y.",
"y.y.y.y.y.y.y.i.M.M.i.y.y.y.y.y.y.y.y.y.y.i.  h.  ] ]   A *.p.p.0.,.o y.y.i.M.M.i.y.y.r.w.w.r.y.y.y.",
"y.y.y.y.y.y.y.i.M.M.i.y.y.y.y.t.e.e.t.y.y.i.  h.  S.V.  Z *.-.%.7   y.y.y.i.M.M.i.y.y.r.w.w.r.t.e.e.",
"y.y.y.y.y.y.y.u.i.i.u.y.y.y.y.e.q.q.e.y.y.u.  h.  Z.C.  Z ,.&.3.q   y.y.y.u.i.i.u.y.y.t.r.r.t.e.q.q.",
"y.y.y.y.y.y.y.y.y.y.y.y.y.y.y.e.q.q.e.t.r.r.6 h.  Z.V.  2.f.l.n.s.  y.y.y.y.y.y.y.y.y.y.y.y.y.e.q.q.",
"y.y.y.y.y.y.y.y.y.y.y.y.y.y.y.t.e.e.t.r.w.6 h.h.  Z.C.  2.d.v.n.s.  y.y.y.y.y.y.y.y.y.y.y.y.y.t.e.e.",
"u.y.y.y.y.y.y.y.y.y.y.y.y.y.y.y.y.y.y.r.  ;.h.  $.Z.V.@.  s.j.n.s.  y.y.y.y.y.y.y.y.y.u.i.i.u.y.y.y.",
"i.y.y.y.y.y.y.y.y.y.y.y.y.y.y.y.y.y.y.t.  ;.h.  [ O.O.@ =.s.a.b.s.  y.y.y.y.y.y.y.y.y.i.M.M.i.y.y.y.",
"i.u.i.i.u.y.y.y.y.y.y.y.y.y.y.u.i.i.u.  ;.;.F     v b   8.z.8.b.s.  u.y.y.y.y.y.y.y.y.i.M.M.i.u.i.i.",
"u.i.M.M.i.y.y.y.y.y.y.y.y.y.y.i.M.M.i.  ;.;.H s.& &   d.d.z.>.v.s.  i.y.y.y.y.y.y.y.y.u.i.i.u.i.M.M.",
"y.i.M.M.i.y.y.y.y.y.y.y.y.y.y.i.M.M.i.    M 6.s.g.g.g.f.d.x.>.v.s.s.  y.y.y.y.y.y.y.y.y.y.y.y.i.M.M.",
"y.u.i.i.u.y.y.y.y.y.y.y.y.y.y.u.i.i.u.y.    8 s.s.s.s.s.s.x.>.v.v.s.  y.y.y.y.y.y.y.y.y.y.y.y.u.i.i.",
"y.y.y.y.y.y.y.y.y.t.r.r.t.y.y.y.y.y.y.y.y.n                         y.y.y.y.y.t.r.r.t.y.y.y.y.y.y.y.",
"y.y.y.y.y.y.y.y.y.r.w.w.r.y.y.y.y.y.y.y.n n n n   X. . .  n n n n n n y.y.y.y.r.w.w.r.y.y.y.y.y.y.y.",
"y.y.y.y.y.y.y.y.y.r.w.w.r.y.y.y.y.y.y.y.n n n n   e e e e     n n n n y.y.y.y.r.w.w.r.y.y.y.y.y.y.y.",
"y.y.y.y.y.y.y.y.y.t.r.r.t.y.y.y.y.y.y.y.y.n n n               n n n y.y.y.y.y.t.r.r.t.y.y.y.y.y.y.y.",
"t.y.y.y.y.y.y.u.i.i.u.y.y.y.y.y.y.y.y.y.y.u.n n n n n n n n n n n y.y.y.y.u.i.i.u.y.y.y.y.y.y.y.y.y.",
"r.y.y.y.y.y.y.i.M.M.i.y.y.y.y.y.y.y.y.y.y.i.M.M.i.y.y.r.w.w.r.y.y.y.y.y.y.i.M.M.i.y.y.y.y.y.y.y.y.y."
};
