/* XPM */
static char *_d882dd2899a42becec2bd709896fc3bt9TXmNZsqmiILM5M[] = {
/* columns rows colors chars-per-pixel */
"50 50 147 2 ",
"   c #020101",
".  c #0D0101",
"X  c #020906",
"o  c #0F0801",
"O  c #00020B",
"+  c #040D09",
"@  c #080D0A",
"#  c #120101",
"$  c #1C0001",
"%  c #1A0408",
"&  c #08130F",
"*  c #010313",
"=  c #00091E",
"-  c #081410",
";  c #04131B",
":  c #0B1C1B",
">  c #250100",
",  c #2B0100",
"<  c #340000",
"1  c #3C0100",
"2  c #351404",
"3  c #0E231E",
"4  c #14251D",
"5  c #000B21",
"6  c #051820",
"7  c #01102F",
"8  c #00123A",
"9  c #011A3C",
"0  c #420101",
"q  c #4C0500",
"w  c #430A01",
"e  c #4D0902",
"r  c #530601",
"t  c #590700",
"y  c #540A01",
"u  c #5C0C01",
"i  c #4C1102",
"p  c #591402",
"a  c #620E01",
"s  c #6A0F01",
"d  c #651201",
"f  c #6C1201",
"g  c #6B1903",
"h  c #731401",
"j  c #741A02",
"k  c #7B1B01",
"l  c #7D2105",
"z  c #3C573F",
"x  c #021A4F",
"c  c #032545",
"v  c #002748",
"b  c #02294A",
"n  c #002050",
"m  c #012359",
"M  c #01305E",
"N  c #012862",
"B  c #012D68",
"V  c #023263",
"C  c #02346B",
"Z  c #193A67",
"A  c #1E3D6B",
"S  c #003573",
"D  c #003A79",
"F  c #044177",
"G  c #02427B",
"H  c #811F04",
"J  c #852203",
"K  c #842305",
"L  c #852605",
"P  c #8E2F07",
"I  c #8F2B08",
"U  c #932D05",
"Y  c #963306",
"T  c #993306",
"R  c #9D3505",
"E  c #95320A",
"W  c #9A3508",
"Q  c #9C3508",
"!  c #9F3909",
"~  c #A23909",
"^  c #DD743C",
"/  c #FB8845",
"(  c #FC8948",
")  c #FA9653",
"_  c #FFB067",
"`  c #014384",
"'  c #004B8E",
"]  c #024F92",
"[  c #025296",
"{  c #015599",
"}  c #035A9C",
"|  c #015DA6",
" . c #0262A4",
".. c #0364AB",
"X. c #056AAE",
"o. c #046DB5",
"O. c #036FB8",
"+. c #0673BA",
"@. c #0A76BD",
"#. c #177ABE",
"$. c #0777C0",
"%. c #067BC4",
"&. c #097BC2",
"*. c #067FC8",
"=. c #087FC9",
"-. c #42AE80",
";. c #55B78E",
":. c #61BA95",
">. c #69BD99",
",. c #6DBF9E",
"<. c #6FC0A0",
"1. c #72C1A2",
"2. c #78C3A6",
"3. c #0681CA",
"4. c #0983CC",
"5. c #0B87D1",
"6. c #0C8AD2",
"7. c #138DD5",
"8. c #138FD9",
"9. c #0F92DA",
"0. c #1493DB",
"q. c #1A97DE",
"w. c #1D98DC",
"e. c #289BDF",
"r. c #1D97E0",
"t. c #1E9CE4",
"y. c #159DEB",
"u. c #239BE3",
"i. c #12A5F5",
"p. c #24A0E6",
"a. c #27A2EB",
"s. c #2AA4EC",
"d. c #33ADEE",
"f. c #3DB2EE",
"g. c #28A8F0",
"h. c #34AFF2",
"j. c #3DB4F4",
"k. c #39B4F9",
"l. c #41BCF6",
"z. c #42BCFA",
"x. c #4DC5FD",
"c. c #4FC8FE",
"v. c #53C8FE",
"b. c #8CC9B2",
"n. c #FFD08A",
"m. c #FEDA8E",
"M. c #FFDC92",
/* pixels */
"<.<.<.<.<.<.<.1.2.2.1.<.<.<.<.<.<.<.<.<.<.1.2.2.1.<.<.<.<.<.<.<.<.<.<.<.<.1.2.2.1.<.<.,.>.>.,.<.<.<.",
"<.<.<.<.<.<.<.2.b.b.2.<.<.<.<.<.<.<.<.<.<.2.        <.<.<.<.<.<.<.<.<.<.<.2.b.b.2.<.<.>.;.;.>.<.<.<.",
"<.<.<.<.<.<.<.2.b.b.2.<.<.<.<.,.:.:.,.<.    h f f h     <.<.<.<.<.<.<.<.<.2.b.b.2.<.<.>.;.;.>.,.:.:.",
"<.<.<.<.<.<.<.1.2.2.1.<.<.<.<.:.-.-.:.. j f l R W f f h   <.<.<.<.<.<.<.<.1.2.2.1.<.<.,.>.>.,.:.-.-.",
"<.<.<.<.<.<.<.<.<.<.<.<.<.<.<.:.-.-.. h Y E h ~ Q f W T a   <.<.<.<.<.<.<.<.<.<.<.<.<.<.<.<.<.:.-.-.",
"<.<.<.<.<.<.<.<.<.<.<.<.<.<.<.,.:.  h h j e h h h f 0 k h h   <.<.<.<.<.<.<.<.<.<.<.<.<.<.<.<.,.:.:.",
"1.<.<.<.<.<.<.<.<.<.<.<.<.<.<.<.<.  h 0 f 1 h h h h 0 h q k   <.<.<.<.<.<.<.<.<.<.<.<.1.2.2.1.<.<.<.",
"2.<.<.<.<.<.<.<.<.<.<.<.<.<.<.<.<.  f < q 1 0 q u q > t < h   <.<.<.<.<.<.<.<.<.<.<.<.2.b.b.2.<.<.<.",
"2.1.2.2.1.<.<.<.<.<.<.<.<.<.<.1.  > $ 0 < < > 1 0 < , , < q . : 2.2.1.<.<.<.<.<.<.<.<.2.b.b.2.1.2.2.",
"1.2.b.b.2.<.<.<.<.<.<.<.<.<.<.  1 < $ $ 0 < , < < , 1 1 0 # $ >   b.2.<.<.<.<.<.<.<.<.1.2.2.1.2.b.b.",
"<.2.b.b.2.<.<.<.<.<.<.<.<.<.<.  f a e $ # # Z A A Z . # < $ 1 d y   2.<.<.<.<.<.<.<.<.<.<.<.<.2.b.b.",
"<.1.2.2.1.<.<.<.<.<.<.<.<.<.  f L h f < $ % c b c v % # < 1 u f J y   <.<.<.<.<.<.<.<.<.<.<.<.1.2.2.",
"<.<.<.<.<.<.<.<.<.,.>.>.,.<.  U L f y q y 1 # # # # 1 y y q s h Q H $ <.<.<.<.,.>.>.,.<.<.<.<.<.<.<.",
"<.<.<.<.<.<.<.<.<.>.;.;.>.  f I L y y f y y y y 1 t y y f f q L ~ k q   <.<.<.>.;.;.>.<.<.<.<.<.<.<.",
"<.<.<.<.<.<.<.<.<.>.;.;.>.  h f g y J j 1 h f f 1 h h < k K d g L h h $ <.<.<.>.;.;.>.<.<.<.<.<.<.<.",
"<.<.<.<.<.<.<.<.<.,.>.>.  1 h a r j W P 1 J H l 1 K K 0 Y ! ! 0 u h h , <.<.<.,.>.>.,.<.<.<.<.<.<.<.",
",.<.<.<.<.<.<.1.2.2.1.<.$ t h a q k j j y T W P 1 R W t l K k q u f f t . 1.2.2.1.<.<.<.<.<.<.<.<.<.",
">.<.<.<.<.<.<.2.b.b.2.<.$ q a y y h d 1 h h h h 1 h h h 1 f h h 0 a t 0 # 2.b.b.2.<.<.<.<.<.<.<.<.<.",
">.,.:.:.,.<.<.2.b.b.2.<.$ 0 0 q h h d 0 h h h f 1 h h h 1 f h h 1 d q 0 # 2.b.b.2.<.<.<.<.<.<.<.<.<.",
",.:.-.-.:.<.<.1.2.2.1.<.$ 0 1 0 h h a 0 h h h f 1 h h h 1 f h h 0 y q 0 # 1.2.2.1.<.<.<.<.<.<.<.<.<.",
"<.:.-.-.:.,.>.>.,.<.<.  1 0 < 1 s f a 1 h h f f 1 h h h 1 s h f 1 < 0 0 1   ,.<.<.<.<.<.<.<.<.<.<.<.",
"<.,.:.:.,.>.;.;.>.<.  d p < 1 , 1 q u 1 h f f f 1 h h h 1 s f 1 , 1 0   g y   <.<.<.<.<.<.<.<.<.<.<.",
"1.<.<.<.<.>.;.;.>.<.  d p , 1 , 0 0 1 < f s s s 1 f s f < t 1 1 , 1 1 1 j u   <.<.<.<.1.2.2.1.<.<.<.",
"2.<.<.<.<.,.>.>.,.  w h y $ $ < , 0 1 , 0 1 1 1 , 1 1 1 > 1 0 1 > 1 . , a t >   <.<.<.2.b.b.2.<.<.<.",
"2.1.2.2.1.<.<.,.  w h e 1 0 > . < 1 0 , 1 0 0 1 > 0 0 0 > 1 0 , 1 . , 0 1 y k i   <.<.2.b.b.2.1.2.2.",
"1.2.b.b.2.<.<.:.  < d s q 0 > # 1 , 0 1 , 0 0 1 > 0 0 1 > 0 0 , 0 . , 1 y f u >   <.<.1.2.2.1.2.b.b.",
"<.2.b.b.2.<.<.:.-.      $ r y , # 0 0 0 > < 0 0 , 0 0 > < 0 1 0 . , a r #     -.:.<.<.<.<.<.<.2.b.b.",
"<.1.2.2.1.<.<.,.:.:.,.<.  q u ,       0 1 > 0 1 < 1 1 > 0 0       < f 0   ,.:.:.,.<.<.<.<.<.<.1.2.2.",
"<.<.<.<.<.<.<.<.<.,.>.>.  q 1   1.<.                        <.<.<.4 q q   <.<.,.>.>.,.<.<.<.<.<.<.<.",
"<.<.<.<.<.<.<.<.<.>.;.;.>.    <.<.  ..C C C C C C C C C C X.; <.<.<.    <.<.<.>.;.;.>.<.<.<.<.<.<.<.",
"<.<.<.<.<.<.<.<.<.>.;.;.>.<.<.<.  #.} @.O.S S S S S S ..O.O.w.; <.<.<.<.<.<.<.>.;.;.>.<.<.<.<.<.<.<.",
"<.<.<.<.<.<.<.<.<.,.>.>.,.<.<.  e.&.` %.=.+.+.+.+.+.+.%.3.` 6.    <.<.<.<.<.<.,.>.>.,.<.<.<.<.<.<.<.",
"<.<.<.<.<.<.<.1.2.2.1.<.<.<.<.  y.} N 3.*.3.3.3.3.3.3.3.4.m X.i.    <.<.<.1.2.2.1.<.<.,.>.>.,.<.<.<.",
"<.<.<.<.<.<.<.2.b.b.2.<.<.    m.   .N 4.3.*.*.3.3.3.3.3.4.x { 9 M.M.  <.<.2.b.b.2.<.<.>.;.;.>.<.<.<.",
"<.<.<.<.<.<.<.2.b.b.2.  3   m.m._ 8 B 4.=.O.6.8.*.7.&.*.3.B 7 _ _ m.M.  <.2.b.b.2.<.<.>.;.;.>.,.:.:.",
"<.<.<.<.<.<.<.1.2.2.  m.m.m.m._   * D 6.7...r.8.3.q.O.%.3.S     _ n.M.M.  1.2.2.1.<.<.,.>.>.,.:.-.-.",
"<.<.<.<.<.<.<.<.<.<.  m.m.m._   -.5 o.p.7.| u.q.4.d.4.X.u.o.O <.  _ M.M.M.  <.<.<.<.<.<.<.<.<.:.-.-.",
"<.<.<.<.<.<.<.<.<.<.  _ _ _   ,.5 C 9.j.O.7.j.s.4.c.a.[ j.5.V 5 <.  _ _ _   <.<.<.<.<.<.<.<.<.,.:.:.",
"1.<.<.<.<.<.<.<.<.<.<.      <.<.= { 0.f.| t.v.s.3.c.k.{ j.7.{   <.<.      <.<.<.<.<.<.1.2.2.1.<.<.<.",
"2.<.<.<.<.<.<.<.<.<.<.<.<.<.<.5 n { q.f.| g.c.a.3.l.x.o.u.6.[ 9 <.<.<.<.<.<.<.<.<.<.<.2.b.b.2.<.<.<.",
"2.1.2.2.1.<.<.<.<.<.<.<.<.<.<.= ` [ 0.e.+.s.l.r.3.h.z.6.X.4.] ]   2.1.<.<.<.<.<.<.<.<.2.b.b.2.1.2.2.",
"1.2.b.b.2.<.<.<.<.<.<.<.<.<.<.5 ` { @.` 5.5.8.4.3.8.0.4.` 4.[ ' * b.2.<.<.<.<.<.<.<.<.1.2.2.1.2.b.b.",
"<.2.b.b.2.<.<.<.<.<.<.<.<.<.<.5 V G ..` %.@.&.@.+.&.&.$.` %.F C 6 b.2.<.<.<.<.<.<.<.<.<.<.<.<.2.b.b.",
"<.1.2.2.1.<.<.<.<.<.<.<.<.<.<.1.X 5 V C M V V V V V C V C C : + 2.2.1.<.<.<.<.<.<.<.<.<.<.<.<.1.2.2.",
"<.<.<.<.<.<.<.<.<.,.>.>.,.<.<.<.<.z   o # .   + X @   o #   <.<.<.<.<.<.<.<.<.,.>.>.,.<.<.<.<.<.<.<.",
"<.<.<.<.<.<.<.<.<.>.;.;.>.<.<.<.z z 2 ( / ^ X z z z   ) ( # z <.<.<.<.<.<.<.<.>.;.;.>.<.<.<.<.<.<.<.",
"<.<.<.<.<.<.<.<.<.>.;.;.>.<.<.<.z z X , , > - z z z   , , @ z z <.<.<.<.<.<.<.>.;.;.>.<.<.<.<.<.<.<.",
"<.<.<.<.<.<.<.<.<.,.>.>.,.<.<.<.z z z     X & z z z X X   z z z <.<.<.<.<.<.<.,.>.>.,.<.<.<.<.<.<.<.",
",.<.<.<.<.<.<.1.2.2.1.<.<.<.<.<.<.z z z z z z z z z z z z z z <.<.<.<.<.<.1.2.2.1.<.<.<.<.<.<.<.<.<.",
">.<.<.<.<.<.<.2.b.b.2.<.<.<.<.<.<.<.<.<.<.2.b.b.2.<.<.>.;.;.>.<.<.<.<.<.<.2.b.b.2.<.<.<.<.<.<.<.<.<."
};
