/* XPM */
static char *_4f391ecf7b84233edf430f8004bce4aGD6ldbqmGcvvodXu[] = {
/* columns rows colors chars-per-pixel */
"50 50 230 2 ",
"   c black",
".  c #04391B",
"X  c #103A1D",
"o  c #243119",
"O  c #0A2E23",
"+  c #172923",
"@  c #073623",
"#  c #0C3C24",
"$  c #0D3A2B",
"%  c #133D21",
"&  c #12372C",
"*  c #12392E",
"=  c #0F3C32",
"-  c #143A31",
";  c #173C35",
":  c #29382B",
">  c #7F320D",
",  c #15411E",
"<  c #354311",
"1  c #0C462A",
"2  c #12432D",
"3  c #144333",
"4  c #1A4435",
"5  c #144C35",
"6  c #1B4B36",
"7  c #16473A",
"8  c #1B453B",
"9  c #164B3A",
"0  c #1A4A3C",
"q  c #1A533C",
"w  c #23483C",
"e  c #23503C",
"r  c #355D38",
"t  c #1C762D",
"y  c #1F633B",
"u  c #1B6A38",
"i  c #1F7335",
"p  c #1D763A",
"a  c #3D692F",
"s  c #23772C",
"d  c #3F742E",
"f  c #246F37",
"g  c #22653D",
"h  c #236D3C",
"j  c #2C6D3B",
"k  c #376939",
"l  c #247436",
"z  c #227A36",
"x  c #24743C",
"c  c #29733D",
"v  c #257B3D",
"b  c #2A7A39",
"n  c #31723D",
"m  c #78471A",
"M  c #6D541C",
"N  c #76711B",
"B  c #4E5528",
"V  c #565B2D",
"C  c #4A5835",
"Z  c #595835",
"A  c #6D4C25",
"S  c #774626",
"D  c #654A30",
"F  c #635535",
"G  c #466835",
"H  c #537037",
"J  c #57743A",
"K  c #6C6B2D",
"L  c #6B7B38",
"P  c #797637",
"I  c #1C4B41",
"U  c #1D5643",
"Y  c #214C42",
"T  c #275746",
"R  c #235D46",
"E  c #2A5D4B",
"W  c #325C4A",
"Q  c #1E6542",
"!  c #1E6C41",
"~  c #1E7543",
"^  c #246544",
"/  c #2A6346",
"(  c #246B44",
")  c #2A6C45",
"_  c #256449",
"`  c #29634A",
"'  c #256C49",
"]  c #2A6B49",
"[  c #326A47",
"{  c #257344",
"}  c #297244",
"|  c #257A42",
" . c #2B7A43",
".. c #257349",
"X. c #2A724A",
"o. c #2D7B4B",
"O. c #327744",
"+. c #286251",
"@. c #2C6B53",
"#. c #366150",
"$. c #336A54",
"%. c #2C7551",
"&. c #397259",
"*. c #4D5B40",
"=. c #426941",
"-. c #416B48",
";. c #43744E",
":. c #8A3105",
">. c #993508",
",. c #893D19",
"<. c #973815",
"1. c #A82E12",
"2. c #A0351B",
"3. c #8A3A21",
"4. c #973A22",
"5. c #8D4310",
"6. c #AF5B13",
"7. c #BA5D1B",
"8. c #90701E",
"9. c #A7661B",
"0. c #B8621A",
"q. c #884926",
"w. c #B95D22",
"e. c #8B6A2A",
"r. c #987427",
"t. c #93722E",
"y. c #8A6B37",
"u. c #877637",
"i. c #A66627",
"p. c #B86427",
"a. c #AF7033",
"s. c #C7591B",
"d. c #AF6C43",
"f. c #2A863B",
"g. c #338D3D",
"h. c #3C893F",
"j. c #349230",
"k. c #389339",
"l. c #3D9B3C",
"z. c #3BA02F",
"x. c #3DA734",
"c. c #3DA23D",
"v. c #59912D",
"b. c #488A36",
"n. c #5D8739",
"m. c #459A3A",
"M. c #56993C",
"N. c #7E8021",
"B. c #65853C",
"V. c #758F32",
"C. c #699832",
"Z. c #759A37",
"A. c #4DAC2F",
"S. c #45A739",
"D. c #43A33C",
"F. c #4BAB3E",
"G. c #59A937",
"H. c #4BB435",
"J. c #47B73A",
"K. c #4BB43C",
"L. c #53B23A",
"P. c #54B538",
"I. c #67A934",
"U. c #2D8746",
"Y. c #358344",
"T. c #3B8644",
"R. c #348B44",
"E. c #3A8C44",
"W. c #36844D",
"Q. c #3D844F",
"!. c #358B4B",
"~. c #3A8B4B",
"^. c #2E9442",
"/. c #349145",
"(. c #3B9344",
"). c #3D9B44",
"_. c #399549",
"`. c #338751",
"'. c #3A8553",
"]. c #3A8953",
"[. c #379150",
"{. c #3EA142",
"}. c #3DA04C",
"|. c #478A46",
" X c #439D43",
".X c #499943",
"XX c #43964A",
"oX c #459D4A",
"OX c #469953",
"+X c #509357",
"@X c #43A243",
"#X c #48A443",
"$X c #4CAB44",
"%X c #45A34B",
"&X c #4BAA4B",
"*X c #53AA43",
"=X c #4BB443",
"-X c #4AB648",
";X c #52B344",
":X c #47A251",
">X c #53B953",
",X c #63AC44",
"<X c #4D8864",
"1X c #94832E",
"2X c #AE8735",
"3X c #898A4F",
"4X c #BB984A",
"5X c #CF8345",
"6X c #DC9457",
"7X c #DFAD6A",
"8X c #DEB369",
"9X c #E8A568",
"0X c #EFA873",
"qX c #EDC87B",
"wX c #42AE80",
"eX c #55B78E",
"rX c #61BA95",
"tX c #6BBE9B",
"yX c #6FC0A0",
"uX c #72C1A2",
"iX c #78C3A6",
"pX c #8CC9B2",
"aX c #FAD089",
"sX c #FFD297",
"dX c #FFDD95",
"fX c #FFE38E",
"gX c #FDE896",
"hX c #F6EFA9",
"jX c #FFE8C2",
"kX c #FFF5D4",
/* pixels */
"yXyXyXyXyXyXyXuXiXiXuXyXyXyXyXyXyXyXyXyXyXuXiXiXuXyXyXyXyXyXyXyXyXyXyXyXyXuXiXiXuXyXyXtXtXtXtXyXyXyX",
"yXyXyXyXyXyXyXiXpXpXiXyXyXyXyXyXyXyXyXyXyXiXpX      yXyXyXyXyXyXyXyXyXyXyXiXpXpXiXyXyXtXeXeXtXyXyXyX",
"yXyXyXyXyXyXyXiXpXpXiXyXyXyXyXtXrXrXtXyXyXiX  ].~.].  yXyXyXyXyXyXyXyXyXyXiXpXpXiXyXyXtXeXeXtXtXrXrX",
"yXyXyXyXyXyXyXuXiXiXuXyXyXyXyXrXwXwXrXyXyXuX  Q.].'.<X  yXyXyXyXyXyXyX    uXiXiXuXyXyXtXtXtXtXrXwXwX",
"yXyXyXyXyXyXyXyXyXyXyXyXyXyXyXrXwXwXrXtXtX  ;. ./.).|.  yXyXyXyXyX    <XW   yXyXyXyXyXyXyXyXyXrXwXwX",
"yXyXyXyXyXyXyXyXyX      yXyX      rXtXtXeX  '.R.R. XOX  yX    yX  @.@.Q.6   yXyXyXyXyXyXyXyXyXtXrXrX",
"uXyXyXyXyXyXyXyX  l l X.    @.l l   yX      Q.(.{.D.%XT.  / '   R.^.W.=   yXyX        uXiXiXuXyXyXyX",
"iXyXyXyXyXyXyX  T E q X.y ^ ] _ e :   T $.+XR.l.D.D.oXR.g 5 1 +XXX_.O.- W     Q.Q.&.@.  pXpXiXyXyXyX",
"iXuXiXiXuXyXyX  $.@.( x f f l l y O @ ( x I.j.g.@X%XOX~.a , . @Xm.).{ * : o . Q.Q.@.    pXpXiXuXiXiX",
"uXiXpXpXiXyXyXyX  # c  X@Xc.{.{._.c } { n p.I.F.%Xv } j 7.K }  XE.R.~ & y.p.[ Q.$.  yXuXiXiXuXiXpXpX",
"yXiXpXpXiXyXyXyX  # h i (.c.@XF.;X>X_.~.T.k ;X&X/.R.J i.gXa.e.g.u g # p.sXgXa.Q.Q.Q.  yXyXyXyXiXpXpX",
"yXuXiXiXuXyXyXyX  # ( ~ [.M.V.Z.I.K.j.j.k.l &X&X~.R.J r.dX4Xu.h.v f . y.qXdXy.Q.& # $       yXuXiXiX",
"yXyXyXyXyXyXyX  @.^ ) } T.L 6.s.1XP.K.S.M.~.R.R.!.U.z #Xp.L Q.{ ~ x Y.l y.9.o.Q.2 { X..   `   yXyXyX",
"yXyXyXyXyXyX  ` _ _ ( ].u.w.gXkXjX0.m.u.a..X).).U. X@X#Xk.T./..Xc.(.v { E.m.D.x ..{ [ _ @.$   yXyXyX",
"yXyXyXyXyXyX  O $ # g x e.p.gXhXdX7.m.n.L F.@XD.;X_.B.r.r.n.l.@Xs  .x _.%X Xf.x | `...^ /   yXyXyXyX",
"yXyXyXyXyXyXyX  $ @ ( ' y.i.dXgXqXa.b.k.g.K.c.D.J.b.P 7.p.N n.@Xz { l @X%X}.c a d '.( ^ #.  yXyXyXyX",
"tXyXyXyXyX    7 %.] { x ].n.s.s.e.v K.K.K./.g.).L.9.9.gXkXd.a.^.[.(.@XD.f.o.E.i.y.' y #   yXyXyXyXyX",
"tXyXyXyX  e / / ^ ( { '.!.T.G G d ).c.H.L.;Xg.l.L.9.9.gXhX0.9.=XK.$X(.p Y.R.oXM.|.' ( #   ; yXyXyXyX",
"tXtXrXrX  8 q ^ ( k Z W.!.Y.b f.g.@X@X&X$XD.L B.*XN.4XdXdX2XN.H.F.%XT.Z ;.g.m.).`.( ( 1 2   yXyXyXyX",
"tXrXwXwXrX  @ ^ ) V <.k X.l oX XD. XD.U.z h.i.e.b.K.V.0.0.Z.H.H.c x j p.L g..Xp { ~ [ ) ( Q   yXyXyX",
"yXrXwXwX  #.^ %.q.,.9X<.V { { ~.R.R.g.@XA.w.gXaX0.I.H.A.G.A.x.@X/.E./.T.o.~ c T.`.' ( ( _ @   yXyXyX",
"yXtX    $.R ^ ] C A 5.Z k f (.%X/.R.$XK.H.V.2Xa.L *XF.H.K.H.F.(.(./.R. .W.`.`.u.P ) ( 3 4   yXyXyXyX",
"uX  $ 3 ^ ^ ( ( ] *.m j } c m.M..XR.$XH.H.G.8.N k.#Xx.J.=XG.G.R. XXX~.z U.E.R.t.u.[ k %   iXuXyXyXyX",
"iX  _ ` ^ ( X.( { c |.E. .} ..i.e.%.c.S.H.P.j.m.K.J.F.D.k.r.i.R./.U.v %X@X@X XD.%Xk p.< $.      yXyX",
"iX  ` _ X.X.} R.~.~.g.oX XOXp ,XL.-X=XS.D.g.=XZ.r.v.c.|.i.aXfXp.,X;X=XD.@X@Xc.s Z 3.6X5.S W W W   iX",
"uX  w / ' } X.'.W.Y.k.).).(.f.L.H.K.K.S.@XR.L.C.1XM.{.l.P dXaXt.G.F.L.x.C.V.OXx =.S 6Xm B E R T   pX",
"yXiX  $ Q { { } ^ u .XD.U.s *XH.H.=XD.D.@XR.K.K.K.x.D.%X~.u.i.h.~.k.K.J.1Xi.X.} ) / <.C W       pXpX",
"yXuX  $ _ ( ( ^ ^ ( v p R.E.g.l.z.z.D.^.g.!.K.K.S.S.D.D.v |.v.{.E.R.g.t a G { ) ( / C X   yXyXuXiXiX",
"yXyX  - +.R ^ ( ( ' } Z H R.U. X XXXB.|.R.!.$X%X:XD.D.%Xb ~.:X@Xg.E.!.x x { } { ( / W     yXyXyXyXyX",
"yXyX+   U T ` ^ ) ( k <.K ~.{ %XXXk 4.3Xb ..R.!.x :X%Xg.R.f.v oXk.b.n [.~.~.f } ' ^   yXyXyXyXyXyXyX",
"yXyXyXyX  8 I 0 Q ! { j h ! { x F 4.7X:.> ) oX(.{ { s %XE.U.o.| ,.2.4.j  .~.].{ ( ^ `     yXyXyXyXyX",
"yXyXyXyX-.  3 0 ` ( X.' ( { ] ' k K 5.M B OX{.%Xc F V  Xl.U.[ S 9X9X0XS G  .{ ( ( ) _ $   yXyXyXyXyX",
"yXyXyX-.-.  $ 5 R ( X.^ / ] ( y l .X5.B |  X{.:Xn m M oXl.l k 1.9X8X8X>.V c ( ( ^ ] _ $   tXtXyXyXyX",
"yXyXyX-.-.  * ` _ ^ ^ ^ ^ ( ^ oX XR.E. .) @X X%X} !.W.x  Xi r <.5X5X7X1.K ].X.^ ^ / 5 3 4   tXyXyXyX",
"yXyXyX-.-.  O 8 8 5 ^ ( ^ _ 9 ( | R.z h j #Xt v } R.R.`.x h / a :.>.:.G O.} ( ( ^ 7 I ;   -.tXtXrXrX",
"yXyX-.-.-.-.  3 0 0 ` ^ ^ _ 0 }  .W.c ) g oXx { j J J R.h ( ] ( A S S ) ) ( ( ( ^ 8 I     -.tXrXwXwX",
"yXyX-.-.-.-.-.  8 7 I ^ I 0 _ ] } } } ] ( ) { ) r 5.m |.} ) ' ' _ ) ] ^ ^ _ } } ] -   -.-.-.yXrXwXwX",
"yXyX-.-.-.-.  8 @.+.0 9 I 0 5 ^ ( X.g 0 U ^ } V <.6X5X,.r ] ( ^ 9 U ^ ^ _ ' y } /   -.-.-.-.yXtXrXrX",
"uXyX-.-.-.  & Y Y 7 3 ; ; 3 8 / g ( ( 0 9 ` ' k F 5.q.Z _ ^ ( ^ 0 Y q _ R 5 Q ) / ;   -.-.-.uXyXyXyX",
"iXyXyX-.-.  & w w w     O * 8 / ^ / ` 0 9 _ ) ) j A D / _ ^ _ ` 8 8 9 ( q 8 _ E E 8   -.-.pXiXyXyXyX",
"iXuXiX-.-.-.        -.-.    8 ` U 3 8 0 9 ` ] X...( / _ 5 R _ 9 = ; 9 _ 0 8 7 8 9   -.-.-.pXiXuXiXiX",
"uXiXpXpX-.-.-.-.-.-.-.-.-.-.  3 3 - - 8 8 9 ^ ( ..^ ` 8 0 T ` 8 * - $ 0 * - - *   -.-.-.iXiXuXiXpXpX",
"yXiXpXpXiX-.-.-.-.-.-.-.-.-.  O &     8 8 4 _ ( .._ T 4 4 Y T 8       3           -.-.uXyXyXyXiXpXpX",
"yXuXiXiXuXyX-.-.-.-.-.-.-.-.-.    -.-.  & 0 ` ^ _ 7 8 &   4 8   -.-.-.  -.-.-.-.-.-.uXuXyXyXyXuXiXiX",
"yXyXyXyXyXyXyX-.-.-.-.-.-.-.-.-.-.-.-.    8 ` E 0 8 4   -.    -.-.-.-.-.-.-.-.-.-.tXtXyXyXyXyXyXyXyX",
"yXyXyXyXyXyXyXyXyX-.-.-.-.-.-.-.-.-.-.-.-.  8 8 * &   -.-.-.-.-.-.-.-.-.-.-.-.tXeXeXtXyXyXyXyXyXyXyX",
"yXyXyXyXyXyXyXyXyXtX-.-.-.-.-.-.-.-.-.-.-.  4 w       -.-.-.-.-.-.-.-.-.-.-.yXtXeXeXtXyXyXyXyXyXyXyX",
"yXyXyXyXyXyXyXyXyXtXtXtX-.-.-.-.-.-.-.-.-.-.    -.-.-.-.-.-.-.-.-.-.-.-.-.yXyXtXtXtXtXyXyXyXyXyXyXyX",
"tXyXyXyXyXyXyXuXiXiXuXyXyXyXyX-.-.-.-.-.-.-.-.-.-.-.-.-.-.-.-.-.-.yXyXyXyXuXiXiXuXyXyXyXyXyXyXyXyXyX",
"tXyXyXyXyXyXyXiXpXpXiXyXyXyXyXyXyXyXyXyXyXiXpXpXiXyXyXtXeXeXtXyXyXyXyXyXyXiXpXpXiXyXyXyXyXyXyXyXyXyX"
};
