/* XPM */
static char *bdfecae9cca947249ecaba7802d068a6KQvousHL06j20M60[] = {
/* columns rows colors chars-per-pixel */
"50 50 204 2 ",
"   c black",
".  c #341B07",
"X  c #082A02",
"o  c #0D3D01",
"O  c #153D07",
"+  c #0E3F12",
"@  c #193C15",
"#  c #362C13",
"$  c #22361A",
"%  c #323019",
"&  c #461D0A",
"*  c #55270B",
"=  c #54300C",
"-  c #4B321C",
";  c #54311D",
":  c #64320F",
">  c #643413",
",  c #66341D",
"<  c #713B1F",
"1  c #5C3725",
"2  c #653727",
"3  c #6A3D2A",
"4  c #733F20",
"5  c #0E4200",
"6  c #154C02",
"7  c #184809",
"8  c #1A5504",
"9  c #1B4416",
"0  c #194A15",
"q  c #18431C",
"w  c #1D4C1C",
"e  c #1D5214",
"r  c #1F5813",
"t  c #1E531C",
"y  c #254E00",
"u  c #235303",
"i  c #255B07",
"p  c #22481E",
"a  c #225417",
"s  c #22541C",
"d  c #275819",
"f  c #255A1C",
"g  c #2B600C",
"h  c #2C6D09",
"j  c #3B6E05",
"k  c #3A730C",
"l  c #2C6619",
"z  c #356B1B",
"x  c #3C771E",
"c  c #1B4422",
"v  c #1D4C22",
"b  c #194428",
"n  c #1E5222",
"m  c #1F5229",
"M  c #234D24",
"N  c #294926",
"B  c #234C28",
"V  c #225424",
"C  c #285425",
"Z  c #255923",
"A  c #24532A",
"S  c #29532B",
"D  c #2C5B28",
"F  c #315B2D",
"G  c #2E5832",
"H  c #325933",
"J  c #2D642A",
"K  c #316424",
"L  c #336D22",
"P  c #376828",
"I  c #3A7425",
"U  c #3D762B",
"Y  c #396C33",
"T  c #417E1F",
"R  c #6F432A",
"E  c #7A4124",
"W  c #76442B",
"Q  c #79462C",
"!  c #774934",
"~  c #7C4A32",
"^  c #40632B",
"/  c #467927",
"(  c #4B7F29",
")  c #446D35",
"_  c #487637",
"`  c #854C2E",
"'  c #844B30",
"]  c #894E33",
"[  c #8B5537",
"{  c #81533A",
"}  c #935333",
"|  c #93563A",
" . c #835F45",
".. c #975E40",
"X. c #946746",
"o. c #9F6243",
"O. c #4A8B0A",
"+. c #4E8B0E",
"@. c #55930A",
"#. c #5B930D",
"$. c #5A9C0D",
"%. c #4C8D15",
"&. c #478A19",
"*. c #4C8C1D",
"=. c #528D14",
"-. c #528D1C",
";. c #4E911D",
":. c #549312",
">. c #599412",
",. c #5B9914",
"<. c #53921C",
"1. c #5A951B",
"2. c #629917",
"3. c #619E1E",
"4. c #73AF19",
"5. c #7BB616",
"6. c #7FBD15",
"7. c #76B41E",
"8. c #7AB71C",
"9. c #77B91B",
"0. c #7DBB1B",
"q. c #4A8524",
"w. c #488526",
"e. c #4D8C24",
"r. c #4D8D2A",
"t. c #518E24",
"y. c #548328",
"u. c #538D2B",
"i. c #5C8D2B",
"p. c #4E9122",
"a. c #4D9029",
"s. c #539423",
"d. c #54932B",
"f. c #5B9328",
"g. c #478134",
"h. c #4C8432",
"j. c #4E8C32",
"k. c #4B843C",
"l. c #558C33",
"z. c #558A3A",
"x. c #559132",
"c. c #5B9335",
"v. c #59933D",
"b. c #619B27",
"n. c #699B34",
"m. c #67A628",
"M. c #74B124",
"N. c #7CB023",
"B. c #7DBC22",
"V. c #7FB62E",
"C. c #7EBC2C",
"Z. c #6DAE36",
"A. c #75AC33",
"S. c #7BAD39",
"D. c #7BB732",
"F. c #7FC119",
"G. c #7FC030",
"H. c #5C8A43",
"J. c #5E914D",
"K. c #679B47",
"L. c #709D40",
"P. c #75AC46",
"I. c #81BB17",
"U. c #85BE1C",
"Y. c #81B625",
"T. c #83BC24",
"R. c #88BE24",
"E. c #84BC2B",
"W. c #85AD3A",
"Q. c #83BB33",
"!. c #8CBE34",
"~. c #85BD3A",
"^. c #8ABC3F",
"/. c #82C30F",
"(. c #86C417",
"). c #8AC415",
"_. c #85C31C",
"`. c #8AC41B",
"'. c #91C61E",
"]. c #85C223",
"[. c #8AC423",
"{. c #8AC926",
"}. c #84C22C",
"|. c #8AC529",
" X c #90C721",
".X c #93CD2B",
"XX c #86C431",
"oX c #8DC335",
"OX c #84C138",
"+X c #8CC63B",
"@X c #8FC83D",
"#X c #97CC39",
"$X c #85BB44",
"%X c #81B759",
"&X c #8FC54D",
"*X c #9BDA43",
"=X c #42AE80",
"-X c #55B78E",
";X c #61BA95",
":X c #6BBE9B",
">X c #6FC0A0",
",X c #72C1A2",
"<X c #78C3A6",
"1X c #8CC9B2",
/* pixels */
">X>X>X>X>X>X>X,X<X<X,X>X>X>X>X>X>X>X>X>X>X,X<X<X,X>X>X>X>X>X>X>X>X>X>X>X>X,X<X<X,X>X>X:X:X:X:X>X>X>X",
">X>X>X>X>X>X>X<X1X1X<X>X>X>X>X>X>X>X>X>X>X<X1X1X<X>X>X>X>X>X>X>X>X>X>X>X>X<X1X1X<X>X>X:X-X-X:X>X>X>X",
">X>X>X>X>X>X>X<X1X1X<X>X>X>X>X:X;X;X:X>X>X<X1X1X      >X>X>X>X,X>X>X>X>X>X<X1X1X<X>X>X:X-X-X:X:X;X;X",
">X>X>X>X>X>X>X,X<X<X,X>X>X>X>X;X=X=X;X>X  ,X    [.!./       >X>X>X>X>X>X>X,X<X<X,X>X>X:X:X:X:X;X=X=X",
">X>X>X>X>X>X>X>X>X>X>X>X>X>X>X;X=X=X;X  W.  X  X)..X@Xu %XL.    >X>X>X>X>X>X>X>X>X>X>X>X>X>X>X;X=X=X",
">X>X>X>X>X>X>X>X>X>X>X>X>X>X>X:X;X;X  V.I.U.U.`.`.`.`.XX@.n.x.I   >X>X>X>X>X>X>X>X>X>X>X>X>X>X:X;X;X",
",X>X>X>X>X>X>X>X>X>X>X>X>X>X>X>X>X  O M.I.U.U.`.`.`.(..XC.b.m.T   >X>X>X>X>X>X>X>X>X>X,X<X<X,X>X>X>X",
"<X>X>X>X>X>X>X>X>X>X>X    >X>X>X  A.U.T.U.U.E.[._._.`.1.1.1.m.8   >X>X>X>X>X>X>X>X>X>X<X1X1X<X>X>X>X",
"<X,X<X<X,X,X>X>X>X>X  $X&X  >X,X  oX/.].].B.$.:.B._._.=.<.*.x Z N   ,X>X>X>X>X>X>X>X>X<X1X1X<X,X<X<X",
",X<X1X1X<X>X>X      oX`.`.Q.  <X      XX3.*.e.*.Q.C.E.<.<.d.e V $   <X>X>X>X>X>X>X>X>X,X<X<X,X<X1X1X",
">X<X1X1X<X>X  N.N.7 `.`.`.#XK.  y.P     u.e.e.*.;.s.&.*.<.I V V   1X<X>X>X>X>X>X>X>X>X>X>X>X>X<X1X1X",
">X,X<X<X,X>X  T.Y.R.R.`.|.7.e.e.*./ +   K / j.6 U L h.*.( f n v       >X      >X>X>X>X>X>X>X>X,X<X<X",
">X>X>X>X>X>X  N.Y.T.R.4.m.<.;.p.*.g.V   s V   t t n a d w w V v   y.^.  ~.].E.  :X:X:X>X>X>X>X>X>X>X",
">X>X>X>X>X  n.2.T.`.B.+.%.%.;.;.<.J V       P.  V n s C C B B   V E.].T._.(.].y     :X>X>X>X>X>X>X>X",
">X>X>X>X  !.[.`.].@.=.%.%.Z.t.u.x.e V   F i._.].        V c V   j B.Y.[.5.6.[.u f.S.  >X>X>X>X>X>X>X",
">X>X>X>X  @X_._.9.-.&.*.&.s.q.h.7 V   q d ~.`.{.*X6 K.u.      A._._.U.6.I.`.[.].#._.~.  >X>X>X>X>X>X",
":X>X>X>X  i.1.,.$.<.-.e.e.*.a 7 V   Y.z j E.[._.}.f.*.t.o 9     0.B.8.].]._.`./.5._.D.  >X>X>X>X>X>X",
":X>X>X>X  ^ 5 u.<.-.e.d.x x.V w   T.0.T.T.U.@.>.:.t.s.t.5 H._     XX:.XX(._._.].2.b.c.  >X>X>X>X>X>X",
":X:X;X;X:X  N 8 q.v.v.d s D B a   8.].|.R.U.>.<.;.e.p.e.u.u.z.F   k 1.B.(._.M.O.*.e.8 V   >X>X>X>X>X",
":X;X=X=X;X>X  0 t s s s V V V   ( }.@X#.#.+Xm.t.r.a.8 e.r.e.K.C   z.e.s.M.G.3.*.e.l.e V   >X>X>X>X>X",
">X;X=X=X;X:X  9 C s V C V V V   J q.e.-.-.e.*.r.x.d.h e.r.L t 0   f z.q.*.%.e.e.e.k.B A   >X>X>X>X>X",
">X:X;X;X:X:X-X  M _               ) j.t.t.r.e.r.i r l k.J.f F b   V d s q.e./ h.k.0 c   >X>X>X>X>X>X",
",X>X>X>X>X:X-X  O   (.].V i.b.q./   D l r.r.r.g.t A V w w C +         V a f V V v 0   ,X<X<X,X>X>X>X",
"<X>X>X>X>X:X:X:X  |._.(.T.R.T.b.u.V   e t V t s V V V s V       C.D.I     V A V w w   <X1X1X<X>X>X>X",
"<X,X<X<X,X>X>X  #X[.[.|.@.+XC.s.q.Y V   c + V V V M S G   S.5./._.].E.i $X    V + H   <X1X1X<X,X<X<X",
",X<X1X1X<X>X  }.'.).{.=.<.-.t.*.r.L v w   @ m A S V     V f.7.9.O.OXC.0.F.A.G       >X,X<X<X,X<X1X1X",
">X<X1X1X<X>X  V.|.|.M.<.*.-.t.e.e.I V C           >X  b V f.<.:.-.=.+.D.D.h.H p   >X>X>X>X>X>X<X1X1X",
">X,X<X<X,X>X  H.g q.u.t.t.t.t.z U a V V   >X  .   >X  v t 6 v.*.*.-.<.<.1.J.9   :X>X>X>X>X>X>X,X<X<X",
">X>X>X>X>X>X>X  J J 0 K U z v.e a V V V   >X  2   :X  n n Z 7 d.<.<.<.e.t.7 9   :X:X:X>X>X>X>X>X>X>X",
">X>X>X>X>X>X>X  V S v c n n V n V V V B   >X  2   -X  v w w V l.e.r.e.x.g w X   -X-X:X>X>X>X>X>X>X>X",
">X>X>X>X>X>X>X>X    q v n n n V V V v   >X>X  !   -X:X    q V s t t f t v v   :X-X-X:X>X>X>X>X>X>X>X",
">X>X>X>X>X>X>X>X>X:X  M w V S S         >X>X  W       # %   A V V v c q B B   :X:X:X:X>X>X>X>X>X>X>X",
">X>X>X>X>X>X>X,X<X<X,X    p A N     o.1       E > * = -     S A A A M       <X<X,X>X>X:X:X:X:X>X>X>X",
">X>X>X>X>X>X>X<X1X1X<X>X>X      >X>X  3 o.o.X.` < '     >X  M S A A   >X>X<X1X1X<X>X>X:X-X-X:X>X>X>X",
">X>X>X>X>X>X>X<X1X1X<X>X>X>X>X:X;X;X:X  ! W o.] ~   >X>X>X>X        >X>X>X<X1X1X<X>X>X:X-X-X:X:X;X;X",
">X>X>X>X>X>X>X,X<X<X,X>X>X>X>X;X=X=X;X>X    ] ..  >X>X>X>X>X>X>X>X>X>X>X>X,X<X<X,X>X>X:X:X:X:X;X=X=X",
">X>X>X>X>X>X>X>X>X>X>X>X>X>X>X;X=X=X;X:X:X:X  |   >X>X>X>X>X>X>X>X>X>X>X>X>X>X>X>X>X>X>X>X>X>X;X=X=X",
">X>X>X>X>X>X>X>X>X>X>X>X>X>X>X:X;X;X:X:X-X-X  ]   >X>X>X>X>X>X>X>X>X>X>X>X>X>X>X>X>X>X>X>X>X>X:X;X;X",
",X>X>X>X>X>X>X>X>X>X>X>X>X>X>X>X>X>X>X:X-X-X  ]   >X>X,X<X<X,X>X>X>X>X>X>X>X>X>X>X>X>X,X<X<X,X>X>X>X",
"<X>X>X>X>X>X>X>X>X>X>X>X>X>X>X>X>X>X>X:X:X:X  ]   >X>X<X1X1X<X>X>X>X>X>X>X>X>X>X>X>X>X<X1X1X<X>X>X>X",
"<X,X<X<X,X>X>X>X>X>X>X>X>X>X>X,X<X<X,X>X>X:X  `   >X>X<X1X1X<X,X<X<X,X>X>X>X>X>X>X>X>X<X1X1X<X,X<X<X",
",X<X1X1X<X>X>X>X>X>X>X>X>X>X>X<X1X1X<X>X>X  [ E ~   >X,X<X<X,X<X1X1X<X>X>X>X>X>X>X>X>X,X<X<X,X<X1X1X",
">X<X1X1X<X>X>X>X>X>X>X>X>X>X>X<X1X1X<X>X   .: } , {   >X>X>X>X<X1X1X<X>X>X>X>X>X>X>X>X>X>X>X>X<X1X1X",
">X,X<X<X,X>X>X>X>X>X>X>X>X>X>X,X<X<X,X  Q 3 > | * W {   >X>X>X,X<X<X,X>X>X>X>X>X>X>X>X>X>X>X>X,X<X<X",
">X>X>X>X>X>X>X>X>X:X:X:X:X>X>X>X>X>X  [ R & 4 | ~ * Q |   >X>X>X>X>X>X>X>X>X>X:X:X:X:X>X>X>X>X>X>X>X",
">X>X>X>X>X>X>X>X>X:X-X-X:X>X>X>X>X          [ } Q &         >X>X>X>X>X>X>X>X>X:X-X-X:X>X>X>X>X>X>X>X",
">X>X>X>X>X>X>X>X>X:X-X-X:X>X>X>X>X>X>X>X>X>X  4 ;   :X>X>X>X>X>X>X>X>X>X>X>X>X:X-X-X:X>X>X>X>X>X>X>X",
">X>X>X>X>X>X>X>X>X:X:X:X:X>X>X>X>X>X>X>X>X>X>X    :X:X>X>X>X>X>X>X>X>X>X>X>X>X:X:X:X:X>X>X>X>X>X>X>X",
":X>X>X>X>X>X>X,X<X<X,X>X>X>X>X>X>X>X>X>X>X,X<X<X,X>X>X:X:X:X:X>X>X>X>X>X>X,X<X<X,X>X>X>X>X>X>X>X>X>X",
":X>X>X>X>X>X>X<X1X1X<X>X>X>X>X>X>X>X>X>X>X<X1X1X<X>X>X:X-X-X:X>X>X>X>X>X>X<X1X1X<X>X>X>X>X>X>X>X>X>X"
};
